SplineFontDB: 3.2
FontName: Game_Font
FullName: Game Font
FamilyName: Game_Font
Weight: Book
Copyright: Copyright (c) 2020, MuseScore BVBA (http://www.musescore.org/)
Version: 0.5
ItalicAngle: 0
UnderlinePosition: -101
UnderlineWidth: 51
Ascent: 819
Descent: 205
InvalidEm: 0
sfntRevision: 0x00010000
LayerCount: 2
Layer: 0 1 "Back" 1
Layer: 1 1 "Fore" 0
HasVMetrics: 1
XUID: [1021 985 745227502 21427]
StyleMap: 0x0040
FSType: 0
OS2Version: 4
OS2_WeightWidthSlopeOnly: 0
OS2_UseTypoMetrics: 0
CreationTime: 1536333813
ModificationTime: 1700209867
PfmFamily: 81
TTFWeight: 400
TTFWidth: 5
LineGap: 0
VLineGap: 0
Panose: 0 0 0 0 0 0 0 0 0 0
OS2TypoAscent: 2060
OS2TypoAOffset: 0
OS2TypoDescent: -2060
OS2TypoDOffset: 0
OS2TypoLinegap: 0
OS2WinAscent: 2060
OS2WinAOffset: 0
OS2WinDescent: 2060
OS2WinDOffset: 0
HheadAscent: 2060
HheadAOffset: 0
HheadDescent: -2060
HheadDOffset: 0
OS2SubXSize: 666
OS2SubYSize: 614
OS2SubXOff: 0
OS2SubYOff: 77
OS2SupXSize: 666
OS2SupYSize: 614
OS2SupXOff: 0
OS2SupYOff: 358
OS2StrikeYSize: 51
OS2StrikeYPos: 169
OS2CapHeight: 486
OS2XHeight: 282
OS2Vendor: 'PfEd'
OS2CodePages: 00000001.00000000
OS2UnicodeRanges: 00000000.10000000.00000000.00000000
Lookup: 4 0 1 "'liga' Make Double Sharps" { "'liga' Make Double Sharps-1"  } ['liga' ('DFLT' <'dflt' > 'latn' <'dflt' > ) ]
MarkAttachClasses: 1
DEI: 91125
ShortTable: cvt  2
  34
  648
EndShort
ShortTable: maxp 16
  1
  0
  133
  476
  51
  0
  0
  2
  0
  1
  1
  0
  64
  46
  0
  0
EndShort

StartChar: .notdef
Encoding: 65536 -1 0
Width: 374
GlyphClass: 1
Flags: W
LayerCount: 2
Fore
SplineSet
34 0 m 1,0,-1
 34 682 l 1,1,-1
 306 682 l 1,2,-1
 306 0 l 1,3,-1
 34 0 l 1,0,-1
68 34 m 1,4,-1
 272 34 l 1,5,-1
 272 648 l 1,6,-1
 68 648 l 1,7,-1
 68 34 l 1,4,-1
EndSplineSet
Validated: 1
EndChar

StartChar: hyphen
Encoding: 45 45 4
Width: 272
GlyphClass: 1
Flags: W
LayerCount: 2
Fore
SplineSet
18 325 m 1,0,1
 0 325 0 325 0 307 c 2,2,3
 0 307 0 307 0 281 c 1,4,5
 0 263 0 263 18 263 c 2,6,7
 18 263 18 263 254 263 c 280,8,9
 272 263 272 263 272 281 c 2,10,11
 272 281 272 281 272 307 c 256,12,13
 272 325 272 325 254 325 c 2,14,15
 254 325 254 325 18 325 c 1,0,1
EndSplineSet
Validated: 9
EndChar

StartChar: zero
Encoding: 48 48 5
Width: 460
GlyphClass: 1
Flags: W
LayerCount: 2
Fore
SplineSet
230 521 m 128,-1,1
 312 521 312 521 367 446 c 128,-1,2
 422 371 422 371 422 260 c 128,-1,3
 422 149 422 149 367 74.5 c 128,-1,4
 312 0 312 0 230 0 c 128,-1,5
 148 0 148 0 93.5 74.5 c 128,-1,6
 39 149 39 149 39 260 c 128,-1,7
 39 371 39 371 93.5 446 c 128,-1,0
 148 521 148 521 230 521 c 128,-1,1
291 402 m 2,8,9
 291 433 291 433 276 456 c 128,-1,10
 261 479 261 479 230 479 c 128,-1,11
 199 479 199 479 184.5 456.5 c 128,-1,12
 170 434 170 434 170 402 c 2,13,-1
 170 118 l 2,14,15
 170 86 170 86 184.5 63.5 c 128,-1,16
 199 41 199 41 230 41 c 128,-1,17
 261 41 261 41 276 64 c 128,-1,18
 291 87 291 87 291 118 c 2,19,-1
 291 402 l 2,8,9
EndSplineSet
Validated: 1
EndChar

StartChar: one
Encoding: 49 49 6
Width: 460
VWidth: 1284
GlyphClass: 1
Flags: W
LayerCount: 2
Fore
SplineSet
383 47 m 2,0,1
 395 47 395 47 395 35 c 2,2,-1
 395 12 l 2,3,4
 395 0 395 0 383 0 c 2,5,-1
 103 0 l 2,6,7
 91 0 91 0 91 12 c 2,8,-1
 91 35 l 2,9,10
 91 47 91 47 103 47 c 2,11,-1
 181 47 l 1,12,-1
 181 396 l 1,13,-1
 108 271 l 2,14,15
 104 265 104 265 98 265 c 0,16,17
 96 265 96 265 92 267 c 2,18,-1
 72 279 l 2,19,20
 66 283 66 283 66 289 c 0,21,22
 66 293 66 293 67 295 c 2,23,-1
 182 494 l 1,24,-1
 186 498 l 2,25,26
 190 500 190 500 192 500 c 2,27,-1
 293 500 l 2,28,29
 306 500 306 500 306 487 c 2,30,-1
 306 47 l 1,31,-1
 383 47 l 2,0,1
EndSplineSet
Validated: 1
EndChar

StartChar: two
Encoding: 50 50 7
Width: 460
VWidth: 1284
GlyphClass: 1
Flags: W
LayerCount: 2
Fore
SplineSet
380 209 m 2,0,1
 386 223 386 223 398 223 c 0,2,3
 416 223 416 223 416 204 c 0,4,5
 416 184 416 184 402 137.5 c 128,-1,6
 388 91 388 91 374 61 c 0,7,8
 361 34 361 34 333 17 c 128,-1,9
 305 0 305 0 279 0 c 0,10,11
 228 0 228 0 199 43 c 0,12,13
 196 48 196 48 187 63 c 128,-1,14
 178 78 178 78 173 84.5 c 128,-1,15
 168 91 168 91 159 97.5 c 128,-1,16
 150 104 150 104 139 104 c 0,17,18
 108 104 108 104 105 88 c 0,19,20
 104 85 104 85 104 79 c 0,21,22
 104 66 104 66 113 45 c 0,23,24
 116 38 116 38 116 32 c 0,25,26
 116 19 116 19 105.5 9.5 c 128,-1,27
 95 0 95 0 82 0 c 0,28,29
 45 0 45 0 45 51 c 0,30,31
 45 72 45 72 52.5 95 c 128,-1,32
 60 118 60 118 68 130 c 2,33,-1
 76 142 l 2,34,35
 95 170 95 170 132 199 c 128,-1,36
 169 228 169 228 199.5 248 c 128,-1,37
 230 268 230 268 254 302 c 128,-1,38
 278 336 278 336 278 377 c 0,39,40
 278 437 278 437 251 454 c 0,41,42
 234 465 234 465 208 465 c 0,43,44
 186 465 186 465 173 460 c 0,45,46
 150 454 150 454 150 441 c 0,47,48
 150 432 150 432 157 430 c 0,49,50
 177 423 177 423 190.5 402 c 128,-1,51
 204 381 204 381 204 359 c 0,52,53
 204 328 204 328 182 306 c 128,-1,54
 160 284 160 284 128 284 c 128,-1,55
 96 284 96 284 73.5 306 c 128,-1,56
 51 328 51 328 51 359 c 0,57,58
 51 380 51 380 58.5 401.5 c 128,-1,59
 66 423 66 423 84 446.5 c 128,-1,60
 102 470 102 470 140.5 485 c 128,-1,61
 179 500 179 500 234 500 c 128,-1,62
 289 500 289 500 326.5 486.5 c 128,-1,63
 364 473 364 473 380.5 451.5 c 128,-1,64
 397 430 397 430 403 411 c 128,-1,65
 409 392 409 392 409 372 c 0,66,67
 409 321 409 321 378.5 284 c 128,-1,68
 348 247 348 247 272 223 c 0,69,70
 168 190 168 190 138 151 c 1,71,72
 153 154 153 154 165 154 c 0,73,74
 191 154 191 154 228.5 133.5 c 128,-1,75
 266 113 266 113 301 113 c 0,76,77
 308 113 308 113 315 115 c 128,-1,78
 322 117 322 117 327.5 120.5 c 128,-1,79
 333 124 333 124 338.5 129.5 c 128,-1,80
 344 135 344 135 348 140 c 128,-1,81
 352 145 352 145 356.5 153 c 128,-1,82
 361 161 361 161 363 165.5 c 128,-1,83
 365 170 365 170 368.5 178.5 c 128,-1,84
 372 187 372 187 373.5 190 c 128,-1,85
 375 193 375 193 378 201 c 2,86,-1
 380 209 l 2,0,1
EndSplineSet
Validated: 1
EndChar

StartChar: three
Encoding: 51 51 8
Width: 460
VWidth: 1272
GlyphClass: 1
Flags: W
LayerCount: 2
Fore
SplineSet
313 266 m 1,0,1
 409 236 409 236 409 145 c 0,2,3
 409 92 409 92 377 58 c 128,-1,4
 345 24 345 24 301.5 12 c 128,-1,5
 258 0 258 0 204 0 c 0,6,7
 133 0 133 0 92 38 c 0,8,9
 72 57 72 57 62 79 c 128,-1,10
 52 101 52 101 52 114 c 2,11,-1
 52 126 l 2,12,13
 52 154 52 154 71 173.5 c 128,-1,14
 90 193 90 193 118 193 c 128,-1,15
 146 193 146 193 165 173.5 c 128,-1,16
 184 154 184 154 184 126 c 0,17,18
 184 100 184 100 165.5 80.5 c 128,-1,19
 147 61 147 61 122 60 c 1,20,21
 144 44 144 44 189 44 c 0,22,23
 278 44 278 44 278 131 c 0,24,25
 278 231 278 231 209 240 c 0,26,27
 191 243 191 243 136 246 c 0,28,29
 131 246 131 246 127.5 249 c 128,-1,30
 124 252 124 252 123 255 c 2,31,-1
 122 258 l 1,32,-1
 122 279 l 2,33,34
 124 293 124 293 136 293 c 0,35,36
 182 293 182 293 218 299 c 0,37,38
 278 309 278 309 278 375 c 0,39,40
 278 414 278 414 251.5 435 c 128,-1,41
 225 456 225 456 189 456 c 0,42,43
 158 456 158 456 136 440 c 1,44,-1
 133 437 l 1,45,46
 155 433 155 433 169.5 414.5 c 128,-1,47
 184 396 184 396 184 373 c 0,48,49
 184 345 184 345 165 326 c 128,-1,50
 146 307 146 307 118 307 c 128,-1,51
 90 307 90 307 71 326 c 128,-1,52
 52 345 52 345 52 373 c 1,53,-1
 53 375 l 1,54,-1
 52 375 l 1,55,56
 52 380 52 380 52.5 388.5 c 128,-1,57
 53 397 53 397 62 418.5 c 128,-1,58
 71 440 71 440 86.5 456.5 c 128,-1,59
 102 473 102 473 138 486.5 c 128,-1,60
 174 500 174 500 223 500 c 128,-1,61
 272 500 272 500 308.5 487.5 c 128,-1,62
 345 475 345 475 362 459 c 128,-1,63
 379 443 379 443 389 422.5 c 128,-1,64
 399 402 399 402 400.5 392 c 128,-1,65
 402 382 402 382 402 375 c 2,66,-1
 402 370 l 2,67,68
 402 300 402 300 315 266 c 1,69,-1
 313 266 l 1,0,1
EndSplineSet
Validated: 1
EndChar

StartChar: four
Encoding: 52 52 9
Width: 460
VWidth: 1272
GlyphClass: 1
Flags: W
LayerCount: 2
Fore
SplineSet
34 124 m 2,0,1
 30 124 30 124 27 125.5 c 128,-1,2
 24 127 24 127 23 128 c 2,3,-1
 22 130 l 2,4,5
 16 141 16 141 12 149 c 0,6,7
 10 153 10 153 10.5 157 c 128,-1,8
 11 161 11 161 12 164 c 2,9,-1
 14 166 l 1,10,11
 65 235 65 235 98 338 c 0,12,13
 125 421 125 421 130 496 c 0,14,15
 132 509 132 509 144 509 c 2,16,-1
 296 509 l 2,17,18
 303 509 303 509 307 505 c 2,19,-1
 329 482 l 2,20,21
 338 473 338 473 327 458 c 0,22,23
 206 297 206 297 92 173 c 1,24,-1
 210 173 l 1,25,-1
 210 257 l 2,26,27
 210 264 210 264 214 268 c 2,28,-1
 307 353 l 2,29,30
 314 360 314 360 323 355 c 2,31,-1
 336 349 l 2,32,33
 344 346 344 346 344 336 c 2,34,-1
 344 173 l 1,35,-1
 435 173 l 2,36,37
 441 173 441 173 445.5 168.5 c 128,-1,38
 450 164 450 164 450 158 c 2,39,-1
 450 139 l 2,40,41
 450 133 450 133 445.5 128.5 c 128,-1,42
 441 124 441 124 435 124 c 2,43,-1
 344 124 l 1,44,-1
 344 48 l 1,45,-1
 435 48 l 2,46,47
 450 48 450 48 450 34 c 2,48,-1
 450 14 l 2,49,50
 450 0 450 0 435 0 c 2,51,-1
 125 0 l 2,52,53
 111 0 111 0 111 14 c 2,54,-1
 111 34 l 2,55,56
 111 48 111 48 125 48 c 2,57,-1
 210 48 l 1,58,-1
 210 124 l 1,59,-1
 34 124 l 2,0,1
EndSplineSet
Validated: 1
EndChar

StartChar: five
Encoding: 53 53 10
Width: 460
VWidth: 1272
GlyphClass: 1
Flags: W
LayerCount: 2
Fore
SplineSet
65 473 m 2,0,1
 64 485 64 485 71 490 c 128,-1,2
 78 495 78 495 88 495 c 2,3,-1
 100 494 l 1,4,5
 181 483 181 483 217 483 c 0,6,7
 273 483 273 483 344 500 c 0,8,9
 356 502 356 502 358 502 c 0,10,11
 376 502 376 502 376 487 c 0,12,13
 376 483 376 483 374 477 c 0,14,15
 353 418 353 418 302 398 c 0,16,17
 271 386 271 386 217 386 c 0,18,19
 207 386 207 386 132 391 c 1,20,-1
 131 391 l 2,21,22
 119 391 119 391 119 380 c 2,23,-1
 119 315 l 2,24,25
 119 308 119 308 126 308 c 0,26,27
 130 308 130 308 131 309 c 0,28,29
 174 338 174 338 230 338 c 0,30,31
 297 338 297 338 346 306 c 0,32,33
 374 287 374 287 391 250 c 128,-1,34
 408 213 408 213 408 172 c 0,35,36
 408 101 408 101 362 54 c 0,37,38
 309 0 309 0 217 0 c 0,39,40
 161 0 161 0 116 24 c 0,41,42
 53 61 53 61 53 128 c 0,43,44
 53 156 53 156 72 178 c 128,-1,45
 91 200 91 200 120 200 c 0,46,47
 153 200 153 200 174 182.5 c 128,-1,48
 195 165 195 165 195 130 c 0,49,50
 195 118 195 118 192.5 108 c 128,-1,51
 190 98 190 98 186.5 91.5 c 128,-1,52
 183 85 183 85 177.5 79.5 c 128,-1,53
 172 74 172 74 169 71.5 c 128,-1,54
 166 69 166 69 160 66 c 2,55,-1
 154 62 l 2,56,57
 150 59 150 59 150 55 c 128,-1,58
 150 51 150 51 155 49 c 0,59,60
 166 42 166 42 198 42 c 2,61,-1
 206 42 l 2,62,63
 238 43 238 43 258 65.5 c 128,-1,64
 278 88 278 88 284 114 c 128,-1,65
 290 140 290 140 290 170 c 0,66,67
 290 282 290 282 204 282 c 0,68,69
 191 282 191 282 179.5 279 c 128,-1,70
 168 276 168 276 160 270.5 c 128,-1,71
 152 265 152 265 146.5 260 c 128,-1,72
 141 255 141 255 136.5 246.5 c 128,-1,73
 132 238 132 238 130 234 c 128,-1,74
 128 230 128 230 126 222 c 2,75,-1
 123 215 l 2,76,77
 120 206 120 206 108 208 c 0,78,79
 106 208 106 208 99 209.5 c 128,-1,80
 92 211 92 211 83.5 213 c 128,-1,81
 75 215 75 215 72 216 c 0,82,83
 63 218 63 218 65 232 c 0,84,85
 69 300 69 300 70 357 c 2,86,-1
 70 371 l 1,87,-1
 65 473 l 2,0,1
EndSplineSet
Validated: 1
EndChar

StartChar: six
Encoding: 54 54 11
Width: 460
VWidth: 1272
GlyphClass: 1
Flags: W
LayerCount: 2
Fore
SplineSet
278 299 m 0,0,1
 334 299 334 299 377.5 264.5 c 128,-1,2
 421 230 421 230 421 161 c 0,3,4
 421 120 421 120 400 86.5 c 128,-1,5
 379 53 379 53 349 35.5 c 128,-1,6
 319 18 319 18 293 9 c 128,-1,7
 267 0 267 0 251 0 c 0,8,9
 228 0 228 0 212.5 2 c 128,-1,10
 197 4 197 4 171.5 15 c 128,-1,11
 146 26 146 26 118 47 c 0,12,13
 40 116 40 116 40 233 c 0,14,15
 40 301 40 301 66 366 c 0,16,17
 86 412 86 412 135 456.5 c 128,-1,18
 184 501 184 501 245 501 c 0,19,20
 314 501 314 501 352.5 473 c 128,-1,21
 391 445 391 445 403 410 c 0,22,23
 410 396 410 396 410 377 c 2,24,-1
 410 376 l 1,25,-1
 410 374 l 2,26,27
 410 346 410 346 390.5 327 c 128,-1,28
 371 308 371 308 343 308 c 128,-1,29
 315 308 315 308 296.5 327 c 128,-1,30
 278 346 278 346 278 374 c 0,31,32
 278 392 278 392 289 409.5 c 128,-1,33
 300 427 300 427 316 434 c 1,34,35
 298 454 298 454 265 454 c 0,36,37
 227 454 227 454 205 428.5 c 128,-1,38
 183 403 183 403 178 369 c 0,39,40
 173 339 173 339 173 319 c 0,41,42
 173 302 173 302 178 265 c 1,43,44
 210 299 210 299 278 299 c 0,0,1
240 43 m 128,-1,46
 266 43 266 43 284 73 c 128,-1,47
 302 103 302 103 302 146 c 128,-1,48
 302 189 302 189 283.5 220 c 128,-1,49
 265 251 265 251 240 251 c 128,-1,50
 215 251 215 251 196.5 220 c 128,-1,51
 178 189 178 189 178 146 c 128,-1,52
 178 103 178 103 196 73 c 128,-1,45
 214 43 214 43 240 43 c 128,-1,46
EndSplineSet
Validated: 1
EndChar

StartChar: seven
Encoding: 55 55 12
Width: 460
VWidth: 1272
GlyphClass: 1
Flags: W
LayerCount: 2
Fore
SplineSet
409 492 m 0,0,1
 415 418 415 418 393 356 c 0,2,3
 333 186 333 186 325 157 c 0,4,5
 317 129 317 129 317 94 c 128,-1,6
 317 59 317 59 319.5 40.5 c 128,-1,7
 322 22 322 22 324 17 c 0,8,9
 326 11 326 11 318 3 c 0,10,11
 317 2 317 2 315.5 1 c 128,-1,12
 314 0 314 0 313 -1 c 0,13,14
 304 -7 304 -7 298 -7 c 0,15,16
 296 -7 296 -7 283.5 -5 c 128,-1,17
 271 -3 271 -3 254.5 -1.5 c 128,-1,18
 238 0 238 0 223 -1 c 0,19,20
 206 -2 206 -2 189 -4.5 c 128,-1,21
 172 -7 172 -7 164 -7 c 0,22,23
 145 -7 145 -7 149 12 c 0,24,25
 151 50 151 50 202 123 c 0,26,27
 218 146 218 146 252 203 c 128,-1,28
 286 260 286 260 312 305 c 2,29,-1
 338 350 l 1,30,31
 333 345 333 345 315.5 341.5 c 128,-1,32
 298 338 298 338 284 337 c 2,33,-1
 269 336 l 2,34,35
 224 336 224 336 193 356 c 128,-1,36
 162 376 162 376 149 376 c 0,37,38
 124 376 124 376 110.5 359 c 128,-1,39
 97 342 97 342 97 321 c 2,40,-1
 97 288 l 2,41,42
 97 276 97 276 86 276 c 2,43,-1
 62 276 l 2,44,45
 51 276 51 276 51 288 c 2,46,-1
 51 477 l 2,47,48
 51 489 51 489 62 489 c 2,49,-1
 86 489 l 2,50,51
 97 489 97 489 97 477 c 2,52,-1
 97 428 l 1,53,54
 101 437 101 437 111 450 c 128,-1,55
 121 463 121 463 147 481 c 128,-1,56
 173 499 173 499 202 499 c 0,57,58
 225 499 225 499 243.5 485.5 c 128,-1,59
 262 472 262 472 272.5 455 c 128,-1,60
 283 438 283 438 297 424.5 c 128,-1,61
 311 411 311 411 325 411 c 0,62,63
 344 411 344 411 354.5 431.5 c 128,-1,64
 365 452 365 452 366 472 c 2,65,-1
 367 492 l 2,66,67
 368 506 368 506 379 506 c 2,68,-1
 400 506 l 2,69,70
 409 504 409 504 409 492 c 0,0,1
EndSplineSet
Validated: 33
EndChar

StartChar: eight
Encoding: 56 56 13
Width: 460
VWidth: 1272
GlyphClass: 1
Flags: W
LayerCount: 2
Fore
SplineSet
353 272 m 1,0,1
 424 236 424 236 424 150 c 0,2,3
 424 88 424 88 367 44 c 128,-1,4
 310 0 310 0 230 0 c 128,-1,5
 150 0 150 0 93.5 44 c 128,-1,6
 37 88 37 88 37 150 c 0,7,8
 37 222 37 222 109 263 c 1,9,10
 50 300 50 300 50 372 c 0,11,12
 50 428 50 428 102.5 467 c 128,-1,13
 155 506 155 506 230 506 c 128,-1,14
 305 506 305 506 358 467 c 128,-1,15
 411 428 411 428 411 372 c 128,-1,16
 411 316 411 316 353 272 c 1,0,1
230 58 m 0,17,18
 276 58 276 58 303.5 78 c 128,-1,19
 331 98 331 98 331 121 c 0,20,21
 331 141 331 141 315.5 158.5 c 128,-1,22
 300 176 300 176 270.5 191 c 128,-1,23
 241 206 241 206 218 215 c 128,-1,24
 195 224 195 224 161 235 c 0,25,26
 155 233 155 233 146.5 228.5 c 128,-1,27
 138 224 138 224 123.5 202.5 c 128,-1,28
 109 181 109 181 109 150 c 0,29,30
 109 109 109 109 144 83.5 c 128,-1,31
 179 58 179 58 230 58 c 0,17,18
296 300 m 1,32,33
 337 320 337 320 337 382 c 0,34,35
 337 417 337 417 307.5 438 c 128,-1,36
 278 459 278 459 230 459 c 0,37,38
 195 459 195 459 172 444.5 c 128,-1,39
 149 430 149 430 149 402 c 0,40,41
 149 346 149 346 296 300 c 1,32,33
EndSplineSet
Validated: 1
EndChar

StartChar: nine
Encoding: 57 57 14
Width: 460
VWidth: 1272
GlyphClass: 1
Flags: W
LayerCount: 2
Fore
SplineSet
183 202 m 0,0,1
 127 202 127 202 83.5 236.5 c 128,-1,2
 40 271 40 271 40 340 c 0,3,4
 40 381 40 381 61 414.5 c 128,-1,5
 82 448 82 448 112 465.5 c 128,-1,6
 142 483 142 483 168 492 c 128,-1,7
 194 501 194 501 210 501 c 0,8,9
 233 501 233 501 248.5 499 c 128,-1,10
 264 497 264 497 289.5 486 c 128,-1,11
 315 475 315 475 343 454 c 0,12,13
 421 385 421 385 421 267 c 0,14,15
 421 200 421 200 395 135 c 0,16,17
 375 89 375 89 326 44.5 c 128,-1,18
 277 0 277 0 216 0 c 0,19,20
 147 0 147 0 108 28 c 128,-1,21
 69 56 69 56 57 91 c 0,22,23
 51 103 51 103 51 124 c 2,24,-1
 51 125 l 1,25,-1
 51 127 l 2,26,27
 51 155 51 155 70.5 174 c 128,-1,28
 90 193 90 193 118 193 c 128,-1,29
 146 193 146 193 164.5 174 c 128,-1,30
 183 155 183 155 183 127 c 0,31,32
 183 109 183 109 171.5 91.5 c 128,-1,33
 160 74 160 74 144 67 c 1,34,35
 162 47 162 47 196 47 c 0,36,37
 234 47 234 47 256 72.5 c 128,-1,38
 278 98 278 98 283 132 c 0,39,40
 288 162 288 162 288 181 c 0,41,42
 288 199 288 199 283 236 c 1,43,44
 251 202 251 202 183 202 c 0,0,1
221 459 m 128,-1,46
 196 459 196 459 177.5 428 c 128,-1,47
 159 397 159 397 159 354 c 128,-1,48
 159 311 159 311 177 281 c 128,-1,49
 195 251 195 251 221 251 c 128,-1,50
 247 251 247 251 265 281 c 128,-1,51
 283 311 283 311 283 354 c 128,-1,52
 283 397 283 397 264.5 428 c 128,-1,45
 246 459 246 459 221 459 c 128,-1,46
EndSplineSet
Validated: 1
EndChar

StartChar: b
Encoding: 98 98 15
Width: 208
Flags: W
LayerCount: 2
Fore
SplineSet
206 261 m 0,0,1
 208 245 208 245 208 236 c 0,2,3
 208 160 208 160 154 99 c 128,-1,4
 100 38 100 38 28 2 c 0,5,6
 24 0 24 0 19 0 c 0,7,8
 5 0 5 0 5 14 c 2,9,-1
 0 630 l 2,10,11
 0 644 0 644 14 644 c 2,12,-1
 27 644 l 2,13,14
 41 644 41 644 41 630 c 2,15,-1
 37 301 l 1,16,17
 69 339 69 339 123 339 c 0,18,19
 159 339 159 339 180 316.5 c 128,-1,20
 201 294 201 294 206 261 c 0,0,1
135 221 m 2,21,-1
 135 232 l 2,22,23
 135 289 135 289 95 289 c 0,24,25
 68 289 68 289 54 275.5 c 128,-1,26
 40 262 40 262 37 250 c 2,27,-1
 34 50 l 1,28,29
 88 92 88 92 105 120 c 0,30,31
 135 165 135 165 135 221 c 2,21,-1
EndSplineSet
Validated: 1
EndChar

StartChar: period
Encoding: 46 46 16
Width: 224
Flags: W
LayerCount: 2
Fore
SplineSet
32 61 m 128,-1,1
 32 91 32 91 53 112 c 128,-1,2
 74 133 74 133 104 133 c 128,-1,3
 134 133 134 133 155 112 c 128,-1,4
 176 91 176 91 176 61 c 128,-1,5
 176 31 176 31 155 10 c 128,-1,6
 134 -11 134 -11 104 -11 c 128,-1,7
 74 -11 74 -11 53 10 c 128,-1,0
 32 31 32 31 32 61 c 128,-1,1
EndSplineSet
Validated: 1
EndChar

StartChar: numbersign
Encoding: 35 35 17
Width: 249
Flags: W
LayerCount: 2
Fore
SplineSet
239 416 m 2,0,-1
 200 409 l 1,1,-1
 200 240 l 1,2,-1
 233 247 l 1,3,-1
 236 247 l 2,4,5
 250 247 250 247 250 232 c 2,6,-1
 250 172 l 2,7,8
 250 160 250 160 239 158 c 2,9,-1
 200 151 l 1,10,-1
 200 0 l 1,11,-1
 171 0 l 1,12,-1
 171 144 l 1,13,-1
 80 126 l 1,14,-1
 80 -33 l 1,15,-1
 51 -33 l 1,16,-1
 51 120 l 1,17,-1
 17 113 l 1,18,-1
 14 113 l 2,19,20
 0 113 0 113 0 127 c 2,21,-1
 0 186 l 2,22,23
 0 199 0 199 11 201 c 2,24,-1
 51 209 l 1,25,-1
 51 378 l 1,26,-1
 17 371 l 1,27,-1
 14 371 l 2,28,29
 0 371 0 371 0 385 c 1,30,-1
 0 383 l 1,31,-1
 0 442 l 1,32,-1
 0 444 l 2,33,34
 0 457 0 457 11 459 c 2,35,-1
 51 467 l 1,36,-1
 51 617 l 1,37,-1
 80 617 l 1,38,-1
 80 473 l 1,39,-1
 171 492 l 1,40,-1
 171 650 l 1,41,-1
 200 650 l 1,42,-1
 200 498 l 1,43,-1
 233 505 l 1,44,-1
 236 505 l 2,45,46
 250 505 250 505 250 490 c 2,47,-1
 250 430 l 2,48,49
 250 418 250 418 239 416 c 2,0,-1
80 214 m 1,50,-1
 171 233 l 1,51,-1
 171 402 l 1,52,-1
 80 384 l 1,53,-1
 80 214 l 1,50,-1
EndSplineSet
Validated: 5
EndChar

StartChar: h
Encoding: 104 104 18
Width: 175
Flags: W
LayerCount: 2
Fore
SplineSet
170 486 m 0,0,1
 175 483 175 483 175 475 c 2,2,-1
 175 -32 l 1,3,-1
 147 -32 l 1,4,-1
 147 147 l 1,5,-1
 18 112 l 1,6,-1
 14 112 l 2,7,8
 0 112 0 112 0 125 c 2,9,-1
 0 632 l 1,10,-1
 29 632 l 1,11,-1
 29 453 l 1,12,-1
 158 488 l 1,13,14
 158 488 158 488 160 488 c 2,15,-1
 162 489 l 2,16,17
 167 489 167 489 170 486 c 0,0,1
147 232 m 1,18,-1
 147 401 l 1,19,-1
 29 368 l 1,20,-1
 29 200 l 1,21,-1
 147 232 l 1,18,-1
EndSplineSet
EndChar

StartChar: x
Encoding: 120 120 19
Width: 275
VWidth: 1000
Flags: W
HStem: -137 86<10 67 14 67 14 73 208 261> 1 20<136 158> 51 87<10 73 14 67 208 208 208 261>
VStem: 0 86<-123 -70 -127 -64 -127 -60 71 124> 188 87<-123 -70 -70 -70 71 124>
LayerCount: 2
Fore
SplineSet
86 -70 m 1,0,-1
 86 -123 l 2,1,2
 86 -137 86 -137 73 -137 c 2,3,-1
 14 -137 l 2,4,5
 0 -137 0 -137 0 -123 c 2,6,-1
 0 -64 l 2,7,8
 0 -51 0 -51 14 -51 c 2,9,-1
 67 -51 l 1,10,-1
 116 -1 l 1,11,-1
 116 2 l 1,12,-1
 67 51 l 1,13,-1
 14 51 l 2,14,15
 0 51 0 51 0 65 c 2,16,-1
 0 124 l 2,17,18
 0 138 0 138 14 138 c 2,19,-1
 73 138 l 2,20,21
 86 138 86 138 86 124 c 2,22,-1
 86 71 l 1,23,-1
 136 21 l 1,24,-1
 139 21 l 1,25,-1
 188 71 l 1,26,-1
 188 124 l 2,27,28
 188 138 188 138 202 138 c 2,29,-1
 261 138 l 2,30,31
 275 138 275 138 275 124 c 2,32,-1
 275 65 l 2,33,34
 275 51 275 51 261 51 c 2,35,-1
 208 51 l 1,36,-1
 158 1 l 1,37,-1
 158 -1 l 1,38,-1
 208 -51 l 1,39,-1
 261 -51 l 2,40,41
 275 -51 275 -51 275 -64 c 2,42,-1
 275 -123 l 2,43,44
 275 -137 275 -137 261 -137 c 2,45,-1
 202 -137 l 2,46,47
 188 -137 188 -137 188 -123 c 2,48,-1
 188 -70 l 1,49,-1
 139 -22 l 1,50,-1
 136 -22 l 1,51,-1
 86 -70 l 1,0,-1
EndSplineSet
Validated: 1
EndChar

StartChar: o
Encoding: 111 111 20
Width: 300
Flags: W
LayerCount: 2
Fore
SplineSet
150 245 m 128,-1,1
 207 245 207 245 235 220.5 c 128,-1,2
 263 196 263 196 263 163 c 128,-1,3
 263 130 263 130 235.5 106 c 128,-1,4
 208 82 208 82 150 82 c 128,-1,5
 92 82 92 82 64.5 106 c 128,-1,6
 37 130 37 130 37 163 c 128,-1,7
 37 196 37 196 65 220.5 c 128,-1,0
 93 245 93 245 150 245 c 128,-1,1
100 190 m 1,8,9
 105 161 105 161 114 134 c 0,10,11
 124 101 124 101 154 101 c 0,12,13
 155 101 155 101 157.5 101.5 c 128,-1,14
 160 102 160 102 162 102 c 0,15,16
 171 103 171 103 176 104 c 0,17,18
 190 107 190 107 196 117 c 0,19,20
 200 127 200 127 200 136 c 0,21,22
 200 153 200 153 193 175 c 2,23,-1
 191 181 l 2,24,25
 187 195 187 195 183 203.5 c 128,-1,26
 179 212 179 212 171 219 c 128,-1,27
 163 226 163 226 152 226 c 0,28,29
 136 226 136 226 124 223 c 0,30,31
 109 220 109 220 103 211 c 0,32,33
 100 205 100 205 100 197 c 2,34,-1
 100 190 l 1,8,9
EndSplineSet
Validated: 1
EndChar

StartChar: uniE000
Encoding: 57344 57344 21
Width: 681
Flags: W
LayerCount: 2
Fore
SplineSet
200 77 m 1,0,-1
 0 77 l 1,1,-1
 0 87 l 1,2,-1
 200 87 l 1,3,-1
 317 87 l 1,4,-1
 732 87 l 1,5,-1
 732 77 l 1,6,-1
 317 77 l 1,7,-1
 200 77 l 1,0,-1
200 241 m 1,8,-1
 0 241 l 1,9,-1
 0 251 l 1,10,-1
 200 251 l 1,11,-1
 317 251 l 1,12,-1
 732 251 l 1,13,-1
 732 241 l 1,14,-1
 317 241 l 1,15,-1
 200 241 l 1,8,-1
200 404 m 1,16,-1
 0 404 l 1,17,-1
 0 415 l 1,18,-1
 200 415 l 1,19,-1
 317 415 l 1,20,-1
 732 415 l 1,21,-1
 732 404 l 1,22,-1
 317 404 l 1,23,-1
 200 404 l 1,16,-1
200 568 m 1,24,-1
 0 568 l 1,25,-1
 0 579 l 1,26,-1
 200 579 l 1,27,-1
 317 579 l 1,28,-1
 732 579 l 1,29,-1
 732 568 l 1,30,-1
 317 568 l 1,31,-1
 200 568 l 1,24,-1
200 732 m 1,32,-1
 0 732 l 1,33,-1
 0 742 l 1,34,-1
 200 742 l 1,35,-1
 317 742 l 1,36,-1
 732 742 l 1,37,-1
 732 732 l 1,38,-1
 317 732 l 1,39,-1
 200 732 l 1,32,-1
EndSplineSet
Validated: 1
EndChar

StartChar: uniE001
Encoding: 57345 57345 22
Width: 681
Flags: W
LayerCount: 2
Fore
SplineSet
415 -165 m 4,0,1
 472 -165 472 -165 499.5 -189 c 4,2,3
 524.894688131 -211.162636914 524.894688131 -211.162636914 526.83882407 -241 c 5,4,-1
 558 -241 l 5,5,-1
 558 -251 l 5,6,-1
 526.848014147 -251 l 5,7,8
 524.955590316 -281.784212088 524.955590316 -281.784212088 499.5 -304 c 4,9,10
 472 -328 472 -328 415 -328 c 132,-1,11
 358 -328 358 -328 330 -303.5 c 4,12,13
 304.142322035 -280.874531781 304.142322035 -280.874531781 302.163912275 -251 c 5,14,-1
 272 -251 l 5,15,-1
 272 -241 l 5,16,-1
 302.16117593 -241 l 5,17,18
 304.105311869 -211.162636914 304.105311869 -211.162636914 329.5 -189 c 4,19,20
 357 -165 357 -165 415 -165 c 4,0,1
272 -77 m 5,21,-1
 558 -77 l 5,22,-1
 558 -87 l 5,23,-1
 272 -87 l 5,24,-1
 272 -77 l 5,21,-1
372.100981545 -251 m 5,25,26
 375.192547743 -262.731542728 375.192547743 -262.731542728 379 -275 c 4,27,28
 389 -308 389 -308 419 -308 c 6,29,-1
 427 -308 l 6,30,31
 436 -307 436 -307 441 -306 c 4,32,33
 455 -303 455 -303 461 -293 c 4,34,35
 465 -283 465 -283 465 -274 c 4,36,37
 465 -265.366692347 465 -265.366692347 461.471763265 -251 c 5,38,-1
 372.100981545 -251 l 5,25,26
369.572145557 -241 m 5,39,-1
 458.789585872 -241 l 5,40,41
 457.95136091 -238.091922957 457.95136091 -238.091922957 457 -235 c 6,42,-1
 456 -229 l 6,43,44
 452 -214 452 -214 448 -206 c 132,-1,45
 444 -198 444 -198 436 -190.5 c 132,-1,46
 428 -183 428 -183 417 -183 c 6,47,-1
 416 -183 l 6,48,49
 400 -183 400 -183 388 -186 c 4,50,51
 374 -189 374 -189 368 -198 c 4,52,53
 364 -206 364 -206 364 -212 c 132,-1,54
 364 -218 364 -218 365 -220 c 4,55,56
 366.974257397 -230.266138464 366.974257397 -230.266138464 369.572145557 -241 c 5,39,-1
200 77 m 5,57,-1
 0 77 l 5,58,-1
 0 87 l 5,59,-1
 200 87 l 5,60,-1
 317 87 l 5,61,-1
 732 87 l 5,62,-1
 732 77 l 5,63,-1
 317 77 l 5,64,-1
 200 77 l 5,57,-1
200 241 m 5,65,-1
 0 241 l 5,66,-1
 0 251 l 5,67,-1
 200 251 l 5,68,-1
 317 251 l 5,69,-1
 732 251 l 5,70,-1
 732 241 l 5,71,-1
 317 241 l 5,72,-1
 200 241 l 5,65,-1
200 404 m 5,73,-1
 0 404 l 5,74,-1
 0 415 l 5,75,-1
 200 415 l 5,76,-1
 317 415 l 5,77,-1
 732 415 l 5,78,-1
 732 404 l 5,79,-1
 317 404 l 5,80,-1
 200 404 l 5,73,-1
200 568 m 5,81,-1
 0 568 l 5,82,-1
 0 579 l 5,83,-1
 200 579 l 5,84,-1
 317 579 l 5,85,-1
 732 579 l 5,86,-1
 732 568 l 5,87,-1
 317 568 l 5,88,-1
 200 568 l 5,81,-1
200 732 m 5,89,-1
 0 732 l 5,90,-1
 0 742 l 5,91,-1
 200 742 l 5,92,-1
 317 742 l 5,93,-1
 732 742 l 5,94,-1
 732 732 l 5,95,-1
 317 732 l 5,96,-1
 200 732 l 5,89,-1
EndSplineSet
Validated: 524289
EndChar

StartChar: uniE002
Encoding: 57346 57346 23
Width: 681
Flags: W
LayerCount: 2
Fore
SplineSet
365 -138 m 0,0,1
 370 -164 370 -164 379 -193 c 0,2,3
 389 -226 389 -226 419 -226 c 2,4,-1
 427 -226 l 2,5,6
 436 -225 436 -225 441 -224 c 0,7,8
 455 -221 455 -221 461 -211 c 0,9,10
 465 -201 465 -201 465 -192 c 0,11,12
 465 -179 465 -179 457 -153 c 2,13,-1
 456 -147 l 2,14,15
 452 -132 452 -132 448 -124 c 128,-1,16
 444 -116 444 -116 436 -108.5 c 128,-1,17
 428 -101 428 -101 417 -101 c 2,18,-1
 416 -101 l 2,19,20
 400 -101 400 -101 388 -104 c 0,21,22
 374 -107 374 -107 368 -116 c 0,23,24
 364 -124 364 -124 364 -130 c 128,-1,25
 364 -136 364 -136 365 -138 c 0,0,1
272 -77 m 1,26,-1
 558 -77 l 1,27,-1
 558 -87 l 1,28,-1
 456.623638446 -87 l 1,29,30
 483.226827988 -92.7979589711 483.226827988 -92.7979589711 499.5 -107 c 0,31,32
 527 -131 527 -131 527 -164 c 0,33,34
 527 -198 527 -198 499.5 -222 c 128,-1,35
 472 -246 472 -246 415 -246 c 128,-1,36
 358 -246 358 -246 330 -221.5 c 128,-1,37
 302 -197 302 -197 302 -164 c 128,-1,38
 302 -131 302 -131 329.5 -107 c 0,39,40
 345.773172012 -92.7979589711 345.773172012 -92.7979589711 372.72653164 -87 c 1,41,-1
 272 -87 l 1,42,-1
 272 -77 l 1,26,-1
200 77 m 1,43,-1
 0 77 l 1,44,-1
 0 87 l 1,45,-1
 200 87 l 1,46,-1
 317 87 l 1,47,-1
 732 87 l 1,48,-1
 732 77 l 1,49,-1
 317 77 l 1,50,-1
 200 77 l 1,43,-1
200 241 m 1,51,-1
 0 241 l 1,52,-1
 0 251 l 1,53,-1
 200 251 l 1,54,-1
 317 251 l 1,55,-1
 732 251 l 1,56,-1
 732 241 l 1,57,-1
 317 241 l 1,58,-1
 200 241 l 1,51,-1
200 404 m 1,59,-1
 0 404 l 1,60,-1
 0 415 l 1,61,-1
 200 415 l 1,62,-1
 317 415 l 1,63,-1
 732 415 l 1,64,-1
 732 404 l 1,65,-1
 317 404 l 1,66,-1
 200 404 l 1,59,-1
200 568 m 1,67,-1
 0 568 l 1,68,-1
 0 579 l 1,69,-1
 200 579 l 1,70,-1
 317 579 l 1,71,-1
 732 579 l 1,72,-1
 732 568 l 1,73,-1
 317 568 l 1,74,-1
 200 568 l 1,67,-1
200 732 m 1,75,-1
 0 732 l 1,76,-1
 0 742 l 1,77,-1
 200 742 l 1,78,-1
 317 742 l 1,79,-1
 732 742 l 1,80,-1
 732 732 l 1,81,-1
 317 732 l 1,82,-1
 200 732 l 1,75,-1
EndSplineSet
Validated: 524289
EndChar

StartChar: uniE003
Encoding: 57347 57347 24
Width: 681
Flags: W
LayerCount: 2
Fore
SplineSet
415 -1 m 0,0,1
 472 -1 472 -1 499.5 -25 c 0,2,3
 524.894688131 -47.1626369142 524.894688131 -47.1626369142 526.83882407 -77 c 1,4,-1
 558 -77 l 1,5,-1
 558 -87 l 1,6,-1
 526.848014147 -87 l 1,7,8
 524.955590316 -117.784212088 524.955590316 -117.784212088 499.5 -140 c 0,9,10
 472 -164 472 -164 415 -164 c 128,-1,11
 358 -164 358 -164 330 -139.5 c 0,12,13
 304.142322035 -116.874531781 304.142322035 -116.874531781 302.163912275 -87 c 1,14,-1
 272 -87 l 1,15,-1
 272 -77 l 1,16,-1
 302.16117593 -77 l 1,17,18
 304.105311869 -47.1626369142 304.105311869 -47.1626369142 329.5 -25 c 0,19,20
 357 -1 357 -1 415 -1 c 0,0,1
372.100981545 -87 m 1,21,22
 375.192547743 -98.731542728 375.192547743 -98.731542728 379 -111 c 0,23,24
 389 -145 389 -145 419 -145 c 0,25,26
 420 -145 420 -145 422.5 -144.5 c 128,-1,27
 425 -144 425 -144 427 -144 c 0,28,29
 436 -143 436 -143 441 -142 c 0,30,31
 455 -139 455 -139 461 -129 c 0,32,33
 465 -119 465 -119 465 -110 c 0,34,35
 465 -101.366692347 465 -101.366692347 461.471763265 -87 c 1,36,-1
 372.100981545 -87 l 1,21,22
369.572145557 -77 m 1,37,-1
 458.789585872 -77 l 1,38,39
 457.95136091 -74.0919229575 457.95136091 -74.0919229575 457 -71 c 2,40,-1
 456 -65 l 2,41,42
 452 -50 452 -50 448 -42 c 128,-1,43
 444 -34 444 -34 436 -26.5 c 128,-1,44
 428 -19 428 -19 417 -19 c 2,45,-1
 416 -19 l 2,46,47
 400 -19 400 -19 388 -22 c 0,48,49
 375 -25 375 -25 368 -35 c 0,50,51
 364 -43 364 -43 364 -48 c 0,52,53
 364 -54 364 -54 365 -56 c 0,54,55
 366.974257397 -66.2661384638 366.974257397 -66.2661384638 369.572145557 -77 c 1,37,-1
200 77 m 1,56,-1
 0 77 l 1,57,-1
 0 87 l 1,58,-1
 200 87 l 1,59,-1
 317 87 l 1,60,-1
 732 87 l 1,61,-1
 732 77 l 1,62,-1
 317 77 l 1,63,-1
 200 77 l 1,56,-1
200 241 m 1,64,-1
 0 241 l 1,65,-1
 0 251 l 1,66,-1
 200 251 l 1,67,-1
 317 251 l 1,68,-1
 732 251 l 1,69,-1
 732 241 l 1,70,-1
 317 241 l 1,71,-1
 200 241 l 1,64,-1
200 404 m 1,72,-1
 0 404 l 1,73,-1
 0 415 l 1,74,-1
 200 415 l 1,75,-1
 317 415 l 1,76,-1
 732 415 l 1,77,-1
 732 404 l 1,78,-1
 317 404 l 1,79,-1
 200 404 l 1,72,-1
200 568 m 1,80,-1
 0 568 l 1,81,-1
 0 579 l 1,82,-1
 200 579 l 1,83,-1
 317 579 l 1,84,-1
 732 579 l 1,85,-1
 732 568 l 1,86,-1
 317 568 l 1,87,-1
 200 568 l 1,80,-1
200 732 m 1,88,-1
 0 732 l 1,89,-1
 0 742 l 1,90,-1
 200 742 l 1,91,-1
 317 742 l 1,92,-1
 732 742 l 1,93,-1
 732 732 l 1,94,-1
 317 732 l 1,95,-1
 200 732 l 1,88,-1
EndSplineSet
Validated: 524289
EndChar

StartChar: uniE004
Encoding: 57348 57348 25
Width: 681
Flags: W
LayerCount: 2
Fore
SplineSet
365 26 m 0,0,1
 370 0 370 0 379 -29 c 0,2,3
 389 -63 389 -63 419 -63 c 0,4,5
 420 -63 420 -63 422.5 -62.5 c 128,-1,6
 425 -62 425 -62 427 -62 c 0,7,8
 436 -61 436 -61 441 -60 c 0,9,10
 455 -57 455 -57 461 -47 c 0,11,12
 465 -37 465 -37 465 -28 c 0,13,14
 465 -15 465 -15 457 11 c 2,15,-1
 456 17 l 2,16,17
 452 31 452 31 448 39.5 c 128,-1,18
 444 48 444 48 436 55 c 128,-1,19
 428 62 428 62 417 62 c 2,20,-1
 416 62 l 2,21,22
 400 62 400 62 388 59 c 0,23,24
 374 56 374 56 368 47 c 0,25,26
 364 39 364 39 364 33 c 0,27,28
 364 28 364 28 365 26 c 0,0,1
456.623638446 77 m 1,29,30
 483.226827988 71.2020410289 483.226827988 71.2020410289 499.5 57 c 0,31,32
 527 33 527 33 527 0 c 0,33,34
 527 -34 527 -34 499.5 -58 c 128,-1,35
 472 -82 472 -82 415 -82 c 128,-1,36
 358 -82 358 -82 330 -57.5 c 128,-1,37
 302 -33 302 -33 302 0 c 128,-1,38
 302 33 302 33 329.5 57 c 0,39,40
 345.773172012 71.2020410289 345.773172012 71.2020410289 372.72653164 77 c 1,41,-1
 317 77 l 1,42,-1
 200 77 l 1,43,-1
 0 77 l 1,44,-1
 0 87 l 1,45,-1
 200 87 l 1,46,-1
 317 87 l 1,47,-1
 732 87 l 1,48,-1
 732 77 l 1,49,-1
 456.623638446 77 l 1,29,30
200 241 m 1,50,-1
 0 241 l 1,51,-1
 0 251 l 1,52,-1
 200 251 l 1,53,-1
 317 251 l 1,54,-1
 732 251 l 1,55,-1
 732 241 l 1,56,-1
 317 241 l 1,57,-1
 200 241 l 1,50,-1
200 404 m 1,58,-1
 0 404 l 1,59,-1
 0 415 l 1,60,-1
 200 415 l 1,61,-1
 317 415 l 1,62,-1
 732 415 l 1,63,-1
 732 404 l 1,64,-1
 317 404 l 1,65,-1
 200 404 l 1,58,-1
200 568 m 1,66,-1
 0 568 l 1,67,-1
 0 579 l 1,68,-1
 200 579 l 1,69,-1
 317 579 l 1,70,-1
 732 579 l 1,71,-1
 732 568 l 1,72,-1
 317 568 l 1,73,-1
 200 568 l 1,66,-1
200 732 m 1,74,-1
 0 732 l 1,75,-1
 0 742 l 1,76,-1
 200 742 l 1,77,-1
 317 742 l 1,78,-1
 732 742 l 1,79,-1
 732 732 l 1,80,-1
 317 732 l 1,81,-1
 200 732 l 1,74,-1
EndSplineSet
Validated: 524289
EndChar

StartChar: uniE005
Encoding: 57349 57349 26
Width: 681
Flags: W
LayerCount: 2
Fore
SplineSet
415 163 m 0,0,1
 472 163 472 163 499.5 139 c 0,2,3
 524.894688131 116.837363086 524.894688131 116.837363086 526.83882407 87 c 1,4,-1
 732 87 l 1,5,-1
 732 77 l 1,6,-1
 526.848014147 77 l 1,7,8
 524.955590316 46.2157879119 524.955590316 46.2157879119 499.5 24 c 0,9,10
 472 0 472 0 415 0 c 128,-1,11
 358 0 358 0 330 24.5 c 0,12,13
 304.142322035 47.125468219 304.142322035 47.125468219 302.163912275 77 c 1,14,-1
 200 77 l 1,15,-1
 0 77 l 1,16,-1
 0 87 l 1,17,-1
 200 87 l 1,18,-1
 302.16117593 87 l 1,19,20
 304.105311869 116.837363086 304.105311869 116.837363086 329.5 139 c 0,21,22
 357 163 357 163 415 163 c 0,0,1
372.100981545 77 m 1,23,24
 375.192547743 65.268457272 375.192547743 65.268457272 379 53 c 0,25,26
 389 19 389 19 419 19 c 0,27,28
 420 19 420 19 422.5 19.5 c 128,-1,29
 425 20 425 20 427 20 c 0,30,31
 436 21 436 21 441 22 c 0,32,33
 455 25 455 25 461 35 c 0,34,35
 465 45 465 45 465 54 c 0,36,37
 465 62.6333076528 465 62.6333076528 461.471763265 77 c 1,38,-1
 372.100981545 77 l 1,23,24
369.572145557 87 m 1,39,-1
 458.789585872 87 l 1,40,41
 457.95136091 89.9080770425 457.95136091 89.9080770425 457 93 c 2,42,-1
 456 99 l 2,43,44
 452 113 452 113 448 121.5 c 128,-1,45
 444 130 444 130 436 137 c 128,-1,46
 428 144 428 144 417 144 c 2,47,-1
 416 144 l 2,48,49
 400 144 400 144 388 141 c 0,50,51
 374 138 374 138 368 129 c 0,52,53
 364 121 364 121 364 115 c 0,54,55
 364 110 364 110 365 108 c 0,56,57
 366.974257397 97.7338615362 366.974257397 97.7338615362 369.572145557 87 c 1,39,-1
200 241 m 1,58,-1
 0 241 l 1,59,-1
 0 251 l 1,60,-1
 200 251 l 1,61,-1
 317 251 l 1,62,-1
 732 251 l 1,63,-1
 732 241 l 1,64,-1
 317 241 l 1,65,-1
 200 241 l 1,58,-1
200 404 m 1,66,-1
 0 404 l 1,67,-1
 0 415 l 1,68,-1
 200 415 l 1,69,-1
 317 415 l 1,70,-1
 732 415 l 1,71,-1
 732 404 l 1,72,-1
 317 404 l 1,73,-1
 200 404 l 1,66,-1
200 568 m 1,74,-1
 0 568 l 1,75,-1
 0 579 l 1,76,-1
 200 579 l 1,77,-1
 317 579 l 1,78,-1
 732 579 l 1,79,-1
 732 568 l 1,80,-1
 317 568 l 1,81,-1
 200 568 l 1,74,-1
200 732 m 1,82,-1
 0 732 l 1,83,-1
 0 742 l 1,84,-1
 200 742 l 1,85,-1
 317 742 l 1,86,-1
 732 742 l 1,87,-1
 732 732 l 1,88,-1
 317 732 l 1,89,-1
 200 732 l 1,82,-1
EndSplineSet
Validated: 524289
EndChar

StartChar: uniE006
Encoding: 57350 57350 27
Width: 681
Flags: W
LayerCount: 2
Fore
SplineSet
365 190 m 0,0,1
 370 161 370 161 379 134 c 0,2,3
 389 101 389 101 419 101 c 0,4,5
 420 101 420 101 422.5 101.5 c 128,-1,6
 425 102 425 102 427 102 c 0,7,8
 436 103 436 103 441 104 c 0,9,10
 455 107 455 107 461 117 c 0,11,12
 465 127 465 127 465 136 c 0,13,14
 465 149 465 149 457 175 c 2,15,-1
 456 181 l 2,16,17
 452 195 452 195 448 203.5 c 128,-1,18
 444 212 444 212 436 219 c 128,-1,19
 428 226 428 226 417 226 c 2,20,-1
 416 226 l 2,21,22
 400 226 400 226 388 223 c 0,23,24
 374 220 374 220 368 211 c 0,25,26
 364 203 364 203 364 197 c 0,27,28
 364 192 364 192 365 190 c 0,0,1
460.88780963 87 m 1,29,-1
 732 87 l 1,30,-1
 732 77 l 1,31,-1
 317 77 l 1,32,-1
 200 77 l 1,33,-1
 0 77 l 1,34,-1
 0 87 l 1,35,-1
 200 87 l 1,36,-1
 317 87 l 1,37,-1
 368.407652775 87 l 1,38,39
 344.448024724 92.9544511501 344.448024724 92.9544511501 329.5 106 c 0,40,41
 302 130 302 130 302 163 c 128,-1,42
 302 196 302 196 330 220.5 c 0,43,44
 346.686291501 235.100505063 346.686291501 235.100505063 373.671737846 241 c 1,45,-1
 317 241 l 1,46,-1
 200 241 l 1,47,-1
 0 241 l 1,48,-1
 0 251 l 1,49,-1
 200 251 l 1,50,-1
 317 251 l 1,51,-1
 732 251 l 1,52,-1
 732 241 l 1,53,-1
 456.623638446 241 l 1,54,55
 483.226827988 235.202041029 483.226827988 235.202041029 499.5 221 c 0,56,57
 527 197 527 197 527 163 c 0,58,59
 527 130 527 130 499.5 106 c 0,60,61
 484.551975276 92.9544511501 484.551975276 92.9544511501 460.88780963 87 c 1,29,-1
200 404 m 1,62,-1
 0 404 l 1,63,-1
 0 415 l 1,64,-1
 200 415 l 1,65,-1
 317 415 l 1,66,-1
 732 415 l 1,67,-1
 732 404 l 1,68,-1
 317 404 l 1,69,-1
 200 404 l 1,62,-1
200 568 m 1,70,-1
 0 568 l 1,71,-1
 0 579 l 1,72,-1
 200 579 l 1,73,-1
 317 579 l 1,74,-1
 732 579 l 1,75,-1
 732 568 l 1,76,-1
 317 568 l 1,77,-1
 200 568 l 1,70,-1
200 732 m 1,78,-1
 0 732 l 1,79,-1
 0 742 l 1,80,-1
 200 742 l 1,81,-1
 317 742 l 1,82,-1
 732 742 l 1,83,-1
 732 732 l 1,84,-1
 317 732 l 1,85,-1
 200 732 l 1,78,-1
EndSplineSet
Validated: 524289
EndChar

StartChar: uniE007
Encoding: 57351 57351 28
Width: 681
Flags: W
LayerCount: 2
Fore
SplineSet
415 327 m 128,-1,1
 472 327 472 327 499.5 303 c 0,2,3
 524.541199465 281.145862285 524.541199465 281.145862285 526.780156361 251 c 1,4,-1
 732 251 l 1,5,-1
 732 241 l 1,6,-1
 526.897284996 241 l 1,7,8
 525.319326742 210.533230611 525.319326742 210.533230611 499.5 188 c 0,9,10
 472 164 472 164 415 164 c 0,11,12
 357 164 357 164 329.5 188 c 0,13,14
 303.680673258 210.533230611 303.680673258 210.533230611 302.102715004 241 c 1,15,-1
 200 241 l 1,16,-1
 0 241 l 1,17,-1
 0 251 l 1,18,-1
 200 251 l 1,19,-1
 302.236987523 251 l 1,20,21
 304.575975666 280.253978708 304.575975666 280.253978708 330 302.5 c 0,22,0
 358 327 358 327 415 327 c 128,-1,1
371.633997144 241 m 1,23,24
 374.902428367 228.292714898 374.902428367 228.292714898 379 216 c 0,25,26
 389 183 389 183 419 183 c 0,27,28
 420 183 420 183 422.5 183.5 c 128,-1,29
 425 184 425 184 427 184 c 0,30,31
 436 185 436 185 441 186 c 0,32,33
 455 189 455 189 461 199 c 0,34,35
 465 209 465 209 465 218 c 0,36,37
 465 226.633307653 465 226.633307653 461.471763265 241 c 1,38,-1
 371.633997144 241 l 1,23,24
369.204952837 251 m 1,39,-1
 458.789585872 251 l 1,40,41
 457.95136091 253.908077043 457.95136091 253.908077043 457 257 c 2,42,-1
 456 263 l 2,43,44
 452 277 452 277 448 285.5 c 128,-1,45
 444 294 444 294 436 301 c 128,-1,46
 428 308 428 308 417 308 c 2,47,-1
 416 308 l 2,48,49
 400 308 400 308 388 305 c 0,50,51
 374 302 374 302 368 293 c 0,52,53
 364 285 364 285 364 279 c 0,54,55
 364 274 364 274 365 272 c 0,56,57
 366.833529874 261.365526728 366.833529874 261.365526728 369.204952837 251 c 1,39,-1
200 77 m 1,58,-1
 0 77 l 1,59,-1
 0 87 l 1,60,-1
 200 87 l 1,61,-1
 317 87 l 1,62,-1
 732 87 l 1,63,-1
 732 77 l 1,64,-1
 317 77 l 1,65,-1
 200 77 l 1,58,-1
200 404 m 1,66,-1
 0 404 l 1,67,-1
 0 415 l 1,68,-1
 200 415 l 1,69,-1
 317 415 l 1,70,-1
 732 415 l 1,71,-1
 732 404 l 1,72,-1
 317 404 l 1,73,-1
 200 404 l 1,66,-1
200 568 m 1,74,-1
 0 568 l 1,75,-1
 0 579 l 1,76,-1
 200 579 l 1,77,-1
 317 579 l 1,78,-1
 732 579 l 1,79,-1
 732 568 l 1,80,-1
 317 568 l 1,81,-1
 200 568 l 1,74,-1
200 732 m 1,82,-1
 0 732 l 1,83,-1
 0 742 l 1,84,-1
 200 742 l 1,85,-1
 317 742 l 1,86,-1
 732 742 l 1,87,-1
 732 732 l 1,88,-1
 317 732 l 1,89,-1
 200 732 l 1,82,-1
EndSplineSet
Validated: 524289
EndChar

StartChar: uniE008
Encoding: 57352 57352 29
Width: 681
Flags: W
LayerCount: 2
Fore
SplineSet
365 354 m 0,0,1
 370 325 370 325 379 298 c 0,2,3
 389 265 389 265 419 265 c 0,4,5
 420 265 420 265 422.5 265.5 c 128,-1,6
 425 266 425 266 427 266 c 0,7,8
 436 267 436 267 441 268 c 0,9,10
 455 271 455 271 461 281 c 0,11,12
 465 291 465 291 465 300 c 0,13,14
 465 313 465 313 457 339 c 2,15,-1
 456 345 l 2,16,17
 452 359 452 359 448 367.5 c 128,-1,18
 444 376 444 376 436 383 c 128,-1,19
 428 390 428 390 417 390 c 2,20,-1
 416 390 l 2,21,22
 400 390 400 390 388 387 c 0,23,24
 374 384 374 384 368 375 c 0,25,26
 364 367 364 367 364 361 c 0,27,28
 364 356 364 356 365 354 c 0,0,1
460.88780963 251 m 1,29,-1
 732 251 l 1,30,-1
 732 241 l 1,31,-1
 317 241 l 1,32,-1
 200 241 l 1,33,-1
 0 241 l 1,34,-1
 0 251 l 1,35,-1
 200 251 l 1,36,-1
 317 251 l 1,37,-1
 368.407652775 251 l 1,38,39
 344.448024724 256.95445115 344.448024724 256.95445115 329.5 270 c 0,40,41
 302 294 302 294 302 327 c 128,-1,42
 302 360 302 360 330 384.5 c 0,43,44
 345.350889359 397.932028189 345.350889359 397.932028189 369.418416881 404 c 1,45,-1
 317 404 l 1,46,-1
 200 404 l 1,47,-1
 0 404 l 1,48,-1
 0 415 l 1,49,-1
 200 415 l 1,50,-1
 317 415 l 1,51,-1
 732 415 l 1,52,-1
 732 404 l 1,53,-1
 460.88780963 404 l 1,54,55
 484.551975276 398.04554885 484.551975276 398.04554885 499.5 385 c 0,56,57
 527 361 527 361 527 327 c 0,58,59
 527 294 527 294 499.5 270 c 0,60,61
 484.551975276 256.95445115 484.551975276 256.95445115 460.88780963 251 c 1,29,-1
200 77 m 1,62,-1
 0 77 l 1,63,-1
 0 87 l 1,64,-1
 200 87 l 1,65,-1
 317 87 l 1,66,-1
 732 87 l 1,67,-1
 732 77 l 1,68,-1
 317 77 l 1,69,-1
 200 77 l 1,62,-1
200 568 m 1,70,-1
 0 568 l 1,71,-1
 0 579 l 1,72,-1
 200 579 l 1,73,-1
 317 579 l 1,74,-1
 732 579 l 1,75,-1
 732 568 l 1,76,-1
 317 568 l 1,77,-1
 200 568 l 1,70,-1
200 732 m 1,78,-1
 0 732 l 1,79,-1
 0 742 l 1,80,-1
 200 742 l 1,81,-1
 317 742 l 1,82,-1
 732 742 l 1,83,-1
 732 732 l 1,84,-1
 317 732 l 1,85,-1
 200 732 l 1,78,-1
EndSplineSet
Validated: 524289
EndChar

StartChar: uniE009
Encoding: 57353 57353 30
Width: 681
Flags: W
LayerCount: 2
Fore
SplineSet
415 491 m 128,-1,1
 472 491 472 491 499.5 467 c 0,2,3
 524.541199465 445.145862285 524.541199465 445.145862285 526.780156361 415 c 1,4,-1
 732 415 l 1,5,-1
 732 404 l 1,6,-1
 526.83882407 404 l 1,7,8
 524.894688131 374.162636914 524.894688131 374.162636914 499.5 352 c 0,9,10
 472 328 472 328 415 328 c 0,11,12
 357 328 357 328 329.5 352 c 0,13,14
 304.105311869 374.162636914 304.105311869 374.162636914 302.16117593 404 c 1,15,-1
 200 404 l 1,16,-1
 0 404 l 1,17,-1
 0 415 l 1,18,-1
 200 415 l 1,19,-1
 302.236987523 415 l 1,20,21
 304.575975666 444.253978708 304.575975666 444.253978708 330 466.5 c 0,22,0
 358 491 358 491 415 491 c 128,-1,1
371.892657039 404 m 1,23,24
 375.063761217 391.808716349 375.063761217 391.808716349 379 380 c 0,25,26
 389 347 389 347 419 347 c 0,27,28
 420 347 420 347 422.5 347.5 c 128,-1,29
 425 348 425 348 427 348 c 0,30,31
 436 348 436 348 441 349 c 0,32,33
 455 352 455 352 461 363 c 0,34,35
 465 373 465 373 465 381 c 0,36,37
 465 390.013154479 465 390.013154479 461.684205973 404 c 1,38,-1
 371.892657039 404 l 1,23,24
369.204952837 415 m 1,39,-1
 458.78552893 415 l 1,40,41
 457.94905903 417.915558152 457.94905903 417.915558152 457 421 c 2,42,-1
 456 427 l 2,43,44
 452 441 452 441 448 449.5 c 128,-1,45
 444 458 444 458 436 465 c 128,-1,46
 428 472 428 472 417 472 c 2,47,-1
 416 472 l 2,48,49
 400 472 400 472 388 469 c 0,50,51
 374 466 374 466 368 457 c 0,52,53
 364 449 364 449 364 443 c 0,54,55
 364 438 364 438 365 436 c 0,56,57
 366.833529874 425.365526728 366.833529874 425.365526728 369.204952837 415 c 1,39,-1
200 77 m 1,58,-1
 0 77 l 1,59,-1
 0 87 l 1,60,-1
 200 87 l 1,61,-1
 317 87 l 1,62,-1
 732 87 l 1,63,-1
 732 77 l 1,64,-1
 317 77 l 1,65,-1
 200 77 l 1,58,-1
200 241 m 1,66,-1
 0 241 l 1,67,-1
 0 251 l 1,68,-1
 200 251 l 1,69,-1
 317 251 l 1,70,-1
 732 251 l 1,71,-1
 732 241 l 1,72,-1
 317 241 l 1,73,-1
 200 241 l 1,66,-1
200 568 m 1,74,-1
 0 568 l 1,75,-1
 0 579 l 1,76,-1
 200 579 l 1,77,-1
 317 579 l 1,78,-1
 732 579 l 1,79,-1
 732 568 l 1,80,-1
 317 568 l 1,81,-1
 200 568 l 1,74,-1
200 732 m 1,82,-1
 0 732 l 1,83,-1
 0 742 l 1,84,-1
 200 742 l 1,85,-1
 317 742 l 1,86,-1
 732 742 l 1,87,-1
 732 732 l 1,88,-1
 317 732 l 1,89,-1
 200 732 l 1,82,-1
EndSplineSet
Validated: 524289
EndChar

StartChar: uniE00A
Encoding: 57354 57354 31
Width: 681
Flags: W
LayerCount: 2
Fore
SplineSet
365 518 m 0,0,1
 370 489 370 489 379 462 c 0,2,3
 389 429 389 429 419 429 c 0,4,5
 420 429 420 429 422.5 429.5 c 128,-1,6
 425 430 425 430 427 430 c 0,7,8
 436 430 436 430 441 431 c 0,9,10
 455 434 455 434 461 445 c 0,11,12
 465 455 465 455 465 463 c 0,13,14
 465 477 465 477 457 503 c 2,15,-1
 456 509 l 2,16,17
 452 523 452 523 448 531.5 c 128,-1,18
 444 540 444 540 436 547 c 128,-1,19
 428 554 428 554 417 554 c 2,20,-1
 416 554 l 2,21,22
 400 554 400 554 388 551 c 0,23,24
 374 548 374 548 368 539 c 0,25,26
 364 531 364 531 364 525 c 0,27,28
 364 520 364 520 365 518 c 0,0,1
460.88780963 415 m 1,29,-1
 732 415 l 1,30,-1
 732 404 l 1,31,-1
 317 404 l 1,32,-1
 200 404 l 1,33,-1
 0 404 l 1,34,-1
 0 415 l 1,35,-1
 200 415 l 1,36,-1
 317 415 l 1,37,-1
 368.407652775 415 l 1,38,39
 344.448024724 420.95445115 344.448024724 420.95445115 329.5 434 c 0,40,41
 302 458 302 458 302 491 c 128,-1,42
 302 524 302 524 330 548.5 c 0,43,44
 345.350889359 561.932028189 345.350889359 561.932028189 369.418416881 568 c 1,45,-1
 317 568 l 1,46,-1
 200 568 l 1,47,-1
 0 568 l 1,48,-1
 0 579 l 1,49,-1
 200 579 l 1,50,-1
 317 579 l 1,51,-1
 732 579 l 1,52,-1
 732 568 l 1,53,-1
 460.88780963 568 l 1,54,55
 484.551975276 562.04554885 484.551975276 562.04554885 499.5 549 c 0,56,57
 527 525 527 525 527 491 c 0,58,59
 527 458 527 458 499.5 434 c 0,60,61
 484.551975276 420.95445115 484.551975276 420.95445115 460.88780963 415 c 1,29,-1
200 77 m 1,62,-1
 0 77 l 1,63,-1
 0 87 l 1,64,-1
 200 87 l 1,65,-1
 317 87 l 1,66,-1
 732 87 l 1,67,-1
 732 77 l 1,68,-1
 317 77 l 1,69,-1
 200 77 l 1,62,-1
200 241 m 1,70,-1
 0 241 l 1,71,-1
 0 251 l 1,72,-1
 200 251 l 1,73,-1
 317 251 l 1,74,-1
 732 251 l 1,75,-1
 732 241 l 1,76,-1
 317 241 l 1,77,-1
 200 241 l 1,70,-1
200 732 m 1,78,-1
 0 732 l 1,79,-1
 0 742 l 1,80,-1
 200 742 l 1,81,-1
 317 742 l 1,82,-1
 732 742 l 1,83,-1
 732 732 l 1,84,-1
 317 732 l 1,85,-1
 200 732 l 1,78,-1
EndSplineSet
Validated: 524289
EndChar

StartChar: uniE00B
Encoding: 57355 57355 32
Width: 681
Flags: W
LayerCount: 2
Fore
SplineSet
415 655 m 128,-1,1
 472 655 472 655 499.5 631 c 0,2,3
 524.541199465 609.145862285 524.541199465 609.145862285 526.780156361 579 c 1,4,-1
 732 579 l 1,5,-1
 732 568 l 1,6,-1
 526.83882407 568 l 1,7,8
 524.894688131 538.162636914 524.894688131 538.162636914 499.5 516 c 0,9,10
 472 492 472 492 415 492 c 0,11,12
 357 492 357 492 329.5 516 c 0,13,14
 304.105311869 538.162636914 304.105311869 538.162636914 302.16117593 568 c 1,15,-1
 200 568 l 1,16,-1
 0 568 l 1,17,-1
 0 579 l 1,18,-1
 200 579 l 1,19,-1
 302.236987523 579 l 1,20,21
 304.575975666 608.253978708 304.575975666 608.253978708 330 630.5 c 0,22,0
 358 655 358 655 415 655 c 128,-1,1
371.892657039 568 m 1,23,24
 375.063761217 555.808716349 375.063761217 555.808716349 379 544 c 0,25,26
 389 511 389 511 419 511 c 2,27,-1
 427 511 l 2,28,29
 436 512 436 512 441 513 c 0,30,31
 455 516 455 516 461 527 c 0,32,33
 465 537 465 537 465 545 c 0,34,35
 465 554.013154479 465 554.013154479 461.684205973 568 c 1,36,-1
 371.892657039 568 l 1,23,24
369.204952837 579 m 1,37,-1
 458.78552893 579 l 1,38,39
 457.94905903 581.915558152 457.94905903 581.915558152 457 585 c 2,40,-1
 456 591 l 2,41,42
 452 605 452 605 448 613.5 c 128,-1,43
 444 622 444 622 436 629 c 128,-1,44
 428 636 428 636 417 636 c 2,45,-1
 416 636 l 2,46,47
 400 636 400 636 388 633 c 0,48,49
 374 630 374 630 368 621 c 0,50,51
 364 613 364 613 364 607 c 0,52,53
 364 602 364 602 365 600 c 0,54,55
 366.833529874 589.365526728 366.833529874 589.365526728 369.204952837 579 c 1,37,-1
200 77 m 1,56,-1
 0 77 l 1,57,-1
 0 87 l 1,58,-1
 200 87 l 1,59,-1
 317 87 l 1,60,-1
 732 87 l 1,61,-1
 732 77 l 1,62,-1
 317 77 l 1,63,-1
 200 77 l 1,56,-1
200 241 m 1,64,-1
 0 241 l 1,65,-1
 0 251 l 1,66,-1
 200 251 l 1,67,-1
 317 251 l 1,68,-1
 732 251 l 1,69,-1
 732 241 l 1,70,-1
 317 241 l 1,71,-1
 200 241 l 1,64,-1
200 404 m 1,72,-1
 0 404 l 1,73,-1
 0 415 l 1,74,-1
 200 415 l 1,75,-1
 317 415 l 1,76,-1
 732 415 l 1,77,-1
 732 404 l 1,78,-1
 317 404 l 1,79,-1
 200 404 l 1,72,-1
200 732 m 1,80,-1
 0 732 l 1,81,-1
 0 742 l 1,82,-1
 200 742 l 1,83,-1
 317 742 l 1,84,-1
 732 742 l 1,85,-1
 732 732 l 1,86,-1
 317 732 l 1,87,-1
 200 732 l 1,80,-1
EndSplineSet
Validated: 524289
EndChar

StartChar: uniE00C
Encoding: 57356 57356 33
Width: 681
Flags: W
LayerCount: 2
Fore
SplineSet
365 682 m 0,0,1
 370 653 370 653 379 626 c 0,2,3
 389 593 389 593 419 593 c 2,4,-1
 427 593 l 2,5,6
 436 594 436 594 441 595 c 0,7,8
 455 598 455 598 461 608 c 0,9,10
 465 618 465 618 465 627 c 0,11,12
 465 633 465 633 461 648 c 128,-1,13
 457 663 457 663 457 666 c 2,14,-1
 456 673 l 2,15,16
 452 687 452 687 448 695.5 c 128,-1,17
 444 704 444 704 436 711 c 128,-1,18
 428 718 428 718 417 718 c 2,19,-1
 416 718 l 2,20,21
 400 718 400 718 388 715 c 0,22,23
 374 712 374 712 368 703 c 0,24,25
 364 695 364 695 364 689 c 0,26,27
 364 684 364 684 365 682 c 0,0,1
464.625 579 m 1,28,-1
 732 579 l 1,29,-1
 732 568 l 1,30,-1
 317 568 l 1,31,-1
 200 568 l 1,32,-1
 0 568 l 1,33,-1
 0 579 l 1,34,-1
 200 579 l 1,35,-1
 317 579 l 1,36,-1
 365.686671656 579 l 1,37,38
 344.143593539 585.124355653 344.143593539 585.124355653 330 597.5 c 0,39,40
 302 622 302 622 302 655 c 128,-1,41
 302 688 302 688 330 712.5 c 0,42,43
 345.350889359 725.932028189 345.350889359 725.932028189 369.418416881 732 c 1,44,-1
 317 732 l 1,45,-1
 200 732 l 1,46,-1
 0 732 l 1,47,-1
 0 742 l 1,48,-1
 200 742 l 1,49,-1
 317 742 l 1,50,-1
 732 742 l 1,51,-1
 732 732 l 1,52,-1
 460.88780963 732 l 1,53,54
 484.551975276 726.04554885 484.551975276 726.04554885 499.5 713 c 0,55,56
 527 689 527 689 527 655 c 128,-1,57
 527 621 527 621 499.5 597 c 0,58,59
 485.75 585 485.75 585 464.625 579 c 1,28,-1
200 77 m 1,60,-1
 0 77 l 1,61,-1
 0 87 l 1,62,-1
 200 87 l 1,63,-1
 317 87 l 1,64,-1
 732 87 l 1,65,-1
 732 77 l 1,66,-1
 317 77 l 1,67,-1
 200 77 l 1,60,-1
200 241 m 1,68,-1
 0 241 l 1,69,-1
 0 251 l 1,70,-1
 200 251 l 1,71,-1
 317 251 l 1,72,-1
 732 251 l 1,73,-1
 732 241 l 1,74,-1
 317 241 l 1,75,-1
 200 241 l 1,68,-1
200 404 m 1,76,-1
 0 404 l 1,77,-1
 0 415 l 1,78,-1
 200 415 l 1,79,-1
 317 415 l 1,80,-1
 732 415 l 1,81,-1
 732 404 l 1,82,-1
 317 404 l 1,83,-1
 200 404 l 1,76,-1
EndSplineSet
Validated: 524289
EndChar

StartChar: uniE00D
Encoding: 57357 57357 34
Width: 681
Flags: W
LayerCount: 2
Fore
SplineSet
415 818 m 0,0,1
 472 818 472 818 499.5 794 c 0,2,3
 524.894688131 771.837363086 524.894688131 771.837363086 526.83882407 742 c 1,4,-1
 732 742 l 1,5,-1
 732 732 l 1,6,-1
 526.848014147 732 l 1,7,8
 524.955590316 701.215787912 524.955590316 701.215787912 499.5 679 c 0,9,10
 472 655 472 655 415 655 c 128,-1,11
 358 655 358 655 330 679.5 c 0,12,13
 304.142322035 702.125468219 304.142322035 702.125468219 302.163912275 732 c 1,14,-1
 200 732 l 1,15,-1
 0 732 l 1,16,-1
 0 742 l 1,17,-1
 200 742 l 1,18,-1
 302.16117593 742 l 1,19,20
 304.105311869 771.837363086 304.105311869 771.837363086 329.5 794 c 0,21,22
 357 818 357 818 415 818 c 0,0,1
371.892657039 732 m 1,23,24
 375.063761217 719.808716349 375.063761217 719.808716349 379 708 c 0,25,26
 389 675 389 675 419 675 c 2,27,-1
 427 675 l 2,28,29
 436 676 436 676 441 677 c 0,30,31
 455 680 455 680 461 690 c 0,32,33
 465 700 465 700 465 709 c 0,34,35
 465 717.633307653 465 717.633307653 461.471763265 732 c 1,36,-1
 371.892657039 732 l 1,23,24
369.4351291 742 m 1,37,-1
 458.789585872 742 l 1,38,39
 457.95136091 744.908077043 457.95136091 744.908077043 457 748 c 2,40,-1
 456 754 l 2,41,42
 452 769 452 769 448 777 c 128,-1,43
 444 785 444 785 436 792.5 c 128,-1,44
 428 800 428 800 417 800 c 2,45,-1
 416 800 l 2,46,47
 400 800 400 800 388 797 c 0,48,49
 374 794 374 794 368 785 c 0,50,51
 364 777 364 777 364 771 c 0,52,53
 364 766 364 766 365 764 c 0,54,55
 366.922028933 752.852232191 366.922028933 752.852232191 369.4351291 742 c 1,37,-1
200 77 m 1,56,-1
 0 77 l 1,57,-1
 0 87 l 1,58,-1
 200 87 l 1,59,-1
 317 87 l 1,60,-1
 732 87 l 1,61,-1
 732 77 l 1,62,-1
 317 77 l 1,63,-1
 200 77 l 1,56,-1
200 241 m 1,64,-1
 0 241 l 1,65,-1
 0 251 l 1,66,-1
 200 251 l 1,67,-1
 317 251 l 1,68,-1
 732 251 l 1,69,-1
 732 241 l 1,70,-1
 317 241 l 1,71,-1
 200 241 l 1,64,-1
200 404 m 1,72,-1
 0 404 l 1,73,-1
 0 415 l 1,74,-1
 200 415 l 1,75,-1
 317 415 l 1,76,-1
 732 415 l 1,77,-1
 732 404 l 1,78,-1
 317 404 l 1,79,-1
 200 404 l 1,72,-1
200 568 m 1,80,-1
 0 568 l 1,81,-1
 0 579 l 1,82,-1
 200 579 l 1,83,-1
 317 579 l 1,84,-1
 732 579 l 1,85,-1
 732 568 l 1,86,-1
 317 568 l 1,87,-1
 200 568 l 1,80,-1
EndSplineSet
Validated: 524289
EndChar

StartChar: uniE00E
Encoding: 57358 57358 35
Width: 681
Flags: W
LayerCount: 2
Fore
SplineSet
365 845 m 0,0,1
 370 819 370 819 379 790 c 0,2,3
 389 757 389 757 419 757 c 2,4,-1
 427 757 l 2,5,6
 436 758 436 758 441 759 c 0,7,8
 455 762 455 762 461 772 c 0,9,10
 465 782 465 782 465 791 c 0,11,12
 465 804 465 804 457 830 c 2,13,-1
 456 836 l 2,14,15
 452 851 452 851 448 859 c 128,-1,16
 444 867 444 867 436 874.5 c 128,-1,17
 428 882 428 882 417 882 c 2,18,-1
 416 882 l 2,19,20
 400 882 400 882 388 879 c 0,21,22
 374 876 374 876 368 867 c 0,23,24
 364 859 364 859 364 853 c 128,-1,25
 364 847 364 847 365 845 c 0,0,1
415 900 m 0,26,27
 472 900 472 900 499.5 876 c 128,-1,28
 527 852 527 852 527 819 c 0,29,30
 527 785 527 785 499.5 761 c 0,31,32
 484.551975276 747.95445115 484.551975276 747.95445115 460.88780963 742 c 1,33,-1
 732 742 l 1,34,-1
 732 732 l 1,35,-1
 317 732 l 1,36,-1
 200 732 l 1,37,-1
 0 732 l 1,38,-1
 0 742 l 1,39,-1
 200 742 l 1,40,-1
 317 742 l 1,41,-1
 369.418416881 742 l 1,42,43
 345.350889359 748.067971811 345.350889359 748.067971811 330 761.5 c 0,44,45
 302 786 302 786 302 819 c 128,-1,46
 302 852 302 852 329.5 876 c 128,-1,47
 357 900 357 900 415 900 c 0,26,27
200 77 m 1,48,-1
 0 77 l 1,49,-1
 0 87 l 1,50,-1
 200 87 l 1,51,-1
 317 87 l 1,52,-1
 732 87 l 1,53,-1
 732 77 l 1,54,-1
 317 77 l 1,55,-1
 200 77 l 1,48,-1
200 241 m 1,56,-1
 0 241 l 1,57,-1
 0 251 l 1,58,-1
 200 251 l 1,59,-1
 317 251 l 1,60,-1
 732 251 l 1,61,-1
 732 241 l 1,62,-1
 317 241 l 1,63,-1
 200 241 l 1,56,-1
200 404 m 1,64,-1
 0 404 l 1,65,-1
 0 415 l 1,66,-1
 200 415 l 1,67,-1
 317 415 l 1,68,-1
 732 415 l 1,69,-1
 732 404 l 1,70,-1
 317 404 l 1,71,-1
 200 404 l 1,64,-1
200 568 m 1,72,-1
 0 568 l 1,73,-1
 0 579 l 1,74,-1
 200 579 l 1,75,-1
 317 579 l 1,76,-1
 732 579 l 1,77,-1
 732 568 l 1,78,-1
 317 568 l 1,79,-1
 200 568 l 1,72,-1
EndSplineSet
Validated: 524289
EndChar

StartChar: uniE00F
Encoding: 57359 57359 36
Width: 681
Flags: W
LayerCount: 2
Fore
SplineSet
415 982 m 0,0,1
 472 982 472 982 499.5 958 c 0,2,3
 524.894688131 935.837363086 524.894688131 935.837363086 526.83882407 906 c 1,4,-1
 558 906 l 1,5,-1
 558 896 l 1,6,-1
 526.848014147 896 l 1,7,8
 524.955590316 865.215787912 524.955590316 865.215787912 499.5 843 c 0,9,10
 472 819 472 819 415 819 c 128,-1,11
 358 819 358 819 330 843.5 c 0,12,13
 304.142322035 866.125468219 304.142322035 866.125468219 302.163912275 896 c 1,14,-1
 272 896 l 1,15,-1
 272 906 l 1,16,-1
 302.16117593 906 l 1,17,18
 304.105311869 935.837363086 304.105311869 935.837363086 329.5 958 c 0,19,20
 357 982 357 982 415 982 c 0,0,1
372.100981545 896 m 1,21,22
 375.192547743 884.268457272 375.192547743 884.268457272 379 872 c 0,23,24
 389 839 389 839 419 839 c 2,25,-1
 427 839 l 2,26,27
 436 840 436 840 441 841 c 0,28,29
 455 844 455 844 461 854 c 0,30,31
 465 864 465 864 465 873 c 0,32,33
 465 881.633307653 465 881.633307653 461.471763265 896 c 1,34,-1
 372.100981545 896 l 1,21,22
369.572145557 906 m 1,35,-1
 458.789585872 906 l 1,36,37
 457.95136091 908.908077043 457.95136091 908.908077043 457 912 c 2,38,-1
 456 918 l 2,39,40
 452 933 452 933 448 941 c 128,-1,41
 444 949 444 949 436 956.5 c 128,-1,42
 428 964 428 964 417 964 c 2,43,-1
 416 964 l 2,44,45
 400 964 400 964 388 961 c 0,46,47
 375 958 375 958 368 948 c 0,48,49
 364 940 364 940 364 935 c 0,50,51
 364 929 364 929 365 927 c 0,52,53
 366.974257397 916.733861536 366.974257397 916.733861536 369.572145557 906 c 1,35,-1
200 77 m 1,54,-1
 0 77 l 1,55,-1
 0 87 l 1,56,-1
 200 87 l 1,57,-1
 317 87 l 1,58,-1
 732 87 l 1,59,-1
 732 77 l 1,60,-1
 317 77 l 1,61,-1
 200 77 l 1,54,-1
200 241 m 1,62,-1
 0 241 l 1,63,-1
 0 251 l 1,64,-1
 200 251 l 1,65,-1
 317 251 l 1,66,-1
 732 251 l 1,67,-1
 732 241 l 1,68,-1
 317 241 l 1,69,-1
 200 241 l 1,62,-1
200 404 m 1,70,-1
 0 404 l 1,71,-1
 0 415 l 1,72,-1
 200 415 l 1,73,-1
 317 415 l 1,74,-1
 732 415 l 1,75,-1
 732 404 l 1,76,-1
 317 404 l 1,77,-1
 200 404 l 1,70,-1
200 568 m 1,78,-1
 0 568 l 1,79,-1
 0 579 l 1,80,-1
 200 579 l 1,81,-1
 317 579 l 1,82,-1
 732 579 l 1,83,-1
 732 568 l 1,84,-1
 317 568 l 1,85,-1
 200 568 l 1,78,-1
200 732 m 1,86,-1
 0 732 l 1,87,-1
 0 742 l 1,88,-1
 200 742 l 1,89,-1
 317 742 l 1,90,-1
 732 742 l 1,91,-1
 732 732 l 1,92,-1
 317 732 l 1,93,-1
 200 732 l 1,86,-1
EndSplineSet
Validated: 524289
EndChar

StartChar: uniE010
Encoding: 57360 57360 37
Width: 681
Flags: W
LayerCount: 2
Fore
SplineSet
365 1009 m 0,0,1
 370 983 370 983 379 954 c 0,2,3
 389 920 389 920 419 920 c 0,4,5
 420 920 420 920 422.5 920.5 c 128,-1,6
 425 921 425 921 427 921 c 0,7,8
 436 922 436 922 441 923 c 0,9,10
 455 926 455 926 461 936 c 0,11,12
 465 946 465 946 465 955 c 0,13,14
 465 968 465 968 457 994 c 2,15,-1
 456 1000 l 2,16,17
 452 1015 452 1015 448 1023 c 128,-1,18
 444 1031 444 1031 436 1038.5 c 128,-1,19
 428 1046 428 1046 417 1046 c 2,20,-1
 416 1046 l 2,21,22
 404 1046 404 1046 388 1042 c 0,23,24
 374 1039 374 1039 368 1030 c 0,25,26
 364 1022 364 1022 364 1017 c 0,27,28
 364 1011 364 1011 365 1009 c 0,0,1
415 1064 m 0,29,30
 472 1064 472 1064 499.5 1040 c 128,-1,31
 527 1016 527 1016 527 983 c 0,32,33
 527 949 527 949 499.5 925 c 0,34,35
 484.551975276 911.95445115 484.551975276 911.95445115 460.88780963 906 c 1,36,-1
 558 906 l 1,37,-1
 558 896 l 1,38,-1
 272 896 l 1,39,-1
 272 906 l 1,40,-1
 369.418416881 906 l 1,41,42
 345.350889359 912.067971811 345.350889359 912.067971811 330 925.5 c 0,43,44
 302 950 302 950 302 983 c 128,-1,45
 302 1016 302 1016 329.5 1040 c 128,-1,46
 357 1064 357 1064 415 1064 c 0,29,30
200 77 m 1,47,-1
 0 77 l 1,48,-1
 0 87 l 1,49,-1
 200 87 l 1,50,-1
 317 87 l 1,51,-1
 732 87 l 1,52,-1
 732 77 l 1,53,-1
 317 77 l 1,54,-1
 200 77 l 1,47,-1
200 241 m 1,55,-1
 0 241 l 1,56,-1
 0 251 l 1,57,-1
 200 251 l 1,58,-1
 317 251 l 1,59,-1
 732 251 l 1,60,-1
 732 241 l 1,61,-1
 317 241 l 1,62,-1
 200 241 l 1,55,-1
200 404 m 1,63,-1
 0 404 l 1,64,-1
 0 415 l 1,65,-1
 200 415 l 1,66,-1
 317 415 l 1,67,-1
 732 415 l 1,68,-1
 732 404 l 1,69,-1
 317 404 l 1,70,-1
 200 404 l 1,63,-1
200 568 m 1,71,-1
 0 568 l 1,72,-1
 0 579 l 1,73,-1
 200 579 l 1,74,-1
 317 579 l 1,75,-1
 732 579 l 1,76,-1
 732 568 l 1,77,-1
 317 568 l 1,78,-1
 200 568 l 1,71,-1
200 732 m 1,79,-1
 0 732 l 1,80,-1
 0 742 l 1,81,-1
 200 742 l 1,82,-1
 317 742 l 1,83,-1
 732 742 l 1,84,-1
 732 732 l 1,85,-1
 317 732 l 1,86,-1
 200 732 l 1,79,-1
EndSplineSet
Validated: 524289
EndChar

StartChar: uniE011
Encoding: 57361 57361 38
Width: 681
Flags: W
LayerCount: 2
Fore
SplineSet
415 1146 m 0,0,1
 472 1146 472 1146 499.5 1122 c 0,2,3
 524.894688131 1099.83736309 524.894688131 1099.83736309 526.83882407 1070 c 1,4,-1
 558 1070 l 1,5,-1
 558 1060 l 1,6,-1
 526.848014147 1060 l 1,7,8
 524.955590316 1029.21578791 524.955590316 1029.21578791 499.5 1007 c 0,9,10
 472 983 472 983 415 983 c 128,-1,11
 358 983 358 983 330 1007.5 c 0,12,13
 304.142322035 1030.12546822 304.142322035 1030.12546822 302.163912275 1060 c 1,14,-1
 272 1060 l 1,15,-1
 272 1070 l 1,16,-1
 302.16117593 1070 l 1,17,18
 304.105311869 1099.83736309 304.105311869 1099.83736309 329.5 1122 c 0,19,20
 357 1146 357 1146 415 1146 c 0,0,1
272 906 m 1,21,-1
 558 906 l 1,22,-1
 558 896 l 1,23,-1
 272 896 l 1,24,-1
 272 906 l 1,21,-1
372.100981545 1060 m 1,25,26
 375.192547743 1048.26845727 375.192547743 1048.26845727 379 1036 c 0,27,28
 389 1002 389 1002 419 1002 c 0,29,30
 420 1002 420 1002 422.5 1002.5 c 128,-1,31
 425 1003 425 1003 427 1003 c 0,32,33
 436 1004 436 1004 441 1005 c 0,34,35
 455 1008 455 1008 461 1018 c 0,36,37
 465 1028 465 1028 465 1037 c 0,38,39
 465 1045.63330765 465 1045.63330765 461.471763265 1060 c 1,40,-1
 372.100981545 1060 l 1,25,26
369.572145557 1070 m 1,41,-1
 458.789585872 1070 l 1,42,43
 457.95136091 1072.90807704 457.95136091 1072.90807704 457 1076 c 2,44,-1
 456 1082 l 2,45,46
 452 1096 452 1096 448 1104.5 c 128,-1,47
 444 1113 444 1113 436 1120 c 128,-1,48
 428 1127 428 1127 417 1127 c 2,49,-1
 416 1127 l 2,50,51
 400 1127 400 1127 388 1124 c 0,52,53
 374 1121 374 1121 368 1112 c 0,54,55
 364 1104 364 1104 364 1098 c 0,56,57
 364 1093 364 1093 365 1091 c 0,58,59
 366.974257397 1080.73386154 366.974257397 1080.73386154 369.572145557 1070 c 1,41,-1
200 77 m 1,60,-1
 0 77 l 1,61,-1
 0 87 l 1,62,-1
 200 87 l 1,63,-1
 317 87 l 1,64,-1
 732 87 l 1,65,-1
 732 77 l 1,66,-1
 317 77 l 1,67,-1
 200 77 l 1,60,-1
200 241 m 1,68,-1
 0 241 l 1,69,-1
 0 251 l 1,70,-1
 200 251 l 1,71,-1
 317 251 l 1,72,-1
 732 251 l 1,73,-1
 732 241 l 1,74,-1
 317 241 l 1,75,-1
 200 241 l 1,68,-1
200 404 m 1,76,-1
 0 404 l 1,77,-1
 0 415 l 1,78,-1
 200 415 l 1,79,-1
 317 415 l 1,80,-1
 732 415 l 1,81,-1
 732 404 l 1,82,-1
 317 404 l 1,83,-1
 200 404 l 1,76,-1
200 568 m 1,84,-1
 0 568 l 1,85,-1
 0 579 l 1,86,-1
 200 579 l 1,87,-1
 317 579 l 1,88,-1
 732 579 l 1,89,-1
 732 568 l 1,90,-1
 317 568 l 1,91,-1
 200 568 l 1,84,-1
200 732 m 1,92,-1
 0 732 l 1,93,-1
 0 742 l 1,94,-1
 200 742 l 1,95,-1
 317 742 l 1,96,-1
 732 742 l 1,97,-1
 732 732 l 1,98,-1
 317 732 l 1,99,-1
 200 732 l 1,92,-1
EndSplineSet
Validated: 524289
EndChar

StartChar: uniE020
Encoding: 57376 57376 39
Width: 164
Flags: W
LayerCount: 2
Fore
SplineSet
0 742 m 1,0,-1
 215 742 l 1,1,-1
 215 732 l 1,2,-1
 0 732 l 1,3,-1
 0 742 l 1,0,-1
0 579 m 1,4,-1
 215 579 l 1,5,-1
 215 568 l 1,6,-1
 0 568 l 1,7,-1
 0 579 l 1,4,-1
0 415 m 1,8,-1
 215 415 l 1,9,-1
 215 404 l 1,10,-1
 0 404 l 1,11,-1
 0 415 l 1,8,-1
0 251 m 1,12,-1
 215 251 l 1,13,-1
 215 241 l 1,14,-1
 0 241 l 1,15,-1
 0 251 l 1,12,-1
0 87 m 1,16,-1
 215 87 l 1,17,-1
 215 77 l 1,18,-1
 0 77 l 1,19,-1
 0 87 l 1,16,-1
EndSplineSet
Validated: 1
EndChar

StartChar: uniE021
Encoding: 57377 57377 40
Width: 0
Flags: W
LayerCount: 2
Fore
SplineSet
224 -193 m 0,0,1
 225 -198 225 -198 225 -208 c 0,2,3
 225 -253 225 -253 193 -289 c 0,4,5
 162 -324 162 -324 118 -346 c 0,6,7
 117 -347 117 -347 114 -347 c 0,8,9
 105 -347 105 -347 105 -339 c 2,10,-1
 102 26 l 6,11,12
 102 34 102 34 111 34 c 2,13,-1
 118 34 l 2,14,15
 126 34 126 34 126 26 c 2,16,-1
 124 -169 l 1,17,18
 141 -146 141 -146 175 -146 c 0,19,20
 216 -146 216 -146 224 -193 c 0,0,1
182 -216 m 2,21,-1
 182 -210 l 2,22,23
 182 -176 182 -176 159 -176 c 0,24,25
 143 -176 143 -176 134 -184.5 c 128,-1,26
 125 -193 125 -193 124 -199 c 2,27,-1
 122 -318 l 1,28,29
 154 -294 154 -294 165 -276 c 0,30,31
 182 -250 182 -250 182 -216 c 2,21,-1
EndSplineSet
Validated: 1
EndChar

StartChar: uniE022
Encoding: 57378 57378 41
Width: 0
Flags: W
LayerCount: 2
Fore
SplineSet
224 -111 m 0,0,1
 225 -116 225 -116 225 -126 c 0,2,3
 225 -171 225 -171 193 -207 c 0,4,5
 162 -242 162 -242 118 -264 c 0,6,7
 116 -266 116 -266 114 -266 c 0,8,9
 105 -266 105 -266 105 -257 c 2,10,-1
 102 108 l 2,11,12
 102 116 102 116 111 116 c 2,13,-1
 118 116 l 2,14,15
 126 116 126 116 126 108 c 2,16,-1
 124 -87 l 1,17,18
 140 -65 140 -65 175 -65 c 0,19,20
 216 -65 216 -65 224 -111 c 0,0,1
182 -134 m 2,21,-1
 182 -128 l 2,22,23
 182 -94 182 -94 159 -94 c 0,24,25
 143 -94 143 -94 134 -102.5 c 128,-1,26
 125 -111 125 -111 124 -117 c 2,27,-1
 122 -236 l 1,28,29
 155 -211 155 -211 165 -195 c 0,30,31
 182 -169 182 -169 182 -134 c 2,21,-1
EndSplineSet
Validated: 1
EndChar

StartChar: uniE023
Encoding: 57379 57379 42
Width: 0
Flags: W
LayerCount: 2
Fore
SplineSet
224 -29 m 4,0,1
 225 -34 225 -34 225 -44 c 4,2,3
 225 -89 225 -89 193 -125 c 4,4,5
 162 -160 162 -160 118 -182 c 4,6,7
 116 -184 116 -184 114 -184 c 4,8,9
 105 -184 105 -184 105 -175 c 6,10,-1
 102 190 l 6,11,12
 102 198 102 198 111 198 c 6,13,-1
 118 198 l 6,14,15
 126 198 126 198 126 190 c 6,16,-1
 124 -5 l 5,17,18
 140 17 140 17 175 17 c 4,19,20
 216 17 216 17 224 -29 c 4,0,1
182 -52 m 6,21,-1
 182 -46 l 6,22,23
 182 -12 182 -12 159 -12 c 4,24,25
 143 -12 143 -12 134 -20.5 c 132,-1,26
 125 -29 125 -29 124 -35 c 6,27,-1
 122 -154 l 5,28,29
 155 -129 155 -129 165 -113 c 4,30,31
 182 -87 182 -87 182 -52 c 6,21,-1
EndSplineSet
Validated: 1
EndChar

StartChar: uniE024
Encoding: 57380 57380 43
Width: 0
Flags: W
LayerCount: 2
Fore
SplineSet
224 53 m 4,0,1
 225 48 225 48 225 38 c 4,2,3
 225 -7 225 -7 193 -43 c 4,4,5
 162 -78 162 -78 118 -100 c 4,6,7
 116 -102 116 -102 114 -102 c 4,8,9
 105 -102 105 -102 105 -93 c 6,10,-1
 102 272 l 6,11,12
 102 280 102 280 111 280 c 6,13,-1
 118 280 l 6,14,15
 126 280 126 280 126 272 c 6,16,-1
 124 77 l 5,17,18
 140 99 140 99 175 99 c 4,19,20
 216 99 216 99 224 53 c 4,0,1
182 29 m 6,21,-1
 182 36 l 6,22,23
 182 70 182 70 159 70 c 4,24,25
 143 70 143 70 134 61.5 c 132,-1,26
 125 53 125 53 124 46 c 6,27,-1
 122 -72 l 5,28,29
 155 -47 155 -47 165 -31 c 4,30,31
 182 -5 182 -5 182 29 c 6,21,-1
EndSplineSet
Validated: 1
EndChar

StartChar: uniE025
Encoding: 57381 57381 44
Width: 0
Flags: W
LayerCount: 2
Fore
SplineSet
224 135 m 4,0,1
 225 130 225 130 225 120 c 4,2,3
 225 75 225 75 193 39 c 4,4,5
 160 2 160 2 118 -19 c 4,6,7
 117 -20 117 -20 114 -20 c 4,8,9
 105 -20 105 -20 105 -11 c 6,10,-1
 102 354 l 6,11,12
 102 362 102 362 111 362 c 6,13,-1
 118 362 l 6,14,15
 126 362 126 362 126 354 c 6,16,-1
 124 159 l 5,17,18
 140 181 140 181 175 181 c 4,19,20
 216 181 216 181 224 135 c 4,0,1
182 111 m 6,21,-1
 182 118 l 6,22,23
 182 151 182 151 159 151 c 4,24,25
 143 151 143 151 134 142.5 c 132,-1,26
 125 134 125 134 124 128 c 6,27,-1
 122 10 l 5,28,29
 155 35 155 35 165 51 c 4,30,31
 182 77 182 77 182 111 c 6,21,-1
EndSplineSet
Validated: 1
EndChar

StartChar: uniE026
Encoding: 57382 57382 45
Width: 0
Flags: W
LayerCount: 2
Fore
SplineSet
224 217 m 4,0,1
 225 212 225 212 225 202 c 4,2,3
 225 157 225 157 193 121 c 4,4,5
 160 84 160 84 118 63 c 4,6,7
 117 62 117 62 114 62 c 4,8,9
 105 62 105 62 105 71 c 6,10,-1
 102 436 l 6,11,12
 102 444 102 444 111 444 c 6,13,-1
 118 444 l 6,14,15
 126 444 126 444 126 436 c 6,16,-1
 124 241 l 5,17,18
 140 263 140 263 175 263 c 4,19,20
 216 263 216 263 224 217 c 4,0,1
182 193 m 6,21,-1
 182 200 l 6,22,23
 182 233 182 233 159 233 c 4,24,25
 143 233 143 233 134 224.5 c 132,-1,26
 125 216 125 216 124 210 c 6,27,-1
 122 92 l 5,28,29
 155 117 155 117 165 133 c 4,30,31
 182 159 182 159 182 193 c 6,21,-1
EndSplineSet
Validated: 1
EndChar

StartChar: uniE027
Encoding: 57383 57383 46
Width: 0
Flags: W
LayerCount: 2
Fore
SplineSet
224 299 m 4,0,1
 225 294 225 294 225 284 c 4,2,3
 225 239 225 239 193 203 c 4,4,5
 160 166 160 166 118 145 c 4,6,7
 117 144 117 144 114 144 c 4,8,9
 105 144 105 144 105 153 c 6,10,-1
 102 517 l 6,11,12
 102 526 102 526 111 526 c 6,13,-1
 118 526 l 6,14,15
 126 526 126 526 126 517 c 6,16,-1
 124 323 l 5,17,18
 140 345 140 345 175 345 c 4,19,20
 216 345 216 345 224 299 c 4,0,1
182 275 m 6,21,-1
 182 282 l 6,22,23
 182 315 182 315 159 315 c 4,24,25
 143 315 143 315 134 306.5 c 132,-1,26
 125 298 125 298 124 292 c 6,27,-1
 122 174 l 5,28,29
 155 199 155 199 165 215 c 4,30,31
 182 241 182 241 182 275 c 6,21,-1
EndSplineSet
Validated: 1
EndChar

StartChar: uniE028
Encoding: 57384 57384 47
Width: 0
Flags: W
LayerCount: 2
Fore
SplineSet
224 381 m 4,0,1
 225 376 225 376 225 366 c 4,2,3
 225 321 225 321 193 285 c 4,4,5
 160 248 160 248 118 227 c 4,6,7
 117 226 117 226 114 226 c 4,8,9
 105 226 105 226 105 234 c 6,10,-1
 102 599 l 6,11,12
 102 608 102 608 111 608 c 6,13,-1
 118 608 l 6,14,15
 126 608 126 608 126 599 c 6,16,-1
 124 404 l 5,17,18
 141 427 141 427 175 427 c 4,19,20
 216 427 216 427 224 381 c 4,0,1
182 357 m 6,21,-1
 182 364 l 6,22,23
 182 397 182 397 159 397 c 4,24,25
 143 397 143 397 134 388.5 c 132,-1,26
 125 380 125 380 124 374 c 6,27,-1
 122 256 l 5,28,29
 155 281 155 281 165 297 c 4,30,31
 182 323 182 323 182 357 c 6,21,-1
EndSplineSet
Validated: 1
EndChar

StartChar: uniE029
Encoding: 57385 57385 48
Width: 0
Flags: W
LayerCount: 2
Fore
SplineSet
224 463 m 4,0,1
 225 458 225 458 225 448 c 4,2,3
 225 403 225 403 193 367 c 4,4,5
 160 330 160 330 118 309 c 4,6,7
 117 308 117 308 114 308 c 4,8,9
 105 308 105 308 105 316 c 6,10,-1
 102 681 l 6,11,12
 102 690 102 690 111 690 c 6,13,-1
 118 690 l 6,14,15
 126 690 126 690 126 681 c 6,16,-1
 124 486 l 5,17,18
 141 509 141 509 175 509 c 4,19,20
 216 509 216 509 224 463 c 4,0,1
182 439 m 6,21,-1
 182 446 l 6,22,23
 182 479 182 479 159 479 c 4,24,25
 143 479 143 479 134 470.5 c 132,-1,26
 125 462 125 462 124 456 c 6,27,-1
 122 338 l 5,28,29
 155 363 155 363 165 379 c 4,30,31
 182 405 182 405 182 439 c 6,21,-1
EndSplineSet
Validated: 1
EndChar

StartChar: uniE02A
Encoding: 57386 57386 49
Width: 0
Flags: W
LayerCount: 2
Fore
SplineSet
224 545 m 4,0,1
 225 540 225 540 225 529 c 4,2,3
 225 485 225 485 193 449 c 4,4,5
 160 412 160 412 118 391 c 4,6,7
 117 390 117 390 114 390 c 4,8,9
 105 390 105 390 105 398 c 6,10,-1
 102 763 l 6,11,12
 102 772 102 772 111 772 c 6,13,-1
 118 772 l 6,14,15
 126 772 126 772 126 763 c 6,16,-1
 124 568 l 5,17,18
 141 591 141 591 175 591 c 4,19,20
 216 591 216 591 224 545 c 4,0,1
182 521 m 6,21,-1
 182 528 l 6,22,23
 182 561 182 561 159 561 c 4,24,25
 143 561 143 561 134 552.5 c 132,-1,26
 125 544 125 544 124 538 c 6,27,-1
 122 420 l 5,28,29
 155 445 155 445 165 461 c 4,30,31
 182 487 182 487 182 521 c 6,21,-1
EndSplineSet
Validated: 1
EndChar

StartChar: uniE02B
Encoding: 57387 57387 50
Width: 0
Flags: W
LayerCount: 2
Fore
SplineSet
224 627 m 4,0,1
 225 622 225 622 225 611 c 4,2,3
 225 567 225 567 193 531 c 4,4,5
 160 494 160 494 118 473 c 4,6,7
 117 472 117 472 114 472 c 4,8,9
 105 472 105 472 105 480 c 6,10,-1
 102 845 l 6,11,12
 102 854 102 854 111 854 c 6,13,-1
 118 854 l 6,14,15
 126 854 126 854 126 845 c 6,16,-1
 124 650 l 5,17,18
 141 673 141 673 175 673 c 4,19,20
 216 673 216 673 224 627 c 4,0,1
182 603 m 6,21,-1
 182 610 l 6,22,23
 182 643 182 643 159 643 c 4,24,25
 143 643 143 643 134 634.5 c 132,-1,26
 125 626 125 626 124 620 c 6,27,-1
 122 501 l 5,28,29
 154 525 154 525 165 543 c 4,30,31
 182 569 182 569 182 603 c 6,21,-1
EndSplineSet
Validated: 1
EndChar

StartChar: uniE02C
Encoding: 57388 57388 51
Width: 0
Flags: W
LayerCount: 2
Fore
SplineSet
224 708 m 4,0,1
 225 703 225 703 225 693 c 4,2,3
 225 649 225 649 193 613 c 4,4,5
 160 576 160 576 118 555 c 4,6,7
 117 554 117 554 114 554 c 4,8,9
 105 554 105 554 105 562 c 6,10,-1
 102 927 l 6,11,12
 102 936 102 936 111 936 c 6,13,-1
 118 936 l 6,14,15
 126 936 126 936 126 927 c 6,16,-1
 124 732 l 5,17,18
 141 755 141 755 175 755 c 4,19,20
 216 755 216 755 224 708 c 4,0,1
182 685 m 6,21,-1
 182 691 l 6,22,23
 182 725 182 725 159 725 c 4,24,25
 143 725 143 725 134 716.5 c 132,-1,26
 125 708 125 708 124 702 c 6,27,-1
 122 583 l 5,28,29
 154 607 154 607 165 625 c 4,30,31
 182 651 182 651 182 685 c 6,21,-1
EndSplineSet
Validated: 1
EndChar

StartChar: uniE02D
Encoding: 57389 57389 52
Width: 0
Flags: W
LayerCount: 2
Fore
SplineSet
224 790 m 4,0,1
 225 785 225 785 225 775 c 4,2,3
 225 730 225 730 193 694 c 4,4,5
 162 659 162 659 118 637 c 4,6,7
 117 636 117 636 114 636 c 4,8,9
 105 636 105 636 105 644 c 6,10,-1
 102 1009 l 6,11,12
 102 1017 102 1017 111 1017 c 6,13,-1
 118 1017 l 6,14,15
 126 1017 126 1017 126 1009 c 6,16,-1
 124 814 l 5,17,18
 141 837 141 837 175 837 c 4,19,20
 216 837 216 837 224 790 c 4,0,1
182 767 m 6,21,-1
 182 773 l 6,22,23
 182 807 182 807 159 807 c 4,24,25
 143 807 143 807 134 798.5 c 132,-1,26
 125 790 125 790 124 784 c 6,27,-1
 122 665 l 5,28,29
 154 689 154 689 165 707 c 4,30,31
 182 733 182 733 182 767 c 6,21,-1
EndSplineSet
Validated: 1
EndChar

StartChar: uniE02E
Encoding: 57390 57390 53
Width: 0
Flags: W
LayerCount: 2
Fore
SplineSet
224 872 m 4,0,1
 225 867 225 867 225 857 c 4,2,3
 225 812 225 812 193 776 c 4,4,5
 162 741 162 741 118 719 c 4,6,7
 116 717 116 717 114 717 c 4,8,9
 105 717 105 717 105 726 c 6,10,-1
 102 1091 l 6,11,12
 102 1099 102 1099 111 1099 c 6,13,-1
 118 1099 l 6,14,15
 126 1099 126 1099 126 1091 c 6,16,-1
 124 896 l 5,17,18
 140 918 140 918 175 918 c 4,19,20
 216 918 216 918 224 872 c 4,0,1
182 849 m 6,21,-1
 182 855 l 6,22,23
 182 889 182 889 159 889 c 4,24,25
 143 889 143 889 134 880.5 c 132,-1,26
 125 872 125 872 124 866 c 6,27,-1
 122 747 l 5,28,29
 154 771 154 771 165 789 c 4,30,31
 182 815 182 815 182 849 c 6,21,-1
EndSplineSet
Validated: 1
EndChar

StartChar: uniE02F
Encoding: 57391 57391 54
Width: 0
Flags: W
LayerCount: 2
Fore
SplineSet
224 954 m 4,0,1
 225 949 225 949 225 939 c 4,2,3
 225 894 225 894 193 858 c 4,4,5
 162 823 162 823 118 801 c 4,6,7
 116 799 116 799 114 799 c 4,8,9
 105 799 105 799 105 808 c 6,10,-1
 102 1173 l 6,11,12
 102 1181 102 1181 111 1181 c 6,13,-1
 118 1181 l 6,14,15
 126 1181 126 1181 126 1173 c 6,16,-1
 124 978 l 5,17,18
 140 1000 140 1000 175 1000 c 4,19,20
 216 1000 216 1000 224 954 c 4,0,1
182 931 m 6,21,-1
 182 937 l 6,22,23
 182 971 182 971 159 971 c 4,24,25
 143 971 143 971 134 962.5 c 132,-1,26
 125 954 125 954 124 948 c 6,27,-1
 122 829 l 5,28,29
 155 854 155 854 165 870 c 4,30,31
 182 896 182 896 182 931 c 6,21,-1
EndSplineSet
Validated: 1
EndChar

StartChar: uniE030
Encoding: 57392 57392 55
Width: 0
Flags: W
LayerCount: 2
Fore
SplineSet
224 1036 m 4,0,1
 225 1031 225 1031 225 1021 c 4,2,3
 225 976 225 976 193 940 c 4,4,5
 162 905 162 905 118 883 c 4,6,7
 116 881 116 881 114 881 c 4,8,9
 105 881 105 881 105 890 c 6,10,-1
 102 1255 l 6,11,12
 102 1263 102 1263 111 1263 c 6,13,-1
 118 1263 l 6,14,15
 126 1263 126 1263 126 1255 c 6,16,-1
 124 1060 l 5,17,18
 140 1082 140 1082 175 1082 c 4,19,20
 216 1082 216 1082 224 1036 c 4,0,1
182 1012 m 6,21,-1
 182 1019 l 6,22,23
 182 1053 182 1053 159 1053 c 4,24,25
 143 1053 143 1053 134 1044.5 c 132,-1,26
 125 1036 125 1036 124 1029 c 6,27,-1
 122 911 l 5,28,29
 155 936 155 936 165 952 c 4,30,31
 182 978 182 978 182 1012 c 6,21,-1
EndSplineSet
Validated: 1
EndChar

StartChar: uniE031
Encoding: 57393 57393 56
Width: 0
Flags: W
LayerCount: 2
Fore
SplineSet
224 1118 m 4,0,1
 225 1113 225 1113 225 1103 c 4,2,3
 225 1058 225 1058 193 1022 c 4,4,5
 160 985 160 985 118 964 c 4,6,7
 117 963 117 963 114 963 c 4,8,9
 105 963 105 963 105 972 c 6,10,-1
 102 1337 l 6,11,12
 102 1345 102 1345 111 1345 c 6,13,-1
 118 1345 l 6,14,15
 126 1345 126 1345 126 1337 c 6,16,-1
 124 1142 l 5,17,18
 140 1164 140 1164 175 1164 c 4,19,20
 216 1164 216 1164 224 1118 c 4,0,1
182 1094 m 6,21,-1
 182 1101 l 6,22,23
 182 1134 182 1134 159 1134 c 4,24,25
 143 1134 143 1134 134 1125.5 c 132,-1,26
 125 1117 125 1117 124 1111 c 6,27,-1
 122 993 l 5,28,29
 155 1018 155 1018 165 1034 c 4,30,31
 182 1060 182 1060 182 1094 c 6,21,-1
EndSplineSet
Validated: 1
EndChar

StartChar: uniE032
Encoding: 57394 57394 57
Width: 208
Flags: W
LayerCount: 2
Fore
SplineSet
206 261 m 0,0,1
 208 245 208 245 208 236 c 0,2,3
 208 160 208 160 154 99 c 128,-1,4
 100 38 100 38 28 2 c 0,5,6
 24 0 24 0 19 0 c 0,7,8
 5 0 5 0 5 14 c 2,9,-1
 0 630 l 2,10,11
 0 644 0 644 14 644 c 2,12,-1
 27 644 l 2,13,14
 41 644 41 644 41 630 c 2,15,-1
 37 301 l 1,16,17
 69 339 69 339 123 339 c 0,18,19
 159 339 159 339 180 316.5 c 128,-1,20
 201 294 201 294 206 261 c 0,0,1
135 221 m 2,21,-1
 135 232 l 2,22,23
 135 289 135 289 95 289 c 0,24,25
 68 289 68 289 54 275.5 c 128,-1,26
 40 262 40 262 37 250 c 2,27,-1
 34 50 l 1,28,29
 88 92 88 92 105 120 c 0,30,31
 135 165 135 165 135 221 c 2,21,-1
EndSplineSet
Validated: 1
EndChar

StartChar: uniE033
Encoding: 57395 57395 58
Width: 174
Flags: W
LayerCount: 2
Fore
SplineSet
122 463 m 0,0,1
 123 458 123 458 123 448 c 0,2,3
 123 403 123 403 91 367 c 0,4,5
 58 330 58 330 16 309 c 0,6,7
 15 308 15 308 11 308 c 0,8,9
 3 308 3 308 3 316 c 2,10,-1
 0 681 l 2,11,12
 0 690 0 690 8 690 c 2,13,-1
 15 690 l 2,14,15
 24 690 24 690 24 681 c 2,16,-1
 22 486 l 1,17,18
 39 509 39 509 73 509 c 0,19,20
 114 509 114 509 122 463 c 0,0,1
80 439 m 2,21,-1
 80 446 l 2,22,23
 80 479 80 479 56 479 c 0,24,25
 40 479 40 479 31.5 471 c 128,-1,26
 23 463 23 463 22 456 c 2,27,-1
 20 338 l 1,28,29
 51 361 51 361 62 379 c 0,30,31
 80 407 80 407 80 439 c 2,21,-1
EndSplineSet
Validated: 1
EndChar

StartChar: uniE040
Encoding: 57408 57408 59
Width: 295
Flags: W
LayerCount: 2
Fore
SplineSet
0 742 m 1,0,-1
 346 742 l 5,1,-1
 346 732 l 5,2,-1
 0 732 l 1,3,-1
 0 742 l 1,0,-1
0 579 m 1,4,-1
 346 579 l 5,5,-1
 346 568 l 5,6,-1
 0 568 l 1,7,-1
 0 579 l 1,4,-1
0 415 m 1,8,-1
 346 415 l 5,9,-1
 346 404 l 5,10,-1
 0 404 l 1,11,-1
 0 415 l 1,8,-1
0 251 m 1,12,-1
 346 251 l 5,13,-1
 346 241 l 5,14,-1
 0 241 l 1,15,-1
 0 251 l 1,12,-1
0 87 m 1,16,-1
 346 87 l 5,17,-1
 346 77 l 5,18,-1
 0 77 l 1,19,-1
 0 87 l 1,16,-1
EndSplineSet
Validated: 1
EndChar

StartChar: uniE041
Encoding: 57409 57409 60
Width: 0
Flags: W
LayerCount: 2
Fore
SplineSet
209 -119 m 0,0,1
 212 -120 212 -120 212 -126 c 2,2,-1
 212 -448 l 1,3,-1
 194 -448 l 1,4,-1
 194 -334 l 1,5,-1
 112 -357 l 1,6,-1
 110 -357 l 2,7,8
 101 -357 101 -357 101 -348 c 6,9,-1
 101 -27 l 1,10,-1
 119 -27 l 1,11,-1
 119 -140 l 1,12,-1
 201 -118 l 2,13,14
 202 -118 202 -118 202 -117.5 c 128,-1,15
 202 -117 202 -117 203 -117 c 0,16,17
 207 -117 207 -117 209 -119 c 0,0,1
194 -280 m 1,18,-1
 194 -173 l 1,19,-1
 119 -194 l 1,20,-1
 119 -301 l 1,21,-1
 194 -280 l 1,18,-1
EndSplineSet
Validated: 1
EndChar

StartChar: uniE042
Encoding: 57410 57410 61
Width: 0
Flags: W
LayerCount: 2
Fore
SplineSet
209 -37 m 4,0,1
 212 -38 212 -38 212 -44 c 6,2,-1
 212 -366 l 5,3,-1
 194 -366 l 5,4,-1
 194 -252 l 5,5,-1
 112 -275 l 5,6,-1
 110 -275 l 6,7,8
 101 -275 101 -275 101 -266 c 6,9,-1
 101 55 l 5,10,-1
 119 55 l 5,11,-1
 119 -58 l 5,12,-1
 201 -36 l 6,13,14
 202 -36 202 -36 202 -35.5 c 132,-1,15
 202 -35 202 -35 203 -35 c 4,16,17
 207 -35 207 -35 209 -37 c 4,0,1
194 -198 m 5,18,-1
 194 -91 l 5,19,-1
 119 -112 l 5,20,-1
 119 -219 l 5,21,-1
 194 -198 l 5,18,-1
EndSplineSet
Validated: 1
EndChar

StartChar: uniE043
Encoding: 57411 57411 62
Width: 0
Flags: W
LayerCount: 2
Fore
SplineSet
209 45 m 4,0,1
 212 44 212 44 212 38 c 6,2,-1
 212 -284 l 5,3,-1
 194 -284 l 5,4,-1
 194 -170 l 5,5,-1
 112 -193 l 5,6,-1
 110 -193 l 6,7,8
 101 -193 101 -193 101 -185 c 6,9,-1
 101 137 l 5,10,-1
 119 137 l 5,11,-1
 119 24 l 5,12,-1
 201 46 l 6,13,14
 202 46 202 46 202 46.5 c 132,-1,15
 202 47 202 47 203 47 c 4,16,17
 207 47 207 47 209 45 c 4,0,1
194 -116 m 5,18,-1
 194 -9 l 5,19,-1
 119 -30 l 5,20,-1
 119 -137 l 5,21,-1
 194 -116 l 5,18,-1
EndSplineSet
Validated: 1
EndChar

StartChar: uniE044
Encoding: 57412 57412 63
Width: 0
Flags: W
LayerCount: 2
Fore
SplineSet
209 127 m 4,0,1
 212 126 212 126 212 120 c 6,2,-1
 212 -202 l 5,3,-1
 194 -202 l 5,4,-1
 194 -88 l 5,5,-1
 112 -111 l 5,6,-1
 110 -111 l 6,7,8
 101 -111 101 -111 101 -103 c 6,9,-1
 101 219 l 5,10,-1
 119 219 l 5,11,-1
 119 105 l 5,12,-1
 201 128 l 6,13,14
 202 128 202 128 202 128.5 c 132,-1,15
 202 129 202 129 203 129 c 4,16,17
 207 129 207 129 209 127 c 4,0,1
194 -34 m 5,18,-1
 194 73 l 5,19,-1
 119 51 l 5,20,-1
 119 -55 l 5,21,-1
 194 -34 l 5,18,-1
EndSplineSet
Validated: 1
EndChar

StartChar: uniE045
Encoding: 57413 57413 64
Width: 0
Flags: W
LayerCount: 2
Fore
SplineSet
209 209 m 4,0,1
 212 208 212 208 212 202 c 6,2,-1
 212 -120 l 5,3,-1
 194 -120 l 5,4,-1
 194 -6 l 5,5,-1
 112 -29 l 5,6,-1
 110 -29 l 6,7,8
 101 -29 101 -29 101 -21 c 6,9,-1
 101 301 l 5,10,-1
 119 301 l 5,11,-1
 119 187 l 5,12,-1
 201 210 l 6,13,14
 202 210 202 210 202 210.5 c 132,-1,15
 202 211 202 211 203 211 c 4,16,17
 203 211 203 211 209 209 c 4,0,1
194 48 m 5,18,-1
 194 155 l 5,19,-1
 119 133 l 5,20,-1
 119 27 l 5,21,-1
 194 48 l 5,18,-1
EndSplineSet
Validated: 1
EndChar

StartChar: uniE046
Encoding: 57414 57414 65
Width: 0
Flags: W
LayerCount: 2
Fore
SplineSet
209 291 m 4,0,1
 212 290 212 290 212 284 c 6,2,-1
 212 -38 l 5,3,-1
 194 -38 l 5,4,-1
 194 76 l 5,5,-1
 112 53 l 5,6,-1
 110 53 l 6,7,8
 101 53 101 53 101 61 c 6,9,-1
 101 383 l 5,10,-1
 119 383 l 5,11,-1
 119 269 l 5,12,-1
 201 292 l 6,13,14
 202 292 202 292 202 292.5 c 132,-1,15
 202 293 202 293 203 293 c 4,16,17
 207 293 207 293 209 291 c 4,0,1
194 130 m 5,18,-1
 194 237 l 5,19,-1
 119 215 l 5,20,-1
 119 109 l 5,21,-1
 194 130 l 5,18,-1
EndSplineSet
Validated: 1
EndChar

StartChar: uniE047
Encoding: 57415 57415 66
Width: 0
Flags: W
LayerCount: 2
Fore
SplineSet
209 373 m 4,0,1
 212 372 212 372 212 366 c 6,2,-1
 212 44 l 5,3,-1
 194 44 l 5,4,-1
 194 157 l 5,5,-1
 112 135 l 5,6,-1
 110 135 l 6,7,8
 101 135 101 135 101 143 c 6,9,-1
 101 465 l 5,10,-1
 119 465 l 5,11,-1
 119 351 l 5,12,-1
 201 374 l 6,13,14
 202 374 202 374 202 374.5 c 132,-1,15
 202 375 202 375 203 375 c 4,16,17
 207 375 207 375 209 373 c 4,0,1
194 211 m 5,18,-1
 194 319 l 5,19,-1
 119 297 l 5,20,-1
 119 191 l 5,21,-1
 194 211 l 5,18,-1
EndSplineSet
Validated: 1
EndChar

StartChar: uniE048
Encoding: 57416 57416 67
Width: 0
Flags: W
LayerCount: 2
Fore
SplineSet
209 455 m 4,0,1
 212 454 212 454 212 447 c 6,2,-1
 212 126 l 5,3,-1
 194 126 l 5,4,-1
 194 239 l 5,5,-1
 112 217 l 5,6,-1
 110 217 l 6,7,8
 101 217 101 217 101 225 c 6,9,-1
 101 547 l 5,10,-1
 119 547 l 5,11,-1
 119 433 l 5,12,-1
 201 456 l 6,13,14
 202 456 202 456 202 456.5 c 132,-1,15
 202 457 202 457 203 457 c 4,16,17
 207 457 207 457 209 455 c 4,0,1
194 293 m 5,18,-1
 194 401 l 5,19,-1
 119 379 l 5,20,-1
 119 273 l 5,21,-1
 194 293 l 5,18,-1
EndSplineSet
Validated: 1
EndChar

StartChar: uniE049
Encoding: 57417 57417 68
Width: 0
Flags: W
LayerCount: 2
Fore
SplineSet
209 537 m 4,0,1
 212 536 212 536 212 529 c 6,2,-1
 212 207 l 5,3,-1
 194 207 l 5,4,-1
 194 321 l 5,5,-1
 112 299 l 5,6,-1
 110 299 l 6,7,8
 101 299 101 299 101 307 c 6,9,-1
 101 629 l 5,10,-1
 119 629 l 5,11,-1
 119 515 l 5,12,-1
 201 538 l 5,13,-1
 203 538 l 6,14,15
 208 538 208 538 209 537 c 4,0,1
194 375 m 5,16,-1
 194 483 l 5,17,-1
 119 461 l 5,18,-1
 119 354 l 5,19,-1
 194 375 l 5,16,-1
EndSplineSet
Validated: 1
EndChar

StartChar: uniE04A
Encoding: 57418 57418 69
Width: 0
Flags: W
LayerCount: 2
Fore
SplineSet
209 618 m 4,0,1
 212 616 212 616 212 611 c 6,2,-1
 212 289 l 5,3,-1
 194 289 l 5,4,-1
 194 403 l 5,5,-1
 112 380 l 5,6,-1
 110 380 l 6,7,8
 101 380 101 380 101 389 c 6,9,-1
 101 711 l 5,10,-1
 119 711 l 5,11,-1
 119 597 l 5,12,-1
 201 620 l 5,13,-1
 203 620 l 6,14,15
 207 620 207 620 209 618 c 4,0,1
194 457 m 5,16,-1
 194 564 l 5,17,-1
 119 543 l 5,18,-1
 119 436 l 5,19,-1
 194 457 l 5,16,-1
EndSplineSet
Validated: 1
EndChar

StartChar: uniE04B
Encoding: 57419 57419 70
Width: 0
Flags: W
LayerCount: 2
Fore
SplineSet
209 700 m 4,0,1
 212 698 212 698 212 693 c 6,2,-1
 212 371 l 5,3,-1
 194 371 l 5,4,-1
 194 485 l 5,5,-1
 112 462 l 5,6,-1
 110 462 l 6,7,8
 101 462 101 462 101 471 c 6,9,-1
 101 793 l 5,10,-1
 119 793 l 5,11,-1
 119 679 l 5,12,-1
 201 702 l 5,13,-1
 203 702 l 6,14,15
 207 702 207 702 209 700 c 4,0,1
194 539 m 5,16,-1
 194 646 l 5,17,-1
 119 625 l 5,18,-1
 119 518 l 5,19,-1
 194 539 l 5,16,-1
EndSplineSet
Validated: 1
EndChar

StartChar: uniE04C
Encoding: 57420 57420 71
Width: 0
Flags: W
LayerCount: 2
Fore
SplineSet
209 782 m 4,0,1
 212 780 212 780 212 775 c 6,2,-1
 212 453 l 5,3,-1
 194 453 l 5,4,-1
 194 567 l 5,5,-1
 112 544 l 5,6,-1
 110 544 l 6,7,8
 101 544 101 544 101 553 c 6,9,-1
 101 875 l 5,10,-1
 119 875 l 5,11,-1
 119 761 l 5,12,-1
 201 784 l 5,13,-1
 203 784 l 6,14,15
 207 784 207 784 209 782 c 4,0,1
194 621 m 5,16,-1
 194 728 l 5,17,-1
 119 707 l 5,18,-1
 119 600 l 5,19,-1
 194 621 l 5,16,-1
EndSplineSet
Validated: 1
EndChar

StartChar: uniE04D
Encoding: 57421 57421 72
Width: 0
Flags: W
LayerCount: 2
Fore
SplineSet
209 864 m 4,0,1
 212 862 212 862 212 857 c 6,2,-1
 212 535 l 5,3,-1
 194 535 l 5,4,-1
 194 649 l 5,5,-1
 112 626 l 5,6,-1
 110 626 l 6,7,8
 101 626 101 626 101 635 c 6,9,-1
 101 957 l 5,10,-1
 119 957 l 5,11,-1
 119 843 l 5,12,-1
 201 866 l 5,13,-1
 203 866 l 6,14,15
 207 866 207 866 209 864 c 4,0,1
194 703 m 5,16,-1
 194 810 l 5,17,-1
 119 789 l 5,18,-1
 119 682 l 5,19,-1
 194 703 l 5,16,-1
EndSplineSet
Validated: 1
EndChar

StartChar: uniE04E
Encoding: 57422 57422 73
Width: 0
Flags: W
LayerCount: 2
Fore
SplineSet
209 946 m 4,0,1
 212 944 212 944 212 939 c 6,2,-1
 212 617 l 5,3,-1
 194 617 l 5,4,-1
 194 731 l 5,5,-1
 112 708 l 5,6,-1
 110 708 l 6,7,8
 101 708 101 708 101 717 c 6,9,-1
 101 1038 l 5,10,-1
 119 1038 l 5,11,-1
 119 925 l 5,12,-1
 201 947 l 6,13,14
 202 947 202 947 202 947.5 c 132,-1,15
 202 948 202 948 203 948 c 4,16,17
 207 948 207 948 209 946 c 4,0,1
194 785 m 5,18,-1
 194 892 l 5,19,-1
 119 871 l 5,20,-1
 119 764 l 5,21,-1
 194 785 l 5,18,-1
EndSplineSet
Validated: 1
EndChar

StartChar: uniE04F
Encoding: 57423 57423 74
Width: 0
Flags: W
LayerCount: 2
Fore
SplineSet
209 1028 m 4,0,1
 212 1026 212 1026 212 1021 c 6,2,-1
 212 699 l 5,3,-1
 194 699 l 5,4,-1
 194 813 l 5,5,-1
 112 790 l 5,6,-1
 110 790 l 6,7,8
 101 790 101 790 101 799 c 6,9,-1
 101 1120 l 5,10,-1
 119 1120 l 5,11,-1
 119 1007 l 5,12,-1
 201 1029 l 6,13,14
 202 1029 202 1029 202 1029.5 c 132,-1,15
 202 1030 202 1030 203 1030 c 4,16,17
 207 1030 207 1030 209 1028 c 4,0,1
194 867 m 5,18,-1
 194 974 l 5,19,-1
 119 953 l 5,20,-1
 119 846 l 5,21,-1
 194 867 l 5,18,-1
EndSplineSet
Validated: 1
EndChar

StartChar: uniE050
Encoding: 57424 57424 75
Width: 0
Flags: W
LayerCount: 2
Fore
SplineSet
209 1110 m 4,0,1
 212 1108 212 1108 212 1103 c 6,2,-1
 212 781 l 5,3,-1
 194 781 l 5,4,-1
 194 895 l 5,5,-1
 112 872 l 5,6,-1
 110 872 l 6,7,8
 101 872 101 872 101 880 c 6,9,-1
 101 1202 l 5,10,-1
 119 1202 l 5,11,-1
 119 1089 l 5,12,-1
 201 1111 l 6,13,14
 202 1111 202 1111 202 1111.5 c 132,-1,15
 202 1112 202 1112 203 1112 c 4,16,17
 207 1112 207 1112 209 1110 c 4,0,1
194 949 m 5,18,-1
 194 1056 l 5,19,-1
 119 1035 l 5,20,-1
 119 928 l 5,21,-1
 194 949 l 5,18,-1
EndSplineSet
Validated: 1
EndChar

StartChar: uniE051
Encoding: 57425 57425 76
Width: 0
Flags: W
LayerCount: 2
Fore
SplineSet
209 1192 m 4,0,1
 212 1190 212 1190 212 1185 c 6,2,-1
 212 863 l 5,3,-1
 194 863 l 5,4,-1
 194 977 l 5,5,-1
 112 954 l 5,6,-1
 110 954 l 6,7,8
 101 954 101 954 101 962 c 6,9,-1
 101 1284 l 5,10,-1
 119 1284 l 5,11,-1
 119 1170 l 5,12,-1
 201 1193 l 6,13,14
 202 1193 202 1193 202 1193.5 c 132,-1,15
 202 1194 202 1194 203 1194 c 4,16,17
 207 1194 207 1194 209 1192 c 4,0,1
194 1031 m 5,18,-1
 194 1138 l 5,19,-1
 119 1116 l 5,20,-1
 119 1010 l 5,21,-1
 194 1031 l 5,18,-1
EndSplineSet
Validated: 1
EndChar

StartChar: uniE052
Encoding: 57426 57426 77
Width: 175
Flags: W
LayerCount: 2
Fore
SplineSet
170 486 m 0,0,1
 175 483 175 483 175 475 c 2,2,-1
 175 -32 l 1,3,-1
 147 -32 l 1,4,-1
 147 147 l 1,5,-1
 18 112 l 1,6,-1
 14 112 l 2,7,8
 0 112 0 112 0 125 c 2,9,-1
 0 632 l 1,10,-1
 29 632 l 1,11,-1
 29 453 l 1,12,-1
 158 488 l 1,13,14
 158 488 158 488 160 488 c 2,15,-1
 162 489 l 2,16,17
 167 489 167 489 170 486 c 0,0,1
147 232 m 1,18,-1
 147 401 l 1,19,-1
 29 368 l 1,20,-1
 29 200 l 1,21,-1
 147 232 l 1,18,-1
EndSplineSet
Validated: 1
EndChar

StartChar: uniE053
Encoding: 57427 57427 78
Width: 174
Flags: W
LayerCount: 2
Fore
SplineSet
108 537 m 0,0,1
 111 536 111 536 111 529 c 2,2,-1
 111 207 l 1,3,-1
 94 207 l 1,4,-1
 94 321 l 1,5,-1
 12 299 l 1,6,-1
 9 299 l 2,7,8
 0 299 0 299 0 307 c 2,9,-1
 0 629 l 1,10,-1
 18 629 l 1,11,-1
 18 515 l 1,12,-1
 100 538 l 1,13,14
 100 538 100 538 103 538 c 0,15,16
 107 538 107 538 108 537 c 0,0,1
94 375 m 1,17,-1
 94 483 l 1,18,-1
 18 461 l 1,19,-1
 18 354 l 1,20,-1
 94 375 l 1,17,-1
EndSplineSet
Validated: 1
EndChar

StartChar: uniE060
Encoding: 57440 57440 79
Width: 168
Flags: W
LayerCount: 2
Fore
SplineSet
0 742 m 1,0,-1
 219 742 l 1,1,-1
 219 732 l 1,2,-1
 0 732 l 1,3,-1
 0 742 l 1,0,-1
0 579 m 1,4,-1
 219 579 l 1,5,-1
 219 568 l 1,6,-1
 0 568 l 1,7,-1
 0 579 l 1,4,-1
0 415 m 1,8,-1
 219 415 l 1,9,-1
 219 404 l 1,10,-1
 0 404 l 1,11,-1
 0 415 l 1,8,-1
0 251 m 1,12,-1
 219 251 l 1,13,-1
 219 241 l 1,14,-1
 0 241 l 1,15,-1
 0 251 l 1,12,-1
0 87 m 1,16,-1
 219 87 l 1,17,-1
 219 77 l 1,18,-1
 0 77 l 1,19,-1
 0 87 l 1,16,-1
EndSplineSet
Validated: 1
EndChar

StartChar: uniE061
Encoding: 57441 57441 80
Width: 0
Flags: W
LayerCount: 2
Fore
SplineSet
209 -199 m 1,0,-1
 151 -211 l 1,1,-1
 151 -319 l 1,2,-1
 209 -307 l 1,3,-1
 209 -199 l 1,0,-1
151 -375 m 1,4,-1
 151 -476 l 1,5,-1
 133 -476 l 1,6,-1
 133 -379 l 1,7,-1
 111 -383 l 1,8,-1
 110 -383 l 2,9,10
 100 -383 100 -383 100 -374 c 2,11,-1
 100 -337 l 2,12,13
 100 -330 100 -330 108 -328 c 2,14,-1
 133 -322 l 1,15,-1
 133 -215 l 1,16,-1
 111 -220 l 1,17,-1
 110 -220 l 2,18,19
 100 -220 100 -220 100 -210 c 2,20,-1
 100 -174 l 1,21,-1
 100 -173 l 2,22,23
 100 -166 100 -166 108 -164 c 2,24,-1
 133 -158 l 1,25,-1
 133 -63 l 1,26,-1
 151 -63 l 1,27,-1
 151 -155 l 1,28,-1
 209 -143 l 1,29,-1
 209 -42 l 1,30,-1
 227 -42 l 1,31,-1
 227 -139 l 1,32,-1
 249 -134 l 1,33,-1
 250 -134 l 2,34,35
 259 -134 259 -134 259 -143 c 2,36,-1
 259 -182 l 2,37,38
 259 -189 259 -189 252 -191 c 2,39,-1
 227 -196 l 1,40,-1
 227 -303 l 1,41,-1
 249 -298 l 1,42,-1
 250 -298 l 2,43,44
 259 -298 259 -298 259 -307 c 2,45,-1
 259 -346 l 2,46,47
 259 -353 259 -353 252 -355 c 2,48,-1
 227 -359 l 1,49,-1
 227 -455 l 1,50,-1
 209 -455 l 1,51,-1
 209 -363 l 1,52,-1
 151 -375 l 1,4,-1
EndSplineSet
Validated: 1
EndChar

StartChar: uniE062
Encoding: 57442 57442 81
Width: 0
Flags: W
LayerCount: 2
Fore
SplineSet
209 -118 m 5,0,-1
 151 -129 l 5,1,-1
 151 -237 l 5,2,-1
 209 -225 l 5,3,-1
 209 -118 l 5,0,-1
151 -293 m 5,4,-1
 151 -394 l 5,5,-1
 133 -394 l 5,6,-1
 133 -297 l 5,7,-1
 111 -302 l 5,8,-1
 110 -302 l 6,9,10
 100 -302 100 -302 100 -292 c 6,11,-1
 100 -255 l 6,12,13
 100 -248 100 -248 108 -246 c 6,14,-1
 133 -240 l 5,15,-1
 133 -133 l 5,16,-1
 111 -138 l 5,17,-1
 110 -138 l 6,18,19
 100 -138 100 -138 100 -129 c 6,20,-1
 100 -92 l 5,21,-1
 100 -91 l 6,22,23
 100 -84 100 -84 108 -82 c 6,24,-1
 133 -77 l 5,25,-1
 133 19 l 5,26,-1
 151 19 l 5,27,-1
 151 -73 l 5,28,-1
 209 -61 l 5,29,-1
 209 40 l 5,30,-1
 227 40 l 5,31,-1
 227 -57 l 5,32,-1
 249 -52 l 5,33,-1
 250 -52 l 6,34,35
 259 -52 259 -52 259 -62 c 6,36,-1
 259 -100 l 6,37,38
 259 -107 259 -107 252 -109 c 6,39,-1
 227 -114 l 5,40,-1
 227 -221 l 5,41,-1
 249 -216 l 5,42,-1
 250 -216 l 6,43,44
 259 -216 259 -216 259 -225 c 6,45,-1
 259 -264 l 6,46,47
 259 -271 259 -271 252 -273 c 6,48,-1
 227 -278 l 5,49,-1
 227 -373 l 5,50,-1
 209 -373 l 5,51,-1
 209 -281 l 5,52,-1
 151 -293 l 5,4,-1
EndSplineSet
Validated: 1
EndChar

StartChar: uniE063
Encoding: 57443 57443 82
Width: 0
Flags: W
LayerCount: 2
Fore
SplineSet
209 -36 m 5,0,-1
 151 -47 l 5,1,-1
 151 -155 l 5,2,-1
 209 -143 l 5,3,-1
 209 -36 l 5,0,-1
151 -211 m 5,4,-1
 151 -312 l 5,5,-1
 133 -312 l 5,6,-1
 133 -215 l 5,7,-1
 111 -220 l 5,8,-1
 110 -220 l 6,9,10
 100 -220 100 -220 100 -211 c 6,11,-1
 100 -173 l 6,12,13
 100 -166 100 -166 108 -164 c 6,14,-1
 133 -159 l 5,15,-1
 133 -51 l 5,16,-1
 111 -56 l 5,17,-1
 110 -56 l 6,18,19
 100 -56 100 -56 100 -47 c 6,20,-1
 100 -10 l 5,21,-1
 100 -9 l 6,22,23
 100 -2 100 -2 108 0 c 6,24,-1
 133 5 l 5,25,-1
 133 101 l 5,26,-1
 151 101 l 5,27,-1
 151 9 l 5,28,-1
 209 21 l 5,29,-1
 209 122 l 5,30,-1
 227 122 l 5,31,-1
 227 25 l 5,32,-1
 249 29 l 5,33,-1
 250 29 l 6,34,35
 259 29 259 29 259 20 c 6,36,-1
 259 -18 l 6,37,38
 259 -25 259 -25 252 -27 c 6,39,-1
 227 -32 l 5,40,-1
 227 -139 l 5,41,-1
 249 -134 l 5,42,-1
 250 -134 l 6,43,44
 259 -134 259 -134 259 -144 c 6,45,-1
 259 -182 l 6,46,47
 259 -189 259 -189 252 -191 c 6,48,-1
 227 -196 l 5,49,-1
 227 -291 l 5,50,-1
 209 -291 l 5,51,-1
 209 -199 l 5,52,-1
 151 -211 l 5,4,-1
EndSplineSet
Validated: 1
EndChar

StartChar: uniE064
Encoding: 57444 57444 83
Width: 0
Flags: W
LayerCount: 2
Fore
SplineSet
209 46 m 5,0,-1
 151 35 l 5,1,-1
 151 -73 l 5,2,-1
 209 -61 l 5,3,-1
 209 46 l 5,0,-1
151 -129 m 5,4,-1
 151 -230 l 5,5,-1
 133 -230 l 5,6,-1
 133 -133 l 5,7,-1
 111 -138 l 5,8,-1
 110 -138 l 6,9,10
 100 -138 100 -138 100 -129 c 6,11,-1
 100 -91 l 6,12,13
 100 -84 100 -84 108 -82 c 6,14,-1
 133 -77 l 5,15,-1
 133 31 l 5,16,-1
 111 26 l 5,17,-1
 110 26 l 6,18,19
 100 26 100 26 100 35 c 6,20,-1
 100 72 l 5,21,-1
 100 73 l 6,22,23
 100 80 100 80 108 82 c 6,24,-1
 133 87 l 5,25,-1
 133 183 l 5,26,-1
 151 183 l 5,27,-1
 151 91 l 5,28,-1
 209 103 l 5,29,-1
 209 204 l 5,30,-1
 227 204 l 5,31,-1
 227 107 l 5,32,-1
 249 111 l 5,33,-1
 250 111 l 6,34,35
 259 111 259 111 259 102 c 6,36,-1
 259 64 l 6,37,38
 259 57 259 57 252 55 c 6,39,-1
 227 50 l 5,40,-1
 227 -57 l 5,41,-1
 249 -53 l 5,42,-1
 250 -53 l 6,43,44
 259 -53 259 -53 259 -62 c 6,45,-1
 259 -100 l 6,46,47
 259 -107 259 -107 252 -109 c 6,48,-1
 227 -114 l 5,49,-1
 227 -209 l 5,50,-1
 209 -209 l 5,51,-1
 209 -118 l 5,52,-1
 151 -129 l 5,4,-1
EndSplineSet
Validated: 1
EndChar

StartChar: uniE065
Encoding: 57445 57445 84
Width: 0
Flags: W
LayerCount: 2
Fore
SplineSet
209 128 m 5,0,-1
 151 117 l 5,1,-1
 151 9 l 5,2,-1
 209 21 l 5,3,-1
 209 128 l 5,0,-1
151 -47 m 5,4,-1
 151 -148 l 5,5,-1
 133 -148 l 5,6,-1
 133 -51 l 5,7,-1
 111 -56 l 5,8,-1
 110 -56 l 6,9,10
 100 -56 100 -56 100 -47 c 6,11,-1
 100 -9 l 6,12,13
 100 -2 100 -2 108 0 c 6,14,-1
 133 5 l 5,15,-1
 133 113 l 5,16,-1
 111 108 l 5,17,-1
 110 108 l 6,18,19
 100 108 100 108 100 117 c 6,20,-1
 100 154 l 5,21,-1
 100 155 l 6,22,23
 100 162 100 162 108 164 c 6,24,-1
 133 169 l 5,25,-1
 133 265 l 5,26,-1
 151 265 l 5,27,-1
 151 173 l 5,28,-1
 209 185 l 5,29,-1
 209 286 l 5,30,-1
 227 286 l 5,31,-1
 227 189 l 5,32,-1
 249 193 l 5,33,-1
 250 193 l 6,34,35
 259 193 259 193 259 184 c 6,36,-1
 259 146 l 6,37,38
 259 139 259 139 252 137 c 6,39,-1
 227 132 l 5,40,-1
 227 25 l 5,41,-1
 249 29 l 5,42,-1
 250 29 l 6,43,44
 259 29 259 29 259 20 c 6,45,-1
 259 -18 l 6,46,47
 259 -25 259 -25 252 -27 c 6,48,-1
 227 -32 l 5,49,-1
 227 -127 l 5,50,-1
 209 -127 l 5,51,-1
 209 -36 l 5,52,-1
 151 -47 l 5,4,-1
EndSplineSet
Validated: 1
EndChar

StartChar: uniE066
Encoding: 57446 57446 85
Width: 0
Flags: W
LayerCount: 2
Fore
SplineSet
209 210 m 5,0,-1
 151 198 l 5,1,-1
 151 90 l 5,2,-1
 209 103 l 5,3,-1
 209 210 l 5,0,-1
151 35 m 5,4,-1
 151 -66 l 5,5,-1
 133 -66 l 5,6,-1
 133 31 l 5,7,-1
 111 26 l 5,8,-1
 110 26 l 6,9,10
 100 26 100 26 100 35 c 6,11,-1
 100 73 l 6,12,13
 100 80 100 80 108 82 c 6,14,-1
 133 87 l 5,15,-1
 133 195 l 5,16,-1
 111 190 l 5,17,-1
 110 190 l 6,18,19
 100 190 100 190 100 199 c 6,20,-1
 100 236 l 5,21,-1
 100 237 l 6,22,23
 100 244 100 244 108 246 c 6,24,-1
 133 251 l 5,25,-1
 133 347 l 5,26,-1
 151 347 l 5,27,-1
 151 255 l 5,28,-1
 209 267 l 5,29,-1
 209 368 l 5,30,-1
 227 368 l 5,31,-1
 227 271 l 5,32,-1
 249 275 l 5,33,-1
 250 275 l 6,34,35
 259 275 259 275 259 266 c 6,36,-1
 259 228 l 6,37,38
 259 221 259 221 252 219 c 6,39,-1
 227 214 l 5,40,-1
 227 107 l 5,41,-1
 249 111 l 5,42,-1
 250 111 l 6,43,44
 259 111 259 111 259 102 c 6,45,-1
 259 64 l 6,46,47
 259 57 259 57 252 55 c 6,48,-1
 227 50 l 5,49,-1
 227 -45 l 5,50,-1
 209 -45 l 5,51,-1
 209 46 l 5,52,-1
 151 35 l 5,4,-1
EndSplineSet
Validated: 1
EndChar

StartChar: uniE067
Encoding: 57447 57447 86
Width: 0
Flags: W
LayerCount: 2
Fore
SplineSet
209 292 m 5,0,-1
 151 280 l 5,1,-1
 151 172 l 5,2,-1
 209 185 l 5,3,-1
 209 292 l 5,0,-1
151 116 m 5,4,-1
 151 16 l 5,5,-1
 133 16 l 5,6,-1
 133 113 l 5,7,-1
 111 108 l 5,8,-1
 110 108 l 6,9,10
 100 108 100 108 100 117 c 6,11,-1
 100 155 l 6,12,13
 100 162 100 162 108 164 c 6,14,-1
 133 169 l 5,15,-1
 133 276 l 5,16,-1
 111 272 l 5,17,-1
 110 272 l 6,18,19
 100 272 100 272 100 281 c 6,20,-1
 100 317 l 5,21,-1
 100 319 l 6,22,23
 100 326 100 326 108 328 c 6,24,-1
 133 333 l 5,25,-1
 133 429 l 5,26,-1
 151 429 l 5,27,-1
 151 337 l 5,28,-1
 209 349 l 5,29,-1
 209 449 l 5,30,-1
 227 449 l 5,31,-1
 227 353 l 5,32,-1
 249 357 l 5,33,-1
 250 357 l 6,34,35
 259 357 259 357 259 348 c 6,36,-1
 259 310 l 6,37,38
 259 303 259 303 252 301 c 6,39,-1
 227 296 l 5,40,-1
 227 189 l 5,41,-1
 249 193 l 5,42,-1
 250 193 l 6,43,44
 259 193 259 193 259 184 c 6,45,-1
 259 146 l 6,46,47
 259 139 259 139 252 137 c 6,48,-1
 227 132 l 5,49,-1
 227 36 l 5,50,-1
 209 36 l 5,51,-1
 209 128 l 5,52,-1
 151 116 l 5,4,-1
EndSplineSet
Validated: 1
EndChar

StartChar: uniE068
Encoding: 57448 57448 87
Width: 0
Flags: W
LayerCount: 2
Fore
SplineSet
209 374 m 5,0,-1
 151 362 l 5,1,-1
 151 254 l 5,2,-1
 209 267 l 5,3,-1
 209 374 l 5,0,-1
151 198 m 5,4,-1
 151 98 l 5,5,-1
 133 98 l 5,6,-1
 133 194 l 5,7,-1
 111 190 l 5,8,-1
 110 190 l 6,9,10
 100 190 100 190 100 199 c 6,11,-1
 100 237 l 6,12,13
 100 244 100 244 108 246 c 6,14,-1
 133 251 l 5,15,-1
 133 358 l 5,16,-1
 111 354 l 5,17,-1
 110 354 l 6,18,19
 100 354 100 354 100 363 c 6,20,-1
 100 399 l 5,21,-1
 100 401 l 6,22,23
 100 408 100 408 108 410 c 6,24,-1
 133 415 l 5,25,-1
 133 511 l 5,26,-1
 151 511 l 5,27,-1
 151 419 l 5,28,-1
 209 431 l 5,29,-1
 209 531 l 5,30,-1
 227 531 l 5,31,-1
 227 435 l 5,32,-1
 249 439 l 5,33,-1
 250 439 l 6,34,35
 259 439 259 439 259 430 c 6,36,-1
 259 392 l 6,37,38
 259 384 259 384 252 382 c 6,39,-1
 227 378 l 5,40,-1
 227 271 l 5,41,-1
 249 275 l 5,42,-1
 250 275 l 6,43,44
 259 275 259 275 259 266 c 6,45,-1
 259 228 l 6,46,47
 259 221 259 221 252 219 c 6,48,-1
 227 214 l 5,49,-1
 227 118 l 5,50,-1
 209 118 l 5,51,-1
 209 210 l 5,52,-1
 151 198 l 5,4,-1
EndSplineSet
Validated: 1
EndChar

StartChar: uniE069
Encoding: 57449 57449 88
Width: 0
Flags: W
LayerCount: 2
Fore
SplineSet
209 456 m 5,0,-1
 151 444 l 5,1,-1
 151 336 l 5,2,-1
 209 349 l 5,3,-1
 209 456 l 5,0,-1
151 280 m 5,4,-1
 151 180 l 5,5,-1
 133 180 l 5,6,-1
 133 276 l 5,7,-1
 111 272 l 5,8,-1
 110 272 l 6,9,10
 100 272 100 272 100 281 c 6,11,-1
 100 319 l 6,12,13
 100 326 100 326 108 328 c 6,14,-1
 133 333 l 5,15,-1
 133 440 l 5,16,-1
 111 436 l 5,17,-1
 110 436 l 6,18,19
 100 436 100 436 100 445 c 6,20,-1
 100 481 l 5,21,-1
 100 483 l 6,22,23
 100 490 100 490 108 492 c 6,24,-1
 133 497 l 5,25,-1
 133 593 l 5,26,-1
 151 593 l 5,27,-1
 151 501 l 5,28,-1
 209 513 l 5,29,-1
 209 613 l 5,30,-1
 227 613 l 5,31,-1
 227 516 l 5,32,-1
 249 521 l 5,33,-1
 250 521 l 6,34,35
 259 521 259 521 259 512 c 6,36,-1
 259 473 l 6,37,38
 259 466 259 466 252 464 c 6,39,-1
 227 460 l 5,40,-1
 227 353 l 5,41,-1
 249 357 l 5,42,-1
 250 357 l 6,43,44
 259 357 259 357 259 348 c 6,45,-1
 259 310 l 6,46,47
 259 302 259 302 252 300 c 6,48,-1
 227 296 l 5,49,-1
 227 200 l 5,50,-1
 209 200 l 5,51,-1
 209 292 l 5,52,-1
 151 280 l 5,4,-1
EndSplineSet
Validated: 1
EndChar

StartChar: uniE06A
Encoding: 57450 57450 89
Width: 0
Flags: W
LayerCount: 2
Fore
SplineSet
209 538 m 5,0,-1
 151 526 l 5,1,-1
 151 418 l 5,2,-1
 209 431 l 5,3,-1
 209 538 l 5,0,-1
151 362 m 5,4,-1
 151 261 l 5,5,-1
 133 261 l 5,6,-1
 133 358 l 5,7,-1
 111 354 l 5,8,-1
 110 354 l 6,9,10
 100 354 100 354 100 363 c 6,11,-1
 100 401 l 6,12,13
 100 408 100 408 108 410 c 6,14,-1
 133 415 l 5,15,-1
 133 522 l 5,16,-1
 111 518 l 5,17,-1
 110 518 l 6,18,19
 100 518 100 518 100 527 c 6,20,-1
 100 563 l 5,21,-1
 100 565 l 6,22,23
 100 572 100 572 108 574 c 6,24,-1
 133 579 l 5,25,-1
 133 674 l 5,26,-1
 151 674 l 5,27,-1
 151 583 l 5,28,-1
 209 594 l 5,29,-1
 209 695 l 5,30,-1
 227 695 l 5,31,-1
 227 598 l 5,32,-1
 249 603 l 5,33,-1
 250 603 l 6,34,35
 259 603 259 603 259 594 c 6,36,-1
 259 555 l 6,37,38
 259 548 259 548 252 546 c 6,39,-1
 227 542 l 5,40,-1
 227 434 l 5,41,-1
 249 439 l 5,42,-1
 250 439 l 6,43,44
 259 439 259 439 259 430 c 6,45,-1
 259 392 l 6,46,47
 259 384 259 384 252 382 c 6,48,-1
 227 378 l 5,49,-1
 227 282 l 5,50,-1
 209 282 l 5,51,-1
 209 374 l 5,52,-1
 151 362 l 5,4,-1
EndSplineSet
Validated: 1
EndChar

StartChar: uniE06B
Encoding: 57451 57451 90
Width: 0
Flags: W
LayerCount: 2
Fore
SplineSet
209 620 m 5,0,-1
 151 608 l 5,1,-1
 151 500 l 5,2,-1
 209 512 l 5,3,-1
 209 620 l 5,0,-1
151 444 m 5,4,-1
 151 343 l 5,5,-1
 133 343 l 5,6,-1
 133 440 l 5,7,-1
 111 436 l 5,8,-1
 110 436 l 6,9,10
 100 436 100 436 100 445 c 6,11,-1
 100 483 l 6,12,13
 100 490 100 490 108 492 c 6,14,-1
 133 497 l 5,15,-1
 133 604 l 5,16,-1
 111 600 l 5,17,-1
 110 600 l 6,18,19
 100 600 100 600 100 609 c 6,20,-1
 100 645 l 5,21,-1
 100 646 l 6,22,23
 100 654 100 654 108 656 c 6,24,-1
 133 661 l 5,25,-1
 133 756 l 5,26,-1
 151 756 l 5,27,-1
 151 665 l 5,28,-1
 209 676 l 5,29,-1
 209 777 l 5,30,-1
 227 777 l 5,31,-1
 227 680 l 5,32,-1
 249 685 l 5,33,-1
 250 685 l 6,34,35
 259 685 259 685 259 676 c 6,36,-1
 259 637 l 6,37,38
 259 630 259 630 252 628 c 6,39,-1
 227 624 l 5,40,-1
 227 516 l 5,41,-1
 249 521 l 5,42,-1
 250 521 l 6,43,44
 259 521 259 521 259 512 c 6,45,-1
 259 473 l 6,46,47
 259 466 259 466 252 464 c 6,48,-1
 227 460 l 5,49,-1
 227 364 l 5,50,-1
 209 364 l 5,51,-1
 209 456 l 5,52,-1
 151 444 l 5,4,-1
EndSplineSet
Validated: 1
EndChar

StartChar: uniE06C
Encoding: 57452 57452 91
Width: 0
Flags: W
LayerCount: 2
Fore
SplineSet
209 702 m 5,0,-1
 151 690 l 5,1,-1
 151 582 l 5,2,-1
 209 594 l 5,3,-1
 209 702 l 5,0,-1
151 526 m 5,4,-1
 151 425 l 5,5,-1
 133 425 l 5,6,-1
 133 522 l 5,7,-1
 111 518 l 5,8,-1
 110 518 l 6,9,10
 100 518 100 518 100 527 c 6,11,-1
 100 564 l 6,12,13
 100 572 100 572 108 574 c 6,14,-1
 133 579 l 5,15,-1
 133 686 l 5,16,-1
 111 682 l 5,17,-1
 110 682 l 6,18,19
 100 682 100 682 100 691 c 6,20,-1
 100 727 l 5,21,-1
 100 728 l 6,22,23
 100 735 100 735 108 737 c 6,24,-1
 133 743 l 5,25,-1
 133 838 l 5,26,-1
 151 838 l 5,27,-1
 151 747 l 5,28,-1
 209 758 l 5,29,-1
 209 859 l 5,30,-1
 227 859 l 5,31,-1
 227 762 l 5,32,-1
 249 767 l 5,33,-1
 250 767 l 6,34,35
 259 767 259 767 259 758 c 6,36,-1
 259 719 l 6,37,38
 259 712 259 712 252 710 c 6,39,-1
 227 706 l 5,40,-1
 227 598 l 5,41,-1
 249 603 l 5,42,-1
 250 603 l 6,43,44
 259 603 259 603 259 594 c 6,45,-1
 259 555 l 6,46,47
 259 548 259 548 252 546 c 6,48,-1
 227 542 l 5,49,-1
 227 446 l 5,50,-1
 209 446 l 5,51,-1
 209 538 l 5,52,-1
 151 526 l 5,4,-1
EndSplineSet
Validated: 1
EndChar

StartChar: uniE06D
Encoding: 57453 57453 92
Width: 0
Flags: W
LayerCount: 2
Fore
SplineSet
209 784 m 5,0,-1
 151 772 l 5,1,-1
 151 664 l 5,2,-1
 209 676 l 5,3,-1
 209 784 l 5,0,-1
151 608 m 5,4,-1
 151 507 l 5,5,-1
 133 507 l 5,6,-1
 133 604 l 5,7,-1
 111 600 l 5,8,-1
 110 600 l 6,9,10
 100 600 100 600 100 609 c 6,11,-1
 100 646 l 6,12,13
 100 653 100 653 108 655 c 6,14,-1
 133 661 l 5,15,-1
 133 768 l 5,16,-1
 111 763 l 5,17,-1
 110 763 l 6,18,19
 100 763 100 763 100 773 c 6,20,-1
 100 809 l 5,21,-1
 100 810 l 6,22,23
 100 817 100 817 108 819 c 6,24,-1
 133 825 l 5,25,-1
 133 920 l 5,26,-1
 151 920 l 5,27,-1
 151 828 l 5,28,-1
 209 840 l 5,29,-1
 209 941 l 5,30,-1
 227 941 l 5,31,-1
 227 844 l 5,32,-1
 249 849 l 5,33,-1
 250 849 l 6,34,35
 259 849 259 849 259 840 c 6,36,-1
 259 801 l 6,37,38
 259 794 259 794 252 792 c 6,39,-1
 227 788 l 5,40,-1
 227 680 l 5,41,-1
 249 685 l 5,42,-1
 250 685 l 6,43,44
 259 685 259 685 259 676 c 6,45,-1
 259 637 l 6,46,47
 259 630 259 630 252 628 c 6,48,-1
 227 624 l 5,49,-1
 227 528 l 5,50,-1
 209 528 l 5,51,-1
 209 620 l 5,52,-1
 151 608 l 5,4,-1
EndSplineSet
Validated: 1
EndChar

StartChar: uniE06E
Encoding: 57454 57454 93
Width: 0
Flags: W
LayerCount: 2
Fore
SplineSet
209 866 m 5,0,-1
 151 854 l 5,1,-1
 151 746 l 5,2,-1
 209 758 l 5,3,-1
 209 866 l 5,0,-1
151 690 m 5,4,-1
 151 589 l 5,5,-1
 133 589 l 5,6,-1
 133 686 l 5,7,-1
 111 681 l 5,8,-1
 110 681 l 6,9,10
 100 681 100 681 100 691 c 6,11,-1
 100 728 l 6,12,13
 100 735 100 735 108 737 c 6,14,-1
 133 743 l 5,15,-1
 133 850 l 5,16,-1
 111 845 l 5,17,-1
 110 845 l 6,18,19
 100 845 100 845 100 854 c 6,20,-1
 100 891 l 5,21,-1
 100 892 l 6,22,23
 100 899 100 899 108 901 c 6,24,-1
 133 907 l 5,25,-1
 133 1002 l 5,26,-1
 151 1002 l 5,27,-1
 151 910 l 5,28,-1
 209 922 l 5,29,-1
 209 1023 l 5,30,-1
 227 1023 l 5,31,-1
 227 926 l 5,32,-1
 249 931 l 5,33,-1
 250 931 l 6,34,35
 259 931 259 931 259 921 c 6,36,-1
 259 883 l 6,37,38
 259 876 259 876 252 874 c 6,39,-1
 227 869 l 5,40,-1
 227 762 l 5,41,-1
 249 767 l 5,42,-1
 250 767 l 6,43,44
 259 767 259 767 259 758 c 6,45,-1
 259 719 l 6,46,47
 259 712 259 712 252 710 c 6,48,-1
 227 706 l 5,49,-1
 227 610 l 5,50,-1
 209 610 l 5,51,-1
 209 702 l 5,52,-1
 151 690 l 5,4,-1
EndSplineSet
Validated: 1
EndChar

StartChar: uniE06F
Encoding: 57455 57455 94
Width: 0
Flags: W
LayerCount: 2
Fore
SplineSet
209 947 m 5,0,-1
 151 936 l 5,1,-1
 151 828 l 5,2,-1
 209 840 l 5,3,-1
 209 947 l 5,0,-1
151 772 m 5,4,-1
 151 671 l 5,5,-1
 133 671 l 5,6,-1
 133 768 l 5,7,-1
 111 763 l 5,8,-1
 110 763 l 6,9,10
 100 763 100 763 100 772 c 6,11,-1
 100 810 l 6,12,13
 100 817 100 817 108 819 c 6,14,-1
 133 825 l 5,15,-1
 133 932 l 5,16,-1
 111 927 l 5,17,-1
 110 927 l 6,18,19
 100 927 100 927 100 936 c 6,20,-1
 100 973 l 5,21,-1
 100 974 l 6,22,23
 100 981 100 981 108 983 c 6,24,-1
 133 988 l 5,25,-1
 133 1084 l 5,26,-1
 151 1084 l 5,27,-1
 151 992 l 5,28,-1
 209 1004 l 5,29,-1
 209 1105 l 5,30,-1
 227 1105 l 5,31,-1
 227 1008 l 5,32,-1
 249 1012 l 5,33,-1
 250 1012 l 6,34,35
 259 1012 259 1012 259 1003 c 6,36,-1
 259 965 l 6,37,38
 259 958 259 958 252 956 c 6,39,-1
 227 951 l 5,40,-1
 227 844 l 5,41,-1
 249 849 l 5,42,-1
 250 849 l 6,43,44
 259 849 259 849 259 839 c 6,45,-1
 259 801 l 6,46,47
 259 794 259 794 252 792 c 6,48,-1
 227 787 l 5,49,-1
 227 692 l 5,50,-1
 209 692 l 5,51,-1
 209 784 l 5,52,-1
 151 772 l 5,4,-1
EndSplineSet
Validated: 1
EndChar

StartChar: uniE070
Encoding: 57456 57456 95
Width: 0
Flags: W
LayerCount: 2
Fore
SplineSet
209 1029 m 5,0,-1
 151 1018 l 5,1,-1
 151 910 l 5,2,-1
 209 922 l 5,3,-1
 209 1029 l 5,0,-1
151 854 m 5,4,-1
 151 753 l 5,5,-1
 133 753 l 5,6,-1
 133 850 l 5,7,-1
 111 845 l 5,8,-1
 110 845 l 6,9,10
 100 845 100 845 100 854 c 6,11,-1
 100 892 l 6,12,13
 100 899 100 899 108 901 c 6,14,-1
 133 906 l 5,15,-1
 133 1014 l 5,16,-1
 111 1009 l 5,17,-1
 110 1009 l 6,18,19
 100 1009 100 1009 100 1018 c 6,20,-1
 100 1055 l 5,21,-1
 100 1056 l 6,22,23
 100 1063 100 1063 108 1065 c 6,24,-1
 133 1070 l 5,25,-1
 133 1166 l 5,26,-1
 151 1166 l 5,27,-1
 151 1074 l 5,28,-1
 209 1086 l 5,29,-1
 209 1187 l 5,30,-1
 227 1187 l 5,31,-1
 227 1090 l 5,32,-1
 249 1094 l 5,33,-1
 250 1094 l 6,34,35
 259 1094 259 1094 259 1085 c 6,36,-1
 259 1047 l 6,37,38
 259 1040 259 1040 252 1038 c 6,39,-1
 227 1033 l 5,40,-1
 227 926 l 5,41,-1
 249 931 l 5,42,-1
 250 931 l 6,43,44
 259 931 259 931 259 921 c 6,45,-1
 259 883 l 6,46,47
 259 876 259 876 252 874 c 6,48,-1
 227 869 l 5,49,-1
 227 774 l 5,50,-1
 209 774 l 5,51,-1
 209 865 l 5,52,-1
 151 854 l 5,4,-1
EndSplineSet
Validated: 1
EndChar

StartChar: uniE071
Encoding: 57457 57457 96
Width: 0
Flags: W
LayerCount: 2
Fore
SplineSet
209 1111 m 5,0,-1
 151 1100 l 5,1,-1
 151 992 l 5,2,-1
 209 1004 l 5,3,-1
 209 1111 l 5,0,-1
151 936 m 5,4,-1
 151 835 l 5,5,-1
 133 835 l 5,6,-1
 133 932 l 5,7,-1
 111 927 l 5,8,-1
 110 927 l 6,9,10
 100 927 100 927 100 936 c 6,11,-1
 100 974 l 6,12,13
 100 981 100 981 108 983 c 6,14,-1
 133 988 l 5,15,-1
 133 1096 l 5,16,-1
 111 1091 l 5,17,-1
 110 1091 l 6,18,19
 100 1091 100 1091 100 1100 c 6,20,-1
 100 1137 l 5,21,-1
 100 1138 l 6,22,23
 100 1145 100 1145 108 1147 c 6,24,-1
 133 1152 l 5,25,-1
 133 1248 l 5,26,-1
 151 1248 l 5,27,-1
 151 1156 l 5,28,-1
 209 1168 l 5,29,-1
 209 1269 l 5,30,-1
 227 1269 l 5,31,-1
 227 1172 l 5,32,-1
 249 1176 l 5,33,-1
 250 1176 l 6,34,35
 259 1176 259 1176 259 1167 c 6,36,-1
 259 1129 l 6,37,38
 259 1122 259 1122 252 1120 c 6,39,-1
 227 1115 l 5,40,-1
 227 1008 l 5,41,-1
 249 1012 l 5,42,-1
 250 1012 l 6,43,44
 259 1012 259 1012 259 1003 c 6,45,-1
 259 965 l 6,46,47
 259 958 259 958 252 956 c 6,48,-1
 227 951 l 5,49,-1
 227 856 l 5,50,-1
 209 856 l 5,51,-1
 209 947 l 5,52,-1
 151 936 l 5,4,-1
EndSplineSet
Validated: 1
EndChar

StartChar: uniE072
Encoding: 57458 57458 97
Width: 249
Flags: W
LayerCount: 2
Fore
SplineSet
239 416 m 2,0,-1
 200 409 l 1,1,-1
 200 240 l 1,2,-1
 233 247 l 1,3,-1
 236 247 l 2,4,5
 250 247 250 247 250 232 c 2,6,-1
 250 172 l 2,7,8
 250 160 250 160 239 158 c 2,9,-1
 200 151 l 1,10,-1
 200 0 l 1,11,-1
 171 0 l 1,12,-1
 171 144 l 1,13,-1
 80 126 l 1,14,-1
 80 -33 l 1,15,-1
 51 -33 l 1,16,-1
 51 120 l 1,17,-1
 17 113 l 1,18,-1
 14 113 l 2,19,20
 0 113 0 113 0 127 c 2,21,-1
 0 186 l 2,22,23
 0 199 0 199 11 201 c 2,24,-1
 51 209 l 1,25,-1
 51 378 l 1,26,-1
 17 371 l 1,27,-1
 14 371 l 2,28,29
 0 371 0 371 0 385 c 1,30,-1
 0 383 l 1,31,-1
 0 442 l 1,32,-1
 0 444 l 2,33,34
 0 457 0 457 11 459 c 2,35,-1
 51 467 l 1,36,-1
 51 617 l 1,37,-1
 80 617 l 1,38,-1
 80 473 l 1,39,-1
 171 492 l 1,40,-1
 171 650 l 1,41,-1
 200 650 l 1,42,-1
 200 498 l 1,43,-1
 233 505 l 1,44,-1
 236 505 l 2,45,46
 250 505 250 505 250 490 c 2,47,-1
 250 430 l 2,48,49
 250 418 250 418 239 416 c 2,0,-1
80 214 m 1,50,-1
 171 233 l 1,51,-1
 171 402 l 1,52,-1
 80 384 l 1,53,-1
 80 214 l 1,50,-1
EndSplineSet
Validated: 5
EndChar

StartChar: uniE073
Encoding: 57459 57459 98
Width: 225
Flags: W
LayerCount: 2
Fore
SplineSet
109 456 m 1,0,-1
 51 444 l 1,1,-1
 51 336 l 1,2,-1
 109 349 l 1,3,-1
 109 456 l 1,0,-1
51 280 m 1,4,-1
 51 180 l 1,5,-1
 33 180 l 1,6,-1
 33 276 l 1,7,-1
 11 272 l 1,8,-1
 9 272 l 2,9,10
 0 272 0 272 0 281 c 2,11,-1
 0 319 l 2,12,13
 0 326 0 326 7 328 c 2,14,-1
 33 333 l 1,15,-1
 33 440 l 1,16,-1
 11 436 l 1,17,-1
 9 436 l 2,18,19
 0 436 0 436 0 445 c 2,20,-1
 0 481 l 1,21,-1
 0 483 l 2,22,23
 0 490 0 490 7 492 c 2,24,-1
 33 497 l 1,25,-1
 33 593 l 1,26,-1
 51 593 l 1,27,-1
 51 501 l 1,28,-1
 109 513 l 1,29,-1
 109 613 l 1,30,-1
 127 613 l 1,31,-1
 127 516 l 1,32,-1
 148 521 l 1,33,-1
 150 521 l 2,34,35
 159 521 159 521 159 512 c 2,36,-1
 159 473 l 2,37,38
 159 466 159 466 152 464 c 2,39,-1
 127 460 l 1,40,-1
 127 353 l 1,41,-1
 148 357 l 1,42,-1
 150 357 l 2,43,44
 159 357 159 357 159 348 c 2,45,-1
 159 310 l 2,46,47
 159 302 159 302 152 300 c 2,48,-1
 127 296 l 1,49,-1
 127 200 l 1,50,-1
 109 200 l 1,51,-1
 109 292 l 1,52,-1
 51 280 l 1,4,-1
EndSplineSet
Validated: 1
EndChar

StartChar: uniE080
Encoding: 57472 57472 99
Width: 295
Flags: W
LayerCount: 2
Fore
SplineSet
0 742 m 1,0,-1
 346 742 l 5,1,-1
 346 732 l 5,2,-1
 0 732 l 1,3,-1
 0 742 l 1,0,-1
0 579 m 1,4,-1
 346 579 l 5,5,-1
 346 568 l 5,6,-1
 0 568 l 1,7,-1
 0 579 l 1,4,-1
0 415 m 1,8,-1
 346 415 l 5,9,-1
 346 404 l 5,10,-1
 0 404 l 1,11,-1
 0 415 l 1,8,-1
0 251 m 1,12,-1
 346 251 l 5,13,-1
 346 241 l 5,14,-1
 0 241 l 1,15,-1
 0 251 l 1,12,-1
0 87 m 1,16,-1
 346 87 l 5,17,-1
 346 77 l 5,18,-1
 0 77 l 1,19,-1
 0 87 l 1,16,-1
EndSplineSet
Validated: 1
EndChar

StartChar: uniE081
Encoding: 57473 57473 100
Width: 0
Flags: W
LayerCount: 2
Fore
SplineSet
153.466796875 -289.8671875 m 1,0,-1
 153.466796875 -323.43359375 l 2,1,2
 153.466796875 -332.299804688 153.466796875 -332.299804688 145.233398438 -332.299804688 c 2,3,-1
 107.866210938 -332.299804688 l 2,4,5
 99 -332.299804688 99 -332.299804688 99 -323.43359375 c 2,6,-1
 99 -286.06640625 l 2,7,8
 99 -277.833007812 99 -277.833007812 107.866210938 -277.833007812 c 2,9,-1
 141.432617188 -277.833007812 l 1,10,-1
 172.466796875 -246.166992188 l 1,11,-1
 172.466796875 -244.266601562 l 1,12,-1
 141.432617188 -213.233398438 l 1,13,-1
 107.866210938 -213.233398438 l 2,14,15
 99 -213.233398438 99 -213.233398438 99 -204.3671875 c 2,16,-1
 99 -167 l 2,17,18
 99 -158.133789062 99 -158.133789062 107.866210938 -158.133789062 c 2,19,-1
 145.233398438 -158.133789062 l 2,20,21
 153.466796875 -158.133789062 153.466796875 -158.133789062 153.466796875 -167 c 2,22,-1
 153.466796875 -200.56640625 l 1,23,-1
 185.1328125 -232.233398438 l 1,24,-1
 187.033203125 -232.233398438 l 1,25,-1
 218.06640625 -200.56640625 l 1,26,-1
 218.06640625 -167 l 2,27,28
 218.06640625 -158.133789062 218.06640625 -158.133789062 226.932617188 -158.133789062 c 2,29,-1
 264.299804688 -158.133789062 l 2,30,31
 273.166015625 -158.133789062 273.166015625 -158.133789062 273.166015625 -167 c 2,32,-1
 273.166015625 -204.3671875 l 2,33,34
 273.166015625 -213.233398438 273.166015625 -213.233398438 264.299804688 -213.233398438 c 2,35,-1
 230.733398438 -213.233398438 l 1,36,-1
 199.06640625 -244.900390625 l 1,37,-1
 199.06640625 -246.166992188 l 1,38,-1
 230.733398438 -277.833007812 l 1,39,-1
 264.299804688 -277.833007812 l 2,40,41
 273.166015625 -277.833007812 273.166015625 -277.833007812 273.166015625 -286.06640625 c 2,42,-1
 273.166015625 -323.43359375 l 2,43,44
 273.166015625 -332.299804688 273.166015625 -332.299804688 264.299804688 -332.299804688 c 2,45,-1
 226.932617188 -332.299804688 l 2,46,47
 218.06640625 -332.299804688 218.06640625 -332.299804688 218.06640625 -323.43359375 c 2,48,-1
 218.06640625 -289.8671875 l 1,49,-1
 187.033203125 -259.466796875 l 1,50,-1
 185.1328125 -259.466796875 l 1,51,-1
 153.466796875 -289.8671875 l 1,0,-1
EndSplineSet
Validated: 524289
Ligature2: "'liga' Make Double Sharps-1" uniE061 uniE061
EndChar

StartChar: uniE082
Encoding: 57474 57474 101
Width: 0
Flags: W
LayerCount: 2
Fore
SplineSet
153.466796875 -207.8671875 m 5,0,-1
 153.466796875 -241.43359375 l 6,1,2
 153.466796875 -250.299804688 153.466796875 -250.299804688 145.233398438 -250.299804688 c 6,3,-1
 107.866210938 -250.299804688 l 6,4,5
 99 -250.299804688 99 -250.299804688 99 -241.43359375 c 6,6,-1
 99 -204.06640625 l 6,7,8
 99 -195.833007812 99 -195.833007812 107.866210938 -195.833007812 c 6,9,-1
 141.432617188 -195.833007812 l 5,10,-1
 172.466796875 -164.166992188 l 5,11,-1
 172.466796875 -162.266601562 l 5,12,-1
 141.432617188 -131.233398438 l 5,13,-1
 107.866210938 -131.233398438 l 6,14,15
 99 -131.233398438 99 -131.233398438 99 -122.3671875 c 6,16,-1
 99 -85 l 6,17,18
 99 -76.1337890625 99 -76.1337890625 107.866210938 -76.1337890625 c 6,19,-1
 145.233398438 -76.1337890625 l 6,20,21
 153.466796875 -76.1337890625 153.466796875 -76.1337890625 153.466796875 -85 c 6,22,-1
 153.466796875 -118.56640625 l 5,23,-1
 185.1328125 -150.233398438 l 5,24,-1
 187.033203125 -150.233398438 l 5,25,-1
 218.06640625 -118.56640625 l 5,26,-1
 218.06640625 -85 l 6,27,28
 218.06640625 -76.1337890625 218.06640625 -76.1337890625 226.932617188 -76.1337890625 c 6,29,-1
 264.299804688 -76.1337890625 l 6,30,31
 273.166015625 -76.1337890625 273.166015625 -76.1337890625 273.166015625 -85 c 6,32,-1
 273.166015625 -122.3671875 l 6,33,34
 273.166015625 -131.233398438 273.166015625 -131.233398438 264.299804688 -131.233398438 c 6,35,-1
 230.733398438 -131.233398438 l 5,36,-1
 199.06640625 -162.900390625 l 5,37,-1
 199.06640625 -164.166992188 l 5,38,-1
 230.733398438 -195.833007812 l 5,39,-1
 264.299804688 -195.833007812 l 6,40,41
 273.166015625 -195.833007812 273.166015625 -195.833007812 273.166015625 -204.06640625 c 6,42,-1
 273.166015625 -241.43359375 l 6,43,44
 273.166015625 -250.299804688 273.166015625 -250.299804688 264.299804688 -250.299804688 c 6,45,-1
 226.932617188 -250.299804688 l 6,46,47
 218.06640625 -250.299804688 218.06640625 -250.299804688 218.06640625 -241.43359375 c 6,48,-1
 218.06640625 -207.8671875 l 5,49,-1
 187.033203125 -177.466796875 l 5,50,-1
 185.1328125 -177.466796875 l 5,51,-1
 153.466796875 -207.8671875 l 5,0,-1
EndSplineSet
Validated: 524289
Ligature2: "'liga' Make Double Sharps-1" uniE062 uniE062
EndChar

StartChar: uniE083
Encoding: 57475 57475 102
Width: 0
Flags: W
LayerCount: 2
Fore
SplineSet
153.466796875 -125.8671875 m 5,0,-1
 153.466796875 -159.43359375 l 6,1,2
 153.466796875 -168.299804688 153.466796875 -168.299804688 145.233398438 -168.299804688 c 6,3,-1
 107.866210938 -168.299804688 l 6,4,5
 99 -168.299804688 99 -168.299804688 99 -159.43359375 c 6,6,-1
 99 -122.06640625 l 6,7,8
 99 -113.833007812 99 -113.833007812 107.866210938 -113.833007812 c 6,9,-1
 141.432617188 -113.833007812 l 5,10,-1
 172.466796875 -82.1669921875 l 5,11,-1
 172.466796875 -80.2666015625 l 5,12,-1
 141.432617188 -49.2333984375 l 5,13,-1
 107.866210938 -49.2333984375 l 6,14,15
 99 -49.2333984375 99 -49.2333984375 99 -40.3671875 c 6,16,-1
 99 -3 l 6,17,18
 99 5.8662109375 99 5.8662109375 107.866210938 5.8662109375 c 6,19,-1
 145.233398438 5.8662109375 l 6,20,21
 153.466796875 5.8662109375 153.466796875 5.8662109375 153.466796875 -3 c 6,22,-1
 153.466796875 -36.56640625 l 5,23,-1
 185.1328125 -68.2333984375 l 5,24,-1
 187.033203125 -68.2333984375 l 5,25,-1
 218.06640625 -36.56640625 l 5,26,-1
 218.06640625 -3 l 6,27,28
 218.06640625 5.8662109375 218.06640625 5.8662109375 226.932617188 5.8662109375 c 6,29,-1
 264.299804688 5.8662109375 l 6,30,31
 273.166015625 5.8662109375 273.166015625 5.8662109375 273.166015625 -3 c 6,32,-1
 273.166015625 -40.3671875 l 6,33,34
 273.166015625 -49.2333984375 273.166015625 -49.2333984375 264.299804688 -49.2333984375 c 6,35,-1
 230.733398438 -49.2333984375 l 5,36,-1
 199.06640625 -80.900390625 l 5,37,-1
 199.06640625 -82.1669921875 l 5,38,-1
 230.733398438 -113.833007812 l 5,39,-1
 264.299804688 -113.833007812 l 6,40,41
 273.166015625 -113.833007812 273.166015625 -113.833007812 273.166015625 -122.06640625 c 6,42,-1
 273.166015625 -159.43359375 l 6,43,44
 273.166015625 -168.299804688 273.166015625 -168.299804688 264.299804688 -168.299804688 c 6,45,-1
 226.932617188 -168.299804688 l 6,46,47
 218.06640625 -168.299804688 218.06640625 -168.299804688 218.06640625 -159.43359375 c 6,48,-1
 218.06640625 -125.8671875 l 5,49,-1
 187.033203125 -95.466796875 l 5,50,-1
 185.1328125 -95.466796875 l 5,51,-1
 153.466796875 -125.8671875 l 5,0,-1
EndSplineSet
Validated: 524289
Ligature2: "'liga' Make Double Sharps-1" uniE063 uniE063
EndChar

StartChar: uniE084
Encoding: 57476 57476 103
Width: 0
Flags: W
LayerCount: 2
Fore
SplineSet
153.466796875 -43.8671875 m 5,0,-1
 153.466796875 -77.43359375 l 6,1,2
 153.466796875 -86.2998046875 153.466796875 -86.2998046875 145.233398438 -86.2998046875 c 6,3,-1
 107.866210938 -86.2998046875 l 6,4,5
 99 -86.2998046875 99 -86.2998046875 99 -77.43359375 c 6,6,-1
 99 -40.06640625 l 6,7,8
 99 -31.8330078125 99 -31.8330078125 107.866210938 -31.8330078125 c 6,9,-1
 141.432617188 -31.8330078125 l 5,10,-1
 172.466796875 -0.1669921875 l 5,11,-1
 172.466796875 1.7333984375 l 5,12,-1
 141.432617188 32.7666015625 l 5,13,-1
 107.866210938 32.7666015625 l 6,14,15
 99 32.7666015625 99 32.7666015625 99 41.6328125 c 6,16,-1
 99 79 l 6,17,18
 99 87.8662109375 99 87.8662109375 107.866210938 87.8662109375 c 6,19,-1
 145.233398438 87.8662109375 l 6,20,21
 153.466796875 87.8662109375 153.466796875 87.8662109375 153.466796875 79 c 6,22,-1
 153.466796875 45.43359375 l 5,23,-1
 185.1328125 13.7666015625 l 5,24,-1
 187.033203125 13.7666015625 l 5,25,-1
 218.06640625 45.43359375 l 5,26,-1
 218.06640625 79 l 6,27,28
 218.06640625 87.8662109375 218.06640625 87.8662109375 226.932617188 87.8662109375 c 6,29,-1
 264.299804688 87.8662109375 l 6,30,31
 273.166015625 87.8662109375 273.166015625 87.8662109375 273.166015625 79 c 6,32,-1
 273.166015625 41.6328125 l 6,33,34
 273.166015625 32.7666015625 273.166015625 32.7666015625 264.299804688 32.7666015625 c 6,35,-1
 230.733398438 32.7666015625 l 5,36,-1
 199.06640625 1.099609375 l 5,37,-1
 199.06640625 -0.1669921875 l 5,38,-1
 230.733398438 -31.8330078125 l 5,39,-1
 264.299804688 -31.8330078125 l 6,40,41
 273.166015625 -31.8330078125 273.166015625 -31.8330078125 273.166015625 -40.06640625 c 6,42,-1
 273.166015625 -77.43359375 l 6,43,44
 273.166015625 -86.2998046875 273.166015625 -86.2998046875 264.299804688 -86.2998046875 c 6,45,-1
 226.932617188 -86.2998046875 l 6,46,47
 218.06640625 -86.2998046875 218.06640625 -86.2998046875 218.06640625 -77.43359375 c 6,48,-1
 218.06640625 -43.8671875 l 5,49,-1
 187.033203125 -13.466796875 l 5,50,-1
 185.1328125 -13.466796875 l 5,51,-1
 153.466796875 -43.8671875 l 5,0,-1
EndSplineSet
Validated: 524289
Ligature2: "'liga' Make Double Sharps-1" uniE064 uniE064
EndChar

StartChar: uniE085
Encoding: 57477 57477 104
Width: 0
Flags: W
LayerCount: 2
Fore
SplineSet
153.466796875 38.1328125 m 1,0,-1
 153.466796875 4.56640625 l 2,1,2
 153.466796875 -4.2998046875 153.466796875 -4.2998046875 145.233398438 -4.2998046875 c 2,3,-1
 107.866210938 -4.2998046875 l 2,4,5
 99 -4.2998046875 99 -4.2998046875 99 4.56640625 c 2,6,-1
 99 41.93359375 l 2,7,8
 99 50.1669921875 99 50.1669921875 107.866210938 50.1669921875 c 2,9,-1
 141.432617188 50.1669921875 l 1,10,-1
 172.466796875 81.8330078125 l 1,11,-1
 172.466796875 83.7333984375 l 1,12,-1
 141.432617188 114.766601562 l 1,13,-1
 107.866210938 114.766601562 l 2,14,15
 99 114.766601562 99 114.766601562 99 123.6328125 c 2,16,-1
 99 161 l 2,17,18
 99 169.866210938 99 169.866210938 107.866210938 169.866210938 c 2,19,-1
 145.233398438 169.866210938 l 2,20,21
 153.466796875 169.866210938 153.466796875 169.866210938 153.466796875 161 c 2,22,-1
 153.466796875 127.43359375 l 1,23,-1
 185.1328125 95.7666015625 l 1,24,-1
 187.033203125 95.7666015625 l 1,25,-1
 218.06640625 127.43359375 l 1,26,-1
 218.06640625 161 l 2,27,28
 218.06640625 169.866210938 218.06640625 169.866210938 226.932617188 169.866210938 c 2,29,-1
 264.299804688 169.866210938 l 2,30,31
 273.166015625 169.866210938 273.166015625 169.866210938 273.166015625 161 c 2,32,-1
 273.166015625 123.6328125 l 2,33,34
 273.166015625 114.766601562 273.166015625 114.766601562 264.299804688 114.766601562 c 2,35,-1
 230.733398438 114.766601562 l 1,36,-1
 199.06640625 83.099609375 l 1,37,-1
 199.06640625 81.8330078125 l 1,38,-1
 230.733398438 50.1669921875 l 1,39,-1
 264.299804688 50.1669921875 l 2,40,41
 273.166015625 50.1669921875 273.166015625 50.1669921875 273.166015625 41.93359375 c 2,42,-1
 273.166015625 4.56640625 l 2,43,44
 273.166015625 -4.2998046875 273.166015625 -4.2998046875 264.299804688 -4.2998046875 c 2,45,-1
 226.932617188 -4.2998046875 l 2,46,47
 218.06640625 -4.2998046875 218.06640625 -4.2998046875 218.06640625 4.56640625 c 2,48,-1
 218.06640625 38.1328125 l 1,49,-1
 187.033203125 68.533203125 l 1,50,-1
 185.1328125 68.533203125 l 1,51,-1
 153.466796875 38.1328125 l 1,0,-1
EndSplineSet
Validated: 524289
Ligature2: "'liga' Make Double Sharps-1" uniE065 uniE065
EndChar

StartChar: uniE086
Encoding: 57478 57478 105
Width: 0
Flags: W
LayerCount: 2
Fore
SplineSet
153.466796875 120.1328125 m 5,0,-1
 153.466796875 86.56640625 l 6,1,2
 153.466796875 77.7001953125 153.466796875 77.7001953125 145.233398438 77.7001953125 c 6,3,-1
 107.866210938 77.7001953125 l 6,4,5
 99 77.7001953125 99 77.7001953125 99 86.56640625 c 6,6,-1
 99 123.93359375 l 6,7,8
 99 132.166992188 99 132.166992188 107.866210938 132.166992188 c 6,9,-1
 141.432617188 132.166992188 l 5,10,-1
 172.466796875 163.833007812 l 5,11,-1
 172.466796875 165.733398438 l 5,12,-1
 141.432617188 196.766601562 l 5,13,-1
 107.866210938 196.766601562 l 6,14,15
 99 196.766601562 99 196.766601562 99 205.6328125 c 6,16,-1
 99 243 l 6,17,18
 99 251.866210938 99 251.866210938 107.866210938 251.866210938 c 6,19,-1
 145.233398438 251.866210938 l 6,20,21
 153.466796875 251.866210938 153.466796875 251.866210938 153.466796875 243 c 6,22,-1
 153.466796875 209.43359375 l 5,23,-1
 185.1328125 177.766601562 l 5,24,-1
 187.033203125 177.766601562 l 5,25,-1
 218.06640625 209.43359375 l 5,26,-1
 218.06640625 243 l 6,27,28
 218.06640625 251.866210938 218.06640625 251.866210938 226.932617188 251.866210938 c 6,29,-1
 264.299804688 251.866210938 l 6,30,31
 273.166015625 251.866210938 273.166015625 251.866210938 273.166015625 243 c 6,32,-1
 273.166015625 205.6328125 l 6,33,34
 273.166015625 196.766601562 273.166015625 196.766601562 264.299804688 196.766601562 c 6,35,-1
 230.733398438 196.766601562 l 5,36,-1
 199.06640625 165.099609375 l 5,37,-1
 199.06640625 163.833007812 l 5,38,-1
 230.733398438 132.166992188 l 5,39,-1
 264.299804688 132.166992188 l 6,40,41
 273.166015625 132.166992188 273.166015625 132.166992188 273.166015625 123.93359375 c 6,42,-1
 273.166015625 86.56640625 l 6,43,44
 273.166015625 77.7001953125 273.166015625 77.7001953125 264.299804688 77.7001953125 c 6,45,-1
 226.932617188 77.7001953125 l 6,46,47
 218.06640625 77.7001953125 218.06640625 77.7001953125 218.06640625 86.56640625 c 6,48,-1
 218.06640625 120.1328125 l 5,49,-1
 187.033203125 150.533203125 l 5,50,-1
 185.1328125 150.533203125 l 5,51,-1
 153.466796875 120.1328125 l 5,0,-1
EndSplineSet
Validated: 524289
Ligature2: "'liga' Make Double Sharps-1" uniE066 uniE066
EndChar

StartChar: uniE087
Encoding: 57479 57479 106
Width: 0
Flags: W
LayerCount: 2
Fore
SplineSet
153.466796875 202.1328125 m 1,0,-1
 153.466796875 168.56640625 l 2,1,2
 153.466796875 159.700195312 153.466796875 159.700195312 145.233398438 159.700195312 c 2,3,-1
 107.866210938 159.700195312 l 2,4,5
 99 159.700195312 99 159.700195312 99 168.56640625 c 2,6,-1
 99 205.93359375 l 2,7,8
 99 214.166992188 99 214.166992188 107.866210938 214.166992188 c 2,9,-1
 141.432617188 214.166992188 l 1,10,-1
 172.466796875 245.833007812 l 1,11,-1
 172.466796875 247.733398438 l 1,12,-1
 141.432617188 278.766601562 l 1,13,-1
 107.866210938 278.766601562 l 2,14,15
 99 278.766601562 99 278.766601562 99 287.6328125 c 2,16,-1
 99 325 l 2,17,18
 99 333.866210938 99 333.866210938 107.866210938 333.866210938 c 2,19,-1
 145.233398438 333.866210938 l 2,20,21
 153.466796875 333.866210938 153.466796875 333.866210938 153.466796875 325 c 2,22,-1
 153.466796875 291.43359375 l 1,23,-1
 185.1328125 259.766601562 l 1,24,-1
 187.033203125 259.766601562 l 1,25,-1
 218.06640625 291.43359375 l 1,26,-1
 218.06640625 325 l 2,27,28
 218.06640625 333.866210938 218.06640625 333.866210938 226.932617188 333.866210938 c 2,29,-1
 264.299804688 333.866210938 l 2,30,31
 273.166015625 333.866210938 273.166015625 333.866210938 273.166015625 325 c 2,32,-1
 273.166015625 287.6328125 l 2,33,34
 273.166015625 278.766601562 273.166015625 278.766601562 264.299804688 278.766601562 c 2,35,-1
 230.733398438 278.766601562 l 1,36,-1
 199.06640625 247.099609375 l 1,37,-1
 199.06640625 245.833007812 l 1,38,-1
 230.733398438 214.166992188 l 1,39,-1
 264.299804688 214.166992188 l 2,40,41
 273.166015625 214.166992188 273.166015625 214.166992188 273.166015625 205.93359375 c 2,42,-1
 273.166015625 168.56640625 l 2,43,44
 273.166015625 159.700195312 273.166015625 159.700195312 264.299804688 159.700195312 c 2,45,-1
 226.932617188 159.700195312 l 2,46,47
 218.06640625 159.700195312 218.06640625 159.700195312 218.06640625 168.56640625 c 2,48,-1
 218.06640625 202.1328125 l 1,49,-1
 187.033203125 232.533203125 l 1,50,-1
 185.1328125 232.533203125 l 1,51,-1
 153.466796875 202.1328125 l 1,0,-1
EndSplineSet
Validated: 524289
Ligature2: "'liga' Make Double Sharps-1" uniE067 uniE067
EndChar

StartChar: uniE088
Encoding: 57480 57480 107
Width: 0
Flags: W
LayerCount: 2
Fore
SplineSet
153.466796875 284.1328125 m 5,0,-1
 153.466796875 250.56640625 l 6,1,2
 153.466796875 241.700195312 153.466796875 241.700195312 145.233398438 241.700195312 c 6,3,-1
 107.866210938 241.700195312 l 6,4,5
 99 241.700195312 99 241.700195312 99 250.56640625 c 6,6,-1
 99 287.93359375 l 6,7,8
 99 296.166992188 99 296.166992188 107.866210938 296.166992188 c 6,9,-1
 141.432617188 296.166992188 l 5,10,-1
 172.466796875 327.833007812 l 5,11,-1
 172.466796875 329.733398438 l 5,12,-1
 141.432617188 360.766601562 l 5,13,-1
 107.866210938 360.766601562 l 6,14,15
 99 360.766601562 99 360.766601562 99 369.6328125 c 6,16,-1
 99 407 l 6,17,18
 99 415.866210938 99 415.866210938 107.866210938 415.866210938 c 6,19,-1
 145.233398438 415.866210938 l 6,20,21
 153.466796875 415.866210938 153.466796875 415.866210938 153.466796875 407 c 6,22,-1
 153.466796875 373.43359375 l 5,23,-1
 185.1328125 341.766601562 l 5,24,-1
 187.033203125 341.766601562 l 5,25,-1
 218.06640625 373.43359375 l 5,26,-1
 218.06640625 407 l 6,27,28
 218.06640625 415.866210938 218.06640625 415.866210938 226.932617188 415.866210938 c 6,29,-1
 264.299804688 415.866210938 l 6,30,31
 273.166015625 415.866210938 273.166015625 415.866210938 273.166015625 407 c 6,32,-1
 273.166015625 369.6328125 l 6,33,34
 273.166015625 360.766601562 273.166015625 360.766601562 264.299804688 360.766601562 c 6,35,-1
 230.733398438 360.766601562 l 5,36,-1
 199.06640625 329.099609375 l 5,37,-1
 199.06640625 327.833007812 l 5,38,-1
 230.733398438 296.166992188 l 5,39,-1
 264.299804688 296.166992188 l 6,40,41
 273.166015625 296.166992188 273.166015625 296.166992188 273.166015625 287.93359375 c 6,42,-1
 273.166015625 250.56640625 l 6,43,44
 273.166015625 241.700195312 273.166015625 241.700195312 264.299804688 241.700195312 c 6,45,-1
 226.932617188 241.700195312 l 6,46,47
 218.06640625 241.700195312 218.06640625 241.700195312 218.06640625 250.56640625 c 6,48,-1
 218.06640625 284.1328125 l 5,49,-1
 187.033203125 314.533203125 l 5,50,-1
 185.1328125 314.533203125 l 5,51,-1
 153.466796875 284.1328125 l 5,0,-1
EndSplineSet
Validated: 524289
Ligature2: "'liga' Make Double Sharps-1" uniE068 uniE068
EndChar

StartChar: uniE089
Encoding: 57481 57481 108
Width: 0
Flags: W
LayerCount: 2
Fore
SplineSet
153.466796875 366.1328125 m 5,0,-1
 153.466796875 332.56640625 l 6,1,2
 153.466796875 323.700195312 153.466796875 323.700195312 145.233398438 323.700195312 c 6,3,-1
 107.866210938 323.700195312 l 6,4,5
 99 323.700195312 99 323.700195312 99 332.56640625 c 6,6,-1
 99 369.93359375 l 6,7,8
 99 378.166992188 99 378.166992188 107.866210938 378.166992188 c 6,9,-1
 141.432617188 378.166992188 l 5,10,-1
 172.466796875 409.833007812 l 5,11,-1
 172.466796875 411.733398438 l 5,12,-1
 141.432617188 442.766601562 l 5,13,-1
 107.866210938 442.766601562 l 6,14,15
 99 442.766601562 99 442.766601562 99 451.6328125 c 6,16,-1
 99 489 l 6,17,18
 99 497.866210938 99 497.866210938 107.866210938 497.866210938 c 6,19,-1
 145.233398438 497.866210938 l 6,20,21
 153.466796875 497.866210938 153.466796875 497.866210938 153.466796875 489 c 6,22,-1
 153.466796875 455.43359375 l 5,23,-1
 185.1328125 423.766601562 l 5,24,-1
 187.033203125 423.766601562 l 5,25,-1
 218.06640625 455.43359375 l 5,26,-1
 218.06640625 489 l 6,27,28
 218.06640625 497.866210938 218.06640625 497.866210938 226.932617188 497.866210938 c 6,29,-1
 264.299804688 497.866210938 l 6,30,31
 273.166015625 497.866210938 273.166015625 497.866210938 273.166015625 489 c 6,32,-1
 273.166015625 451.6328125 l 6,33,34
 273.166015625 442.766601562 273.166015625 442.766601562 264.299804688 442.766601562 c 6,35,-1
 230.733398438 442.766601562 l 5,36,-1
 199.06640625 411.099609375 l 5,37,-1
 199.06640625 409.833007812 l 5,38,-1
 230.733398438 378.166992188 l 5,39,-1
 264.299804688 378.166992188 l 6,40,41
 273.166015625 378.166992188 273.166015625 378.166992188 273.166015625 369.93359375 c 6,42,-1
 273.166015625 332.56640625 l 6,43,44
 273.166015625 323.700195312 273.166015625 323.700195312 264.299804688 323.700195312 c 6,45,-1
 226.932617188 323.700195312 l 6,46,47
 218.06640625 323.700195312 218.06640625 323.700195312 218.06640625 332.56640625 c 6,48,-1
 218.06640625 366.1328125 l 5,49,-1
 187.033203125 396.533203125 l 5,50,-1
 185.1328125 396.533203125 l 5,51,-1
 153.466796875 366.1328125 l 5,0,-1
EndSplineSet
Validated: 524289
Ligature2: "'liga' Make Double Sharps-1" uniE069 uniE069
EndChar

StartChar: uniE08A
Encoding: 57482 57482 109
Width: 0
Flags: W
LayerCount: 2
Fore
SplineSet
153.466796875 448.1328125 m 5,0,-1
 153.466796875 414.56640625 l 6,1,2
 153.466796875 405.700195312 153.466796875 405.700195312 145.233398438 405.700195312 c 6,3,-1
 107.866210938 405.700195312 l 6,4,5
 99 405.700195312 99 405.700195312 99 414.56640625 c 6,6,-1
 99 451.93359375 l 6,7,8
 99 460.166992188 99 460.166992188 107.866210938 460.166992188 c 6,9,-1
 141.432617188 460.166992188 l 5,10,-1
 172.466796875 491.833007812 l 5,11,-1
 172.466796875 493.733398438 l 5,12,-1
 141.432617188 524.766601562 l 5,13,-1
 107.866210938 524.766601562 l 6,14,15
 99 524.766601562 99 524.766601562 99 533.6328125 c 6,16,-1
 99 571 l 6,17,18
 99 579.866210938 99 579.866210938 107.866210938 579.866210938 c 6,19,-1
 145.233398438 579.866210938 l 6,20,21
 153.466796875 579.866210938 153.466796875 579.866210938 153.466796875 571 c 6,22,-1
 153.466796875 537.43359375 l 5,23,-1
 185.1328125 505.766601562 l 5,24,-1
 187.033203125 505.766601562 l 5,25,-1
 218.06640625 537.43359375 l 5,26,-1
 218.06640625 571 l 6,27,28
 218.06640625 579.866210938 218.06640625 579.866210938 226.932617188 579.866210938 c 6,29,-1
 264.299804688 579.866210938 l 6,30,31
 273.166015625 579.866210938 273.166015625 579.866210938 273.166015625 571 c 6,32,-1
 273.166015625 533.6328125 l 6,33,34
 273.166015625 524.766601562 273.166015625 524.766601562 264.299804688 524.766601562 c 6,35,-1
 230.733398438 524.766601562 l 5,36,-1
 199.06640625 493.099609375 l 5,37,-1
 199.06640625 491.833007812 l 5,38,-1
 230.733398438 460.166992188 l 5,39,-1
 264.299804688 460.166992188 l 6,40,41
 273.166015625 460.166992188 273.166015625 460.166992188 273.166015625 451.93359375 c 6,42,-1
 273.166015625 414.56640625 l 6,43,44
 273.166015625 405.700195312 273.166015625 405.700195312 264.299804688 405.700195312 c 6,45,-1
 226.932617188 405.700195312 l 6,46,47
 218.06640625 405.700195312 218.06640625 405.700195312 218.06640625 414.56640625 c 6,48,-1
 218.06640625 448.1328125 l 5,49,-1
 187.033203125 478.533203125 l 5,50,-1
 185.1328125 478.533203125 l 5,51,-1
 153.466796875 448.1328125 l 5,0,-1
EndSplineSet
Validated: 524289
Ligature2: "'liga' Make Double Sharps-1" uniE06A uniE06A
EndChar

StartChar: uniE08B
Encoding: 57483 57483 110
Width: 0
Flags: W
LayerCount: 2
Fore
SplineSet
153.466796875 530.1328125 m 1,0,-1
 153.466796875 496.56640625 l 2,1,2
 153.466796875 487.700195312 153.466796875 487.700195312 145.233398438 487.700195312 c 2,3,-1
 107.866210938 487.700195312 l 2,4,5
 99 487.700195312 99 487.700195312 99 496.56640625 c 2,6,-1
 99 533.93359375 l 2,7,8
 99 542.166992188 99 542.166992188 107.866210938 542.166992188 c 2,9,-1
 141.432617188 542.166992188 l 1,10,-1
 172.466796875 573.833007812 l 1,11,-1
 172.466796875 575.733398438 l 1,12,-1
 141.432617188 606.766601562 l 1,13,-1
 107.866210938 606.766601562 l 2,14,15
 99 606.766601562 99 606.766601562 99 615.6328125 c 2,16,-1
 99 653 l 2,17,18
 99 661.866210938 99 661.866210938 107.866210938 661.866210938 c 2,19,-1
 145.233398438 661.866210938 l 2,20,21
 153.466796875 661.866210938 153.466796875 661.866210938 153.466796875 653 c 2,22,-1
 153.466796875 619.43359375 l 1,23,-1
 185.1328125 587.766601562 l 1,24,-1
 187.033203125 587.766601562 l 1,25,-1
 218.06640625 619.43359375 l 1,26,-1
 218.06640625 653 l 2,27,28
 218.06640625 661.866210938 218.06640625 661.866210938 226.932617188 661.866210938 c 2,29,-1
 264.299804688 661.866210938 l 2,30,31
 273.166015625 661.866210938 273.166015625 661.866210938 273.166015625 653 c 2,32,-1
 273.166015625 615.6328125 l 2,33,34
 273.166015625 606.766601562 273.166015625 606.766601562 264.299804688 606.766601562 c 2,35,-1
 230.733398438 606.766601562 l 1,36,-1
 199.06640625 575.099609375 l 1,37,-1
 199.06640625 573.833007812 l 1,38,-1
 230.733398438 542.166992188 l 1,39,-1
 264.299804688 542.166992188 l 2,40,41
 273.166015625 542.166992188 273.166015625 542.166992188 273.166015625 533.93359375 c 2,42,-1
 273.166015625 496.56640625 l 2,43,44
 273.166015625 487.700195312 273.166015625 487.700195312 264.299804688 487.700195312 c 2,45,-1
 226.932617188 487.700195312 l 2,46,47
 218.06640625 487.700195312 218.06640625 487.700195312 218.06640625 496.56640625 c 2,48,-1
 218.06640625 530.1328125 l 1,49,-1
 187.033203125 560.533203125 l 1,50,-1
 185.1328125 560.533203125 l 1,51,-1
 153.466796875 530.1328125 l 1,0,-1
EndSplineSet
Validated: 524289
Ligature2: "'liga' Make Double Sharps-1" uniE06B uniE06B
EndChar

StartChar: uniE08C
Encoding: 57484 57484 111
Width: 0
Flags: W
LayerCount: 2
Fore
SplineSet
153.466796875 612.1328125 m 5,0,-1
 153.466796875 578.56640625 l 6,1,2
 153.466796875 569.700195312 153.466796875 569.700195312 145.233398438 569.700195312 c 6,3,-1
 107.866210938 569.700195312 l 6,4,5
 99 569.700195312 99 569.700195312 99 578.56640625 c 6,6,-1
 99 615.93359375 l 6,7,8
 99 624.166992188 99 624.166992188 107.866210938 624.166992188 c 6,9,-1
 141.432617188 624.166992188 l 5,10,-1
 172.466796875 655.833007812 l 5,11,-1
 172.466796875 657.733398438 l 5,12,-1
 141.432617188 688.766601562 l 5,13,-1
 107.866210938 688.766601562 l 6,14,15
 99 688.766601562 99 688.766601562 99 697.6328125 c 6,16,-1
 99 735 l 6,17,18
 99 743.866210938 99 743.866210938 107.866210938 743.866210938 c 6,19,-1
 145.233398438 743.866210938 l 6,20,21
 153.466796875 743.866210938 153.466796875 743.866210938 153.466796875 735 c 6,22,-1
 153.466796875 701.43359375 l 5,23,-1
 185.1328125 669.766601562 l 5,24,-1
 187.033203125 669.766601562 l 5,25,-1
 218.06640625 701.43359375 l 5,26,-1
 218.06640625 735 l 6,27,28
 218.06640625 743.866210938 218.06640625 743.866210938 226.932617188 743.866210938 c 6,29,-1
 264.299804688 743.866210938 l 6,30,31
 273.166015625 743.866210938 273.166015625 743.866210938 273.166015625 735 c 6,32,-1
 273.166015625 697.6328125 l 6,33,34
 273.166015625 688.766601562 273.166015625 688.766601562 264.299804688 688.766601562 c 6,35,-1
 230.733398438 688.766601562 l 5,36,-1
 199.06640625 657.099609375 l 5,37,-1
 199.06640625 655.833007812 l 5,38,-1
 230.733398438 624.166992188 l 5,39,-1
 264.299804688 624.166992188 l 6,40,41
 273.166015625 624.166992188 273.166015625 624.166992188 273.166015625 615.93359375 c 6,42,-1
 273.166015625 578.56640625 l 6,43,44
 273.166015625 569.700195312 273.166015625 569.700195312 264.299804688 569.700195312 c 6,45,-1
 226.932617188 569.700195312 l 6,46,47
 218.06640625 569.700195312 218.06640625 569.700195312 218.06640625 578.56640625 c 6,48,-1
 218.06640625 612.1328125 l 5,49,-1
 187.033203125 642.533203125 l 5,50,-1
 185.1328125 642.533203125 l 5,51,-1
 153.466796875 612.1328125 l 5,0,-1
EndSplineSet
Validated: 524289
Ligature2: "'liga' Make Double Sharps-1" uniE06C uniE06C
EndChar

StartChar: uniE08D
Encoding: 57485 57485 112
Width: 0
Flags: W
LayerCount: 2
Fore
SplineSet
153.466796875 694.1328125 m 1,0,-1
 153.466796875 660.56640625 l 2,1,2
 153.466796875 651.700195312 153.466796875 651.700195312 145.233398438 651.700195312 c 2,3,-1
 107.866210938 651.700195312 l 2,4,5
 99 651.700195312 99 651.700195312 99 660.56640625 c 2,6,-1
 99 697.93359375 l 2,7,8
 99 706.166992188 99 706.166992188 107.866210938 706.166992188 c 2,9,-1
 141.432617188 706.166992188 l 1,10,-1
 172.466796875 737.833007812 l 1,11,-1
 172.466796875 739.733398438 l 1,12,-1
 141.432617188 770.766601562 l 1,13,-1
 107.866210938 770.766601562 l 2,14,15
 99 770.766601562 99 770.766601562 99 779.6328125 c 2,16,-1
 99 817 l 2,17,18
 99 825.866210938 99 825.866210938 107.866210938 825.866210938 c 2,19,-1
 145.233398438 825.866210938 l 2,20,21
 153.466796875 825.866210938 153.466796875 825.866210938 153.466796875 817 c 2,22,-1
 153.466796875 783.43359375 l 1,23,-1
 185.1328125 751.766601562 l 1,24,-1
 187.033203125 751.766601562 l 1,25,-1
 218.06640625 783.43359375 l 1,26,-1
 218.06640625 817 l 2,27,28
 218.06640625 825.866210938 218.06640625 825.866210938 226.932617188 825.866210938 c 2,29,-1
 264.299804688 825.866210938 l 2,30,31
 273.166015625 825.866210938 273.166015625 825.866210938 273.166015625 817 c 2,32,-1
 273.166015625 779.6328125 l 2,33,34
 273.166015625 770.766601562 273.166015625 770.766601562 264.299804688 770.766601562 c 2,35,-1
 230.733398438 770.766601562 l 1,36,-1
 199.06640625 739.099609375 l 1,37,-1
 199.06640625 737.833007812 l 1,38,-1
 230.733398438 706.166992188 l 1,39,-1
 264.299804688 706.166992188 l 2,40,41
 273.166015625 706.166992188 273.166015625 706.166992188 273.166015625 697.93359375 c 2,42,-1
 273.166015625 660.56640625 l 2,43,44
 273.166015625 651.700195312 273.166015625 651.700195312 264.299804688 651.700195312 c 2,45,-1
 226.932617188 651.700195312 l 2,46,47
 218.06640625 651.700195312 218.06640625 651.700195312 218.06640625 660.56640625 c 2,48,-1
 218.06640625 694.1328125 l 1,49,-1
 187.033203125 724.533203125 l 1,50,-1
 185.1328125 724.533203125 l 1,51,-1
 153.466796875 694.1328125 l 1,0,-1
EndSplineSet
Validated: 524289
Ligature2: "'liga' Make Double Sharps-1" uniE06D uniE06D
EndChar

StartChar: uniE08E
Encoding: 57486 57486 113
Width: 0
Flags: W
LayerCount: 2
Fore
SplineSet
153.466796875 776.1328125 m 5,0,-1
 153.466796875 742.56640625 l 6,1,2
 153.466796875 733.700195312 153.466796875 733.700195312 145.233398438 733.700195312 c 6,3,-1
 107.866210938 733.700195312 l 6,4,5
 99 733.700195312 99 733.700195312 99 742.56640625 c 6,6,-1
 99 779.93359375 l 6,7,8
 99 788.166992188 99 788.166992188 107.866210938 788.166992188 c 6,9,-1
 141.432617188 788.166992188 l 5,10,-1
 172.466796875 819.833007812 l 5,11,-1
 172.466796875 821.733398438 l 5,12,-1
 141.432617188 852.766601562 l 5,13,-1
 107.866210938 852.766601562 l 6,14,15
 99 852.766601562 99 852.766601562 99 861.6328125 c 6,16,-1
 99 899 l 6,17,18
 99 907.866210938 99 907.866210938 107.866210938 907.866210938 c 6,19,-1
 145.233398438 907.866210938 l 6,20,21
 153.466796875 907.866210938 153.466796875 907.866210938 153.466796875 899 c 6,22,-1
 153.466796875 865.43359375 l 5,23,-1
 185.1328125 833.766601562 l 5,24,-1
 187.033203125 833.766601562 l 5,25,-1
 218.06640625 865.43359375 l 5,26,-1
 218.06640625 899 l 6,27,28
 218.06640625 907.866210938 218.06640625 907.866210938 226.932617188 907.866210938 c 6,29,-1
 264.299804688 907.866210938 l 6,30,31
 273.166015625 907.866210938 273.166015625 907.866210938 273.166015625 899 c 6,32,-1
 273.166015625 861.6328125 l 6,33,34
 273.166015625 852.766601562 273.166015625 852.766601562 264.299804688 852.766601562 c 6,35,-1
 230.733398438 852.766601562 l 5,36,-1
 199.06640625 821.099609375 l 5,37,-1
 199.06640625 819.833007812 l 5,38,-1
 230.733398438 788.166992188 l 5,39,-1
 264.299804688 788.166992188 l 6,40,41
 273.166015625 788.166992188 273.166015625 788.166992188 273.166015625 779.93359375 c 6,42,-1
 273.166015625 742.56640625 l 6,43,44
 273.166015625 733.700195312 273.166015625 733.700195312 264.299804688 733.700195312 c 6,45,-1
 226.932617188 733.700195312 l 6,46,47
 218.06640625 733.700195312 218.06640625 733.700195312 218.06640625 742.56640625 c 6,48,-1
 218.06640625 776.1328125 l 5,49,-1
 187.033203125 806.533203125 l 5,50,-1
 185.1328125 806.533203125 l 5,51,-1
 153.466796875 776.1328125 l 5,0,-1
EndSplineSet
Validated: 524289
Ligature2: "'liga' Make Double Sharps-1" uniE06E uniE06E
EndChar

StartChar: uniE08F
Encoding: 57487 57487 114
Width: 0
Flags: W
LayerCount: 2
Fore
SplineSet
153.466796875 858.1328125 m 5,0,-1
 153.466796875 824.56640625 l 6,1,2
 153.466796875 815.700195312 153.466796875 815.700195312 145.233398438 815.700195312 c 6,3,-1
 107.866210938 815.700195312 l 6,4,5
 99 815.700195312 99 815.700195312 99 824.56640625 c 6,6,-1
 99 861.93359375 l 6,7,8
 99 870.166992188 99 870.166992188 107.866210938 870.166992188 c 6,9,-1
 141.432617188 870.166992188 l 5,10,-1
 172.466796875 901.833007812 l 5,11,-1
 172.466796875 903.733398438 l 5,12,-1
 141.432617188 934.766601562 l 5,13,-1
 107.866210938 934.766601562 l 6,14,15
 99 934.766601562 99 934.766601562 99 943.6328125 c 6,16,-1
 99 981 l 6,17,18
 99 989.866210938 99 989.866210938 107.866210938 989.866210938 c 6,19,-1
 145.233398438 989.866210938 l 6,20,21
 153.466796875 989.866210938 153.466796875 989.866210938 153.466796875 981 c 6,22,-1
 153.466796875 947.43359375 l 5,23,-1
 185.1328125 915.766601562 l 5,24,-1
 187.033203125 915.766601562 l 5,25,-1
 218.06640625 947.43359375 l 5,26,-1
 218.06640625 981 l 6,27,28
 218.06640625 989.866210938 218.06640625 989.866210938 226.932617188 989.866210938 c 6,29,-1
 264.299804688 989.866210938 l 6,30,31
 273.166015625 989.866210938 273.166015625 989.866210938 273.166015625 981 c 6,32,-1
 273.166015625 943.6328125 l 6,33,34
 273.166015625 934.766601562 273.166015625 934.766601562 264.299804688 934.766601562 c 6,35,-1
 230.733398438 934.766601562 l 5,36,-1
 199.06640625 903.099609375 l 5,37,-1
 199.06640625 901.833007812 l 5,38,-1
 230.733398438 870.166992188 l 5,39,-1
 264.299804688 870.166992188 l 6,40,41
 273.166015625 870.166992188 273.166015625 870.166992188 273.166015625 861.93359375 c 6,42,-1
 273.166015625 824.56640625 l 6,43,44
 273.166015625 815.700195312 273.166015625 815.700195312 264.299804688 815.700195312 c 6,45,-1
 226.932617188 815.700195312 l 6,46,47
 218.06640625 815.700195312 218.06640625 815.700195312 218.06640625 824.56640625 c 6,48,-1
 218.06640625 858.1328125 l 5,49,-1
 187.033203125 888.533203125 l 5,50,-1
 185.1328125 888.533203125 l 5,51,-1
 153.466796875 858.1328125 l 5,0,-1
EndSplineSet
Validated: 524289
Ligature2: "'liga' Make Double Sharps-1" uniE06F uniE06F
EndChar

StartChar: uniE090
Encoding: 57488 57488 115
Width: 0
Flags: W
LayerCount: 2
Fore
SplineSet
153.466796875 940.1328125 m 5,0,-1
 153.466796875 906.56640625 l 6,1,2
 153.466796875 897.700195312 153.466796875 897.700195312 145.233398438 897.700195312 c 6,3,-1
 107.866210938 897.700195312 l 6,4,5
 99 897.700195312 99 897.700195312 99 906.56640625 c 6,6,-1
 99 943.93359375 l 6,7,8
 99 952.166992188 99 952.166992188 107.866210938 952.166992188 c 6,9,-1
 141.432617188 952.166992188 l 5,10,-1
 172.466796875 983.833007812 l 5,11,-1
 172.466796875 985.733398438 l 5,12,-1
 141.432617188 1016.76660156 l 5,13,-1
 107.866210938 1016.76660156 l 6,14,15
 99 1016.76660156 99 1016.76660156 99 1025.6328125 c 6,16,-1
 99 1063 l 6,17,18
 99 1071.86621094 99 1071.86621094 107.866210938 1071.86621094 c 6,19,-1
 145.233398438 1071.86621094 l 6,20,21
 153.466796875 1071.86621094 153.466796875 1071.86621094 153.466796875 1063 c 6,22,-1
 153.466796875 1029.43359375 l 5,23,-1
 185.1328125 997.766601562 l 5,24,-1
 187.033203125 997.766601562 l 5,25,-1
 218.06640625 1029.43359375 l 5,26,-1
 218.06640625 1063 l 6,27,28
 218.06640625 1071.86621094 218.06640625 1071.86621094 226.932617188 1071.86621094 c 6,29,-1
 264.299804688 1071.86621094 l 6,30,31
 273.166015625 1071.86621094 273.166015625 1071.86621094 273.166015625 1063 c 6,32,-1
 273.166015625 1025.6328125 l 6,33,34
 273.166015625 1016.76660156 273.166015625 1016.76660156 264.299804688 1016.76660156 c 6,35,-1
 230.733398438 1016.76660156 l 5,36,-1
 199.06640625 985.099609375 l 5,37,-1
 199.06640625 983.833007812 l 5,38,-1
 230.733398438 952.166992188 l 5,39,-1
 264.299804688 952.166992188 l 6,40,41
 273.166015625 952.166992188 273.166015625 952.166992188 273.166015625 943.93359375 c 6,42,-1
 273.166015625 906.56640625 l 6,43,44
 273.166015625 897.700195312 273.166015625 897.700195312 264.299804688 897.700195312 c 6,45,-1
 226.932617188 897.700195312 l 6,46,47
 218.06640625 897.700195312 218.06640625 897.700195312 218.06640625 906.56640625 c 6,48,-1
 218.06640625 940.1328125 l 5,49,-1
 187.033203125 970.533203125 l 5,50,-1
 185.1328125 970.533203125 l 5,51,-1
 153.466796875 940.1328125 l 5,0,-1
EndSplineSet
Validated: 524289
Ligature2: "'liga' Make Double Sharps-1" uniE070 uniE070
EndChar

StartChar: uniE091
Encoding: 57489 57489 116
Width: 0
Flags: W
LayerCount: 2
Fore
SplineSet
153.466796875 1022.1328125 m 1,0,-1
 153.466796875 988.56640625 l 2,1,2
 153.466796875 979.700195312 153.466796875 979.700195312 145.233398438 979.700195312 c 2,3,-1
 107.866210938 979.700195312 l 2,4,5
 99 979.700195312 99 979.700195312 99 988.56640625 c 2,6,-1
 99 1025.93359375 l 2,7,8
 99 1034.16699219 99 1034.16699219 107.866210938 1034.16699219 c 2,9,-1
 141.432617188 1034.16699219 l 1,10,-1
 172.466796875 1065.83300781 l 1,11,-1
 172.466796875 1067.73339844 l 1,12,-1
 141.432617188 1098.76660156 l 1,13,-1
 107.866210938 1098.76660156 l 2,14,15
 99 1098.76660156 99 1098.76660156 99 1107.6328125 c 2,16,-1
 99 1145 l 2,17,18
 99 1153.86621094 99 1153.86621094 107.866210938 1153.86621094 c 2,19,-1
 145.233398438 1153.86621094 l 2,20,21
 153.466796875 1153.86621094 153.466796875 1153.86621094 153.466796875 1145 c 2,22,-1
 153.466796875 1111.43359375 l 1,23,-1
 185.1328125 1079.76660156 l 1,24,-1
 187.033203125 1079.76660156 l 1,25,-1
 218.06640625 1111.43359375 l 1,26,-1
 218.06640625 1145 l 2,27,28
 218.06640625 1153.86621094 218.06640625 1153.86621094 226.932617188 1153.86621094 c 2,29,-1
 264.299804688 1153.86621094 l 2,30,31
 273.166015625 1153.86621094 273.166015625 1153.86621094 273.166015625 1145 c 2,32,-1
 273.166015625 1107.6328125 l 2,33,34
 273.166015625 1098.76660156 273.166015625 1098.76660156 264.299804688 1098.76660156 c 2,35,-1
 230.733398438 1098.76660156 l 1,36,-1
 199.06640625 1067.09960938 l 1,37,-1
 199.06640625 1065.83300781 l 1,38,-1
 230.733398438 1034.16699219 l 1,39,-1
 264.299804688 1034.16699219 l 2,40,41
 273.166015625 1034.16699219 273.166015625 1034.16699219 273.166015625 1025.93359375 c 2,42,-1
 273.166015625 988.56640625 l 2,43,44
 273.166015625 979.700195312 273.166015625 979.700195312 264.299804688 979.700195312 c 2,45,-1
 226.932617188 979.700195312 l 2,46,47
 218.06640625 979.700195312 218.06640625 979.700195312 218.06640625 988.56640625 c 2,48,-1
 218.06640625 1022.1328125 l 1,49,-1
 187.033203125 1052.53320312 l 1,50,-1
 185.1328125 1052.53320312 l 1,51,-1
 153.466796875 1022.1328125 l 1,0,-1
EndSplineSet
Validated: 524289
Ligature2: "'liga' Make Double Sharps-1" uniE071 uniE071
EndChar

StartChar: uniE092
Encoding: 57490 57490 117
Width: 275
VWidth: 1000
Flags: W
HStem: -137 86<10 67 14 67 14 73 208 261> 1 20<136 158> 51 87<10 73 14 67 208 208 208 261>
VStem: 0 86<-123 -70 -127 -64 -127 -60 71 124> 188 87<-123 -70 -70 -70 71 124>
LayerCount: 2
Fore
SplineSet
86 -70 m 5,0,-1
 86 -123 l 6,1,2
 86 -137 86 -137 73 -137 c 6,3,-1
 14 -137 l 6,4,5
 0 -137 0 -137 0 -123 c 6,6,-1
 0 -64 l 6,7,8
 0 -51 0 -51 14 -51 c 6,9,-1
 67 -51 l 5,10,-1
 116 -1 l 5,11,-1
 116 2 l 5,12,-1
 67 51 l 5,13,-1
 14 51 l 6,14,15
 0 51 0 51 0 65 c 6,16,-1
 0 124 l 6,17,18
 0 138 0 138 14 138 c 6,19,-1
 73 138 l 6,20,21
 86 138 86 138 86 124 c 6,22,-1
 86 71 l 5,23,-1
 136 21 l 5,24,-1
 139 21 l 5,25,-1
 188 71 l 5,26,-1
 188 124 l 6,27,28
 188 138 188 138 202 138 c 6,29,-1
 261 138 l 6,30,31
 275 138 275 138 275 124 c 6,32,-1
 275 65 l 6,33,34
 275 51 275 51 261 51 c 6,35,-1
 208 51 l 5,36,-1
 158 1 l 5,37,-1
 158 -1 l 5,38,-1
 208 -51 l 5,39,-1
 261 -51 l 6,40,41
 275 -51 275 -51 275 -64 c 6,42,-1
 275 -123 l 6,43,44
 275 -137 275 -137 261 -137 c 6,45,-1
 202 -137 l 6,46,47
 188 -137 188 -137 188 -123 c 6,48,-1
 188 -70 l 5,49,-1
 139 -22 l 5,50,-1
 136 -22 l 5,51,-1
 86 -70 l 5,0,-1
EndSplineSet
Validated: 1
EndChar

StartChar: uniE093
Encoding: 57491 57491 118
Width: 275
VWidth: 1000
Flags: W
LayerCount: 2
Fore
SplineSet
104.883789062 -44.150390625 m 5,0,-1
 104.883789062 -77.716796875 l 6,1,2
 104.883789062 -86.5830078125 104.883789062 -86.5830078125 96.650390625 -86.5830078125 c 6,3,-1
 59.283203125 -86.5830078125 l 6,4,5
 50.4169921875 -86.5830078125 50.4169921875 -86.5830078125 50.4169921875 -77.716796875 c 6,6,-1
 50.4169921875 -40.349609375 l 6,7,8
 50.4169921875 -32.1162109375 50.4169921875 -32.1162109375 59.283203125 -32.1162109375 c 6,9,-1
 92.849609375 -32.1162109375 l 5,10,-1
 123.883789062 -0.4501953125 l 5,11,-1
 123.883789062 1.4501953125 l 5,12,-1
 92.849609375 32.4833984375 l 5,13,-1
 59.283203125 32.4833984375 l 6,14,15
 50.4169921875 32.4833984375 50.4169921875 32.4833984375 50.4169921875 41.349609375 c 6,16,-1
 50.4169921875 78.716796875 l 6,17,18
 50.4169921875 87.5830078125 50.4169921875 87.5830078125 59.283203125 87.5830078125 c 6,19,-1
 96.650390625 87.5830078125 l 6,20,21
 104.883789062 87.5830078125 104.883789062 87.5830078125 104.883789062 78.716796875 c 6,22,-1
 104.883789062 45.150390625 l 5,23,-1
 136.549804688 13.4833984375 l 5,24,-1
 138.450195312 13.4833984375 l 5,25,-1
 169.483398438 45.150390625 l 5,26,-1
 169.483398438 78.716796875 l 6,27,28
 169.483398438 87.5830078125 169.483398438 87.5830078125 178.349609375 87.5830078125 c 6,29,-1
 215.716796875 87.5830078125 l 6,30,31
 224.583007812 87.5830078125 224.583007812 87.5830078125 224.583007812 78.716796875 c 6,32,-1
 224.583007812 41.349609375 l 6,33,34
 224.583007812 32.4833984375 224.583007812 32.4833984375 215.716796875 32.4833984375 c 6,35,-1
 182.150390625 32.4833984375 l 5,36,-1
 150.483398438 0.81640625 l 5,37,-1
 150.483398438 -0.4501953125 l 5,38,-1
 182.150390625 -32.1162109375 l 5,39,-1
 215.716796875 -32.1162109375 l 6,40,41
 224.583007812 -32.1162109375 224.583007812 -32.1162109375 224.583007812 -40.349609375 c 6,42,-1
 224.583007812 -77.716796875 l 6,43,44
 224.583007812 -86.5830078125 224.583007812 -86.5830078125 215.716796875 -86.5830078125 c 6,45,-1
 178.349609375 -86.5830078125 l 6,46,47
 169.483398438 -86.5830078125 169.483398438 -86.5830078125 169.483398438 -77.716796875 c 6,48,-1
 169.483398438 -44.150390625 l 5,49,-1
 138.450195312 -13.75 l 5,50,-1
 136.549804688 -13.75 l 5,51,-1
 104.883789062 -44.150390625 l 5,0,-1
EndSplineSet
Validated: 524289
EndChar

StartChar: uniE0AC
Encoding: 57516 57516 119
Width: 511
Flags: W
LayerCount: 2
Fore
SplineSet
30 433 m 2,0,-1
 84 433 l 2,1,2
 93 433 93 433 93 424 c 2,3,-1
 93 415 l 1,4,-1
 138 415 l 1,5,-1
 138 424 l 2,6,7
 138 433 138 433 148 433 c 128,-1,8
 158 433 158 433 158 424 c 2,9,-1
 158 415 l 1,10,-1
 200 415 l 1,11,-1
 220.32070979 415 l 1,12,13
 259.367671968 443 259.367671968 443 323 443 c 0,14,15
 379.6384065 443 379.6384065 443 421.958631183 415 c 1,16,-1
 732 415 l 1,17,-1
 732 404 l 1,18,-1
 436.745397962 404 l 1,19,20
 439.661240277 401.575369646 439.661240277 401.575369646 442.5 399 c 0,21,22
 491 355 491 355 491 279 c 0,23,24
 491 264.620243533 491 264.620243533 489.291095901 251 c 1,25,-1
 732 251 l 1,26,-1
 732 241 l 1,27,-1
 487.788168977 241 l 1,28,29
 480.247050785 198.065348313 480.247050785 198.065348313 455 163 c 0,30,31
 419 113 419 113 354 113 c 0,32,33
 313 113 313 113 283 132 c 1,34,-1
 280.5 127.5 l 2,35,36
 278 123 278 123 274.5 118 c 128,-1,37
 271 113 271 113 266.5 106.5 c 128,-1,38
 262 100 262 100 255.5 93.5 c 0,39,40
 252.03713421 90.0371342105 252.03713421 90.0371342105 248.432357895 87 c 1,41,-1
 317 87 l 1,42,-1
 732 87 l 1,43,-1
 732 77 l 1,44,-1
 317 77 l 1,45,-1
 248.432357895 77 l 1,46,47
 252.03713421 73.9628657895 252.03713421 73.9628657895 255.5 70.5 c 0,48,49
 262 64 262 64 266.5 57.5 c 128,-1,50
 271 51 271 51 274.5 46 c 128,-1,51
 278 41 278 41 280.5 36.5 c 2,52,-1
 283 32 l 1,53,54
 314 51 314 51 345 51 c 0,55,56
 415 51 415 51 453 4.5 c 128,-1,57
 491 -42 491 -42 491 -114 c 0,58,59
 491 -190 491 -190 442.5 -234.5 c 128,-1,60
 394 -279 394 -279 323 -279 c 0,61,62
 247 -279 247 -279 205 -237 c 1,63,64
 185 -211 185 -211 185 -186 c 0,65,66
 185 -159 185 -159 203 -142 c 128,-1,67
 221 -125 221 -125 248 -125 c 0,68,69
 272 -125 272 -125 288 -142 c 128,-1,70
 304 -159 304 -159 304 -183 c 0,71,72
 304 -197 304 -197 296 -213 c 0,73,74
 282 -237 282 -237 241 -237 c 1,75,76
 266 -255 266 -255 305 -255 c 0,77,78
 359 -255 359 -255 377.5 -220.5 c 128,-1,79
 396 -186 396 -186 396 -125 c 0,80,81
 396 -95 396 -95 394.5 -77 c 128,-1,82
 393 -59 393 -59 387.5 -34 c 128,-1,83
 382 -9 382 -9 367 3.5 c 128,-1,84
 352 16 352 16 329 16 c 0,85,86
 268 16 268 16 248 -63 c 0,87,88
 248 -73 248 -73 237 -73 c 128,-1,89
 226 -73 226 -73 226 -63 c 0,90,91
 211 -4 211 -4 200 22 c 0,92,93
 185 58 185 58 158 68 c 1,94,-1
 158 -259 l 2,95,96
 158 -269 158 -269 148 -269 c 128,-1,97
 138 -269 138 -269 138 -259 c 2,98,-1
 138 77 l 1,99,-1
 93 77 l 1,100,-1
 93 -259 l 2,101,102
 93 -269 93 -269 84 -269 c 2,103,-1
 30 -269 l 2,104,105
 20 -269 20 -269 20 -259 c 2,106,-1
 20 77 l 1,107,-1
 0 77 l 1,108,-1
 0 87 l 1,109,-1
 20 87 l 1,110,-1
 20 241 l 1,111,-1
 0 241 l 1,112,-1
 0 251 l 1,113,-1
 20 251 l 1,114,-1
 20 404 l 1,115,-1
 0 404 l 1,116,-1
 0 415 l 1,117,-1
 20 415 l 1,118,-1
 20 424 l 2,119,120
 20 433 20 433 30 433 c 2,0,-1
200 241 m 1,121,-1
 158 241 l 1,122,-1
 158 96 l 1,123,124
 185 107 185 107 202.5 147 c 128,-1,125
 220 187 220 187 226 227 c 0,126,127
 226 238 226 238 237 238 c 128,-1,128
 248 238 248 238 248 227 c 0,129,130
 268 148 268 148 329 148 c 0,131,132
 352 148 352 148 367 161 c 128,-1,133
 382 174 382 174 387.5 199 c 0,134,135
 392.778592813 222.993603695 392.778592813 222.993603695 394.372750309 241 c 1,136,-1
 317 241 l 1,137,-1
 200 241 l 1,121,-1
317 251 m 1,138,-1
 395.079041204 251 l 1,139,140
 396 267.276644215 396 267.276644215 396 290 c 0,141,142
 396 351 396 351 377.5 385.5 c 0,143,144
 371.598596655 396.505319751 371.598596655 396.505319751 362.084796142 404 c 1,145,-1
 317 404 l 1,146,-1
 243.905339201 404 l 2,147,148
 242.42977396 403.029437252 242.42977396 403.029437252 241 402 c 1,149,150
 282 402 282 402 296 378 c 0,151,152
 304 362 304 362 304 348 c 0,153,154
 304 324 304 324 288 306.5 c 128,-1,155
 272 289 272 289 248 289 c 0,156,157
 220 289 220 289 202.5 306.5 c 128,-1,158
 185 324 185 324 185 351 c 0,159,160
 185 376 185 376 205 402 c 0,161,162
 206.012501954 403.012501954 206.012501954 403.012501954 207.046958558 404 c 1,163,-1
 200 404 l 1,164,-1
 158 404 l 1,165,-1
 158 251 l 1,166,-1
 200 251 l 1,167,-1
 317 251 l 1,138,-1
317 415 m 1,168,-1
 340.969969796 415 l 1,169,170
 325.557448666 420 325.557448666 420 305 420 c 128,-1,171
 284.445195209 420 284.445195209 420 267.779279307 415 c 1,172,-1
 317 415 l 1,168,-1
200 568 m 1,173,-1
 0 568 l 1,174,-1
 0 579 l 1,175,-1
 200 579 l 1,176,-1
 317 579 l 1,177,-1
 732 579 l 1,178,-1
 732 568 l 1,179,-1
 317 568 l 1,180,-1
 200 568 l 1,173,-1
200 732 m 1,181,-1
 0 732 l 1,182,-1
 0 742 l 1,183,-1
 200 742 l 1,184,-1
 317 742 l 1,185,-1
 732 742 l 1,186,-1
 732 732 l 1,187,-1
 317 732 l 1,188,-1
 200 732 l 1,181,-1
93 404 m 1,189,-1
 93 251 l 1,190,-1
 138 251 l 1,191,-1
 138 404 l 1,192,-1
 93 404 l 1,189,-1
93 241 m 1,193,-1
 93 87 l 1,194,-1
 138 87 l 1,195,-1
 138 241 l 1,196,-1
 93 241 l 1,193,-1
EndSplineSet
Validated: 524289
EndChar

StartChar: uniE0AA
Encoding: 57514 57514 120
Width: 511
Flags: W
LayerCount: 2
Fore
SplineSet
30 597 m 2,0,-1
 84 597 l 2,1,2
 93 597 93 597 93 588 c 2,3,-1
 93 579 l 1,4,-1
 138 579 l 1,5,-1
 138 588 l 2,6,7
 138 597 138 597 148 597 c 128,-1,8
 158 597 158 597 158 588 c 2,9,-1
 158 579 l 1,10,-1
 200 579 l 1,11,-1
 220.32070979 579 l 1,12,13
 259.367671968 607 259.367671968 607 323 607 c 0,14,15
 379.6384065 607 379.6384065 607 421.958631183 579 c 1,16,-1
 732 579 l 1,17,-1
 732 568 l 1,18,-1
 436.745397962 568 l 1,19,20
 439.661240277 565.575369646 439.661240277 565.575369646 442.5 563 c 0,21,22
 491 519 491 519 491 443 c 0,23,24
 491 428.620243533 491 428.620243533 489.291095901 415 c 1,25,-1
 732 415 l 1,26,-1
 732 404 l 1,27,-1
 487.609932936 404 l 1,28,29
 479.952719144 361.656554366 479.952719144 361.656554366 455 327 c 0,30,31
 419 277 419 277 354 277 c 0,32,33
 313 277 313 277 283 296 c 1,34,-1
 280.5 291.5 l 2,35,36
 278 287 278 287 274.5 282 c 128,-1,37
 271 277 271 277 266.5 270.5 c 128,-1,38
 262 264 262 264 255.5 257.5 c 0,39,40
 252.03713421 254.03713421 252.03713421 254.03713421 248.432357895 251 c 1,41,-1
 317 251 l 1,42,-1
 732 251 l 1,43,-1
 732 241 l 1,44,-1
 317 241 l 1,45,-1
 248.432357895 241 l 1,46,47
 252.03713421 237.96286579 252.03713421 237.96286579 255.5 234.5 c 0,48,49
 262 228 262 228 266.5 221.5 c 128,-1,50
 271 215 271 215 274.5 210 c 128,-1,51
 278 205 278 205 280.5 200.5 c 2,52,-1
 283 196 l 1,53,54
 314 215 314 215 345 215 c 0,55,56
 415 215 415 215 453 168.5 c 0,57,58
 480.746142016 134.547484113 480.746142016 134.547484113 488.233115696 87 c 1,59,-1
 732 87 l 1,60,-1
 732 77 l 1,61,-1
 489.567223098 77 l 1,62,63
 491 63.9807343552 491 63.9807343552 491 50 c 0,64,65
 491 -26 491 -26 442.5 -70.5 c 128,-1,66
 394 -115 394 -115 323 -115 c 0,67,68
 247 -115 247 -115 205 -73 c 1,69,70
 185 -47 185 -47 185 -22 c 0,71,72
 185 5 185 5 203 22 c 128,-1,73
 221 39 221 39 248 39 c 0,74,75
 272 39 272 39 288 22 c 128,-1,76
 304 5 304 5 304 -19 c 0,77,78
 304 -33 304 -33 296 -49 c 0,79,80
 282 -73 282 -73 241 -73 c 1,81,82
 266 -91 266 -91 305 -91 c 0,83,84
 359 -91 359 -91 377.5 -56.5 c 128,-1,85
 396 -22 396 -22 396 39 c 0,86,87
 396 61.3217312357 396 61.3217312357 395.169567191 77 c 1,88,-1
 317 77 l 1,89,-1
 200 77 l 1,90,-1
 158 77 l 1,91,-1
 158 -95 l 2,92,93
 158 -105 158 -105 148 -105 c 128,-1,94
 138 -105 138 -105 138 -95 c 2,95,-1
 138 77 l 1,96,-1
 93 77 l 1,97,-1
 93 -95 l 2,98,99
 93 -105 93 -105 84 -105 c 2,100,-1
 30 -105 l 2,101,102
 20 -105 20 -105 20 -95 c 2,103,-1
 20 77 l 1,104,-1
 0 77 l 1,105,-1
 0 87 l 1,106,-1
 20 87 l 1,107,-1
 20 241 l 1,108,-1
 0 241 l 1,109,-1
 0 251 l 1,110,-1
 20 251 l 1,111,-1
 20 404 l 1,112,-1
 0 404 l 1,113,-1
 0 415 l 1,114,-1
 20 415 l 1,115,-1
 20 568 l 1,116,-1
 0 568 l 1,117,-1
 0 579 l 1,118,-1
 20 579 l 1,119,-1
 20 588 l 2,120,121
 20 597 20 597 30 597 c 2,0,-1
317 87 m 1,122,-1
 394.5 87 l 1,123,124
 393 105 393 105 387.5 130 c 128,-1,125
 382 155 382 155 367 167.5 c 128,-1,126
 352 180 352 180 329 180 c 0,127,128
 268 180 268 180 248 101 c 0,129,130
 248 91 248 91 237 91 c 128,-1,131
 226 91 226 91 226 101 c 0,132,133
 211 160 211 160 200 186 c 0,134,135
 185 222 185 222 158 232 c 1,136,-1
 158 87 l 1,137,-1
 200 87 l 1,138,-1
 317 87 l 1,122,-1
200 404 m 1,139,-1
 158 404 l 1,140,-1
 158 260 l 1,141,142
 185 271 185 271 202.5 311 c 128,-1,143
 220 351 220 351 226 391 c 0,144,145
 226 402 226 402 237 402 c 128,-1,146
 248 402 248 402 248 391 c 0,147,148
 268 312 268 312 329 312 c 0,149,150
 352 312 352 312 367 325 c 128,-1,151
 382 338 382 338 387.5 363 c 0,152,153
 392.632687806 386.33039912 392.632687806 386.33039912 394.281807465 404 c 1,154,-1
 317 404 l 1,155,-1
 200 404 l 1,139,-1
317 415 m 1,156,-1
 395.079041204 415 l 1,157,158
 396 431.276644215 396 431.276644215 396 454 c 0,159,160
 396 515 396 515 377.5 549.5 c 0,161,162
 371.598596655 560.505319751 371.598596655 560.505319751 362.084796142 568 c 1,163,-1
 317 568 l 1,164,-1
 243.905339201 568 l 2,165,166
 242.42977396 567.029437252 242.42977396 567.029437252 241 566 c 1,167,168
 282 566 282 566 296 542 c 0,169,170
 304 526 304 526 304 512 c 0,171,172
 304 488 304 488 288 470.5 c 128,-1,173
 272 453 272 453 248 453 c 0,174,175
 220 453 220 453 202.5 470.5 c 128,-1,176
 185 488 185 488 185 515 c 0,177,178
 185 540 185 540 205 566 c 0,179,180
 206.012501954 567.012501954 206.012501954 567.012501954 207.046958558 568 c 1,181,-1
 200 568 l 1,182,-1
 158 568 l 1,183,-1
 158 415 l 1,184,-1
 200 415 l 1,185,-1
 317 415 l 1,156,-1
317 579 m 1,186,-1
 340.969969796 579 l 1,187,188
 325.557448666 584 325.557448666 584 305 584 c 128,-1,189
 284.445195209 584 284.445195209 584 267.779279307 579 c 1,190,-1
 317 579 l 1,186,-1
200 732 m 1,191,-1
 0 732 l 1,192,-1
 0 742 l 1,193,-1
 200 742 l 1,194,-1
 317 742 l 1,195,-1
 732 742 l 1,196,-1
 732 732 l 1,197,-1
 317 732 l 1,198,-1
 200 732 l 1,191,-1
93 568 m 1,199,-1
 93 415 l 1,200,-1
 138 415 l 1,201,-1
 138 568 l 1,202,-1
 93 568 l 1,199,-1
93 404 m 1,203,-1
 93 251 l 1,204,-1
 138 251 l 1,205,-1
 138 404 l 1,206,-1
 93 404 l 1,203,-1
93 241 m 1,207,-1
 93 87 l 1,208,-1
 138 87 l 1,209,-1
 138 241 l 1,210,-1
 93 241 l 1,207,-1
EndSplineSet
Validated: 524289
EndChar

StartChar: uniE0AF
Encoding: 57519 57519 121
Width: 511
Flags: W
LayerCount: 2
Fore
SplineSet
30 760 m 2,0,-1
 84 760 l 2,1,2
 93 760 93 760 93 751 c 2,3,-1
 93 742 l 1,4,-1
 138 742 l 1,5,-1
 138 751 l 2,6,7
 138 760 138 760 148 760 c 128,-1,8
 158 760 158 760 158 751 c 2,9,-1
 158 742 l 1,10,-1
 200 742 l 1,11,-1
 220.32070979 742 l 1,12,13
 259.367671968 770 259.367671968 770 323 770 c 0,14,15
 379.6384065 770 379.6384065 770 421.958631183 742 c 1,16,-1
 732 742 l 1,17,-1
 732 732 l 1,18,-1
 435.531675393 732 l 1,19,20
 439.072038298 729.109903399 439.072038298 729.109903399 442.5 726 c 0,21,22
 491 682 491 682 491 606 c 0,23,24
 491 592.147586096 491 592.147586096 489.41413743 579 c 1,25,-1
 732 579 l 1,26,-1
 732 568 l 1,27,-1
 487.788168977 568 l 1,28,29
 480.247050785 525.065348313 480.247050785 525.065348313 455 490 c 0,30,31
 419 440 419 440 354 440 c 0,32,33
 313 440 313 440 283 459 c 1,34,-1
 280.5 454.5 l 2,35,36
 278 450 278 450 274.5 445 c 128,-1,37
 271 440 271 440 266.5 433.5 c 128,-1,38
 262 427 262 427 255.5 420.5 c 0,39,40
 252.600791544 417.600791544 252.600791544 417.600791544 249.602110785 415 c 1,41,-1
 317 415 l 1,42,-1
 732 415 l 1,43,-1
 732 404 l 1,44,-1
 317 404 l 1,45,-1
 248.432357895 404 l 1,46,47
 252.03713421 400.96286579 252.03713421 400.96286579 255.5 397.5 c 0,48,49
 262 391 262 391 266.5 384.5 c 128,-1,50
 271 378 271 378 274.5 373 c 128,-1,51
 278 368 278 368 280.5 363.5 c 2,52,-1
 283 359 l 1,53,54
 314 378 314 378 345 378 c 0,55,56
 415 378 415 378 453 331.5 c 0,57,58
 480.453929074 297.905060475 480.453929074 297.905060475 488.073168106 251 c 1,59,-1
 732 251 l 1,60,-1
 732 241 l 1,61,-1
 489.454896838 241 l 1,62,63
 491 227.518422771 491 227.518422771 491 213 c 0,64,65
 491 137 491 137 442.5 92.5 c 0,66,67
 439.403991806 89.6593326879 439.403991806 89.6593326879 436.216297566 87 c 1,68,-1
 732 87 l 1,69,-1
 732 77 l 1,70,-1
 422.969466177 77 l 1,71,72
 380.316193762 48 380.316193762 48 323 48 c 0,73,74
 259.847878292 48 259.847878292 48 220.171947061 77 c 1,75,-1
 200 77 l 1,76,-1
 158 77 l 1,77,-1
 158 68 l 2,78,79
 158 58 158 58 148 58 c 128,-1,80
 138 58 138 58 138 68 c 2,81,-1
 138 77 l 1,82,-1
 93 77 l 1,83,-1
 93 68 l 2,84,85
 93 58 93 58 84 58 c 2,86,-1
 30 58 l 2,87,88
 20 58 20 58 20 68 c 2,89,-1
 20 77 l 1,90,-1
 0 77 l 1,91,-1
 0 87 l 1,92,-1
 20 87 l 1,93,-1
 20 241 l 1,94,-1
 0 241 l 1,95,-1
 0 251 l 1,96,-1
 20 251 l 1,97,-1
 20 404 l 1,98,-1
 0 404 l 1,99,-1
 0 415 l 1,100,-1
 20 415 l 1,101,-1
 20 568 l 1,102,-1
 0 568 l 1,103,-1
 0 579 l 1,104,-1
 20 579 l 1,105,-1
 20 732 l 1,106,-1
 0 732 l 1,107,-1
 0 742 l 1,108,-1
 20 742 l 1,109,-1
 20 751 l 2,110,111
 20 760 20 760 30 760 c 2,0,-1
317 77 m 1,112,-1
 267.779279307 77 l 1,113,114
 284.445195209 72 284.445195209 72 305 72 c 128,-1,115
 325.557448666 72 325.557448666 72 340.969969796 77 c 1,116,-1
 317 77 l 1,112,-1
317 87 m 1,117,-1
 360.778308518 87 l 1,118,119
 371.198538758 94.7486263322 371.198538758 94.7486263322 377.5 106.5 c 0,120,121
 396 141 396 141 396 202 c 0,122,123
 396 225.038475773 396 225.038475773 395.115381057 241 c 1,124,-1
 317 241 l 1,125,-1
 200 241 l 1,126,-1
 158 241 l 1,127,-1
 158 87 l 1,128,-1
 200 87 l 1,129,-1
 208.100563599 87 l 1,130,131
 206.52778731 88.4722126897 206.52778731 88.4722126897 205 90 c 0,132,133
 185 116 185 116 185 141 c 0,134,135
 185 168 185 168 203 185 c 128,-1,136
 221 202 221 202 248 202 c 0,137,138
 272 202 272 202 288 185 c 128,-1,139
 304 168 304 168 304 144 c 0,140,141
 304 130 304 130 296 114 c 0,142,143
 282 90 282 90 241 90 c 1,144,145
 243.178226771 88.4316767252 243.178226771 88.4316767252 245.462734191 87 c 2,146,-1
 317 87 l 1,117,-1
317 251 m 1,147,-1
 394.41405845 251 l 1,148,149
 392.848038615 268.690733567 392.848038615 268.690733567 387.5 293 c 0,150,151
 382 318 382 318 367 330.5 c 128,-1,152
 352 343 352 343 329 343 c 0,153,154
 268 343 268 343 248 264 c 0,155,156
 248 254 248 254 237 254 c 128,-1,157
 226 254 226 254 226 264 c 0,158,159
 211 323 211 323 200 349 c 0,160,161
 185 385 185 385 158 395 c 1,162,-1
 158 251 l 1,163,-1
 200 251 l 1,164,-1
 317 251 l 1,147,-1
200 568 m 1,165,-1
 158 568 l 1,166,-1
 158 423 l 1,167,168
 185 434 185 434 202.5 474 c 128,-1,169
 220 514 220 514 226 554 c 0,170,171
 226 565 226 565 237 565 c 128,-1,172
 248 565 248 565 248 554 c 0,173,174
 268 475 268 475 329 475 c 0,175,176
 352 475 352 475 367 488 c 128,-1,177
 382 501 382 501 387.5 526 c 0,178,179
 392.778592813 549.993603695 392.778592813 549.993603695 394.372750309 568 c 1,180,-1
 317 568 l 1,181,-1
 200 568 l 1,165,-1
317 579 m 1,182,-1
 395.134424087 579 l 1,183,184
 396 594.970484305 396 594.970484305 396 617 c 0,185,186
 396 678 396 678 377.5 712.5 c 0,187,188
 371.198538758 724.251373668 371.198538758 724.251373668 360.778308518 732 c 1,189,-1
 317 732 l 1,190,-1
 245.462734191 732 l 2,191,192
 243.178226771 730.568323275 243.178226771 730.568323275 241 729 c 1,193,194
 282 729 282 729 296 705 c 0,195,196
 304 689 304 689 304 675 c 0,197,198
 304 651 304 651 288 633.5 c 128,-1,199
 272 616 272 616 248 616 c 0,200,201
 220 616 220 616 202.5 633.5 c 128,-1,202
 185 651 185 651 185 678 c 0,203,204
 185 703 185 703 205 729 c 0,205,206
 206.528491288 730.528491288 206.528491288 730.528491288 208.107016057 732 c 1,207,-1
 200 732 l 1,208,-1
 158 732 l 1,209,-1
 158 579 l 1,210,-1
 200 579 l 1,211,-1
 317 579 l 1,182,-1
317 742 m 1,212,-1
 340.969969796 742 l 1,213,214
 325.557448666 747 325.557448666 747 305 747 c 128,-1,215
 284.445195209 747 284.445195209 747 267.779279307 742 c 1,216,-1
 317 742 l 1,212,-1
93 732 m 1,217,-1
 93 579 l 1,218,-1
 138 579 l 1,219,-1
 138 732 l 1,220,-1
 93 732 l 1,217,-1
93 568 m 1,221,-1
 93 415 l 1,222,-1
 138 415 l 1,223,-1
 138 568 l 1,224,-1
 93 568 l 1,221,-1
93 404 m 1,225,-1
 93 251 l 1,226,-1
 138 251 l 1,227,-1
 138 404 l 1,228,-1
 93 404 l 1,225,-1
93 241 m 1,229,-1
 93 87 l 1,230,-1
 138 87 l 1,231,-1
 138 241 l 1,232,-1
 93 241 l 1,229,-1
EndSplineSet
Validated: 524289
EndChar

StartChar: uniE0AD
Encoding: 57517 57517 122
Width: 511
Flags: W
LayerCount: 2
Fore
SplineSet
30 924 m 2,0,-1
 84 924 l 2,1,2
 93 924 93 924 93 915 c 2,3,-1
 93 742 l 1,4,-1
 138 742 l 1,5,-1
 138 915 l 2,6,7
 138 924 138 924 148 924 c 128,-1,8
 158 924 158 924 158 915 c 2,9,-1
 158 742 l 1,10,-1
 200 742 l 1,11,-1
 317 742 l 1,12,-1
 395.079041204 742 l 1,13,14
 396 758.276644215 396 758.276644215 396 781 c 0,15,16
 396 842 396 842 377.5 876.5 c 128,-1,17
 359 911 359 911 305 911 c 0,18,19
 266 911 266 911 241 893 c 1,20,21
 282 893 282 893 296 869 c 0,22,23
 304 853 304 853 304 839 c 0,24,25
 304 815 304 815 288 797.5 c 128,-1,26
 272 780 272 780 248 780 c 0,27,28
 220 780 220 780 202.5 797.5 c 128,-1,29
 185 815 185 815 185 842 c 0,30,31
 185 867 185 867 205 893 c 1,32,33
 246 934 246 934 323 934 c 0,34,35
 394 934 394 934 442.5 890 c 128,-1,36
 491 846 491 846 491 770 c 0,37,38
 491 755.620243533 491 755.620243533 489.291095901 742 c 1,39,-1
 732 742 l 1,40,-1
 732 732 l 1,41,-1
 487.788168977 732 l 1,42,43
 480.247050785 689.065348313 480.247050785 689.065348313 455 654 c 0,44,45
 419 604 419 604 354 604 c 0,46,47
 313 604 313 604 283 623 c 1,48,-1
 280.5 618.5 l 2,49,50
 278 614 278 614 274.5 609 c 128,-1,51
 271 604 271 604 266.5 597.5 c 128,-1,52
 262 591 262 591 255.5 584.5 c 0,53,54
 252.600791544 581.600791544 252.600791544 581.600791544 249.602110785 579 c 1,55,-1
 317 579 l 1,56,-1
 732 579 l 1,57,-1
 732 568 l 1,58,-1
 317 568 l 1,59,-1
 248.432357895 568 l 1,60,61
 252.03713421 564.96286579 252.03713421 564.96286579 255.5 561.5 c 0,62,63
 262 555 262 555 266.5 548.5 c 128,-1,64
 271 542 271 542 274.5 537 c 128,-1,65
 278 532 278 532 280.5 527.5 c 2,66,-1
 283 523 l 1,67,68
 314 542 314 542 345 542 c 0,69,70
 415 542 415 542 453 495.5 c 0,71,72
 480.453929074 461.905060475 480.453929074 461.905060475 488.073168106 415 c 1,73,-1
 732 415 l 1,74,-1
 732 404 l 1,75,-1
 489.567223098 404 l 1,76,77
 491 390.980734355 491 390.980734355 491 377 c 0,78,79
 491 301 491 301 442.5 256.5 c 0,80,81
 439.403991806 253.659332688 439.403991806 253.659332688 436.216297566 251 c 1,82,-1
 732 251 l 1,83,-1
 732 241 l 1,84,-1
 422.969466177 241 l 1,85,86
 380.316193762 212 380.316193762 212 323 212 c 0,87,88
 259.847878292 212 259.847878292 212 220.171947061 241 c 1,89,-1
 200 241 l 1,90,-1
 158 241 l 1,91,-1
 158 232 l 2,92,93
 158 222 158 222 148 222 c 128,-1,94
 138 222 138 222 138 232 c 2,95,-1
 138 241 l 1,96,-1
 93 241 l 1,97,-1
 93 232 l 2,98,99
 93 222 93 222 84 222 c 2,100,-1
 30 222 l 2,101,102
 20 222 20 222 20 232 c 2,103,-1
 20 241 l 1,104,-1
 0 241 l 1,105,-1
 0 251 l 1,106,-1
 20 251 l 1,107,-1
 20 404 l 1,108,-1
 0 404 l 1,109,-1
 0 415 l 1,110,-1
 20 415 l 1,111,-1
 20 568 l 1,112,-1
 0 568 l 1,113,-1
 0 579 l 1,114,-1
 20 579 l 1,115,-1
 20 732 l 1,116,-1
 0 732 l 1,117,-1
 0 742 l 1,118,-1
 20 742 l 1,119,-1
 20 915 l 2,120,121
 20 924 20 924 30 924 c 2,0,-1
200 77 m 1,122,-1
 0 77 l 1,123,-1
 0 87 l 1,124,-1
 200 87 l 1,125,-1
 317 87 l 1,126,-1
 732 87 l 1,127,-1
 732 77 l 1,128,-1
 317 77 l 1,129,-1
 200 77 l 1,122,-1
317 241 m 1,130,-1
 267.779279307 241 l 1,131,132
 284.445195209 236 284.445195209 236 305 236 c 128,-1,133
 325.557448666 236 325.557448666 236 340.969969796 241 c 1,134,-1
 317 241 l 1,130,-1
317 251 m 1,135,-1
 360.778308518 251 l 1,136,137
 371.198538758 258.748626332 371.198538758 258.748626332 377.5 270.5 c 0,138,139
 396 305 396 305 396 366 c 0,140,141
 396 388.321731236 396 388.321731236 395.169567191 404 c 1,142,-1
 317 404 l 1,143,-1
 200 404 l 1,144,-1
 158 404 l 1,145,-1
 158 251 l 1,146,-1
 200 251 l 1,147,-1
 208.100563599 251 l 1,148,149
 206.52778731 252.47221269 206.52778731 252.47221269 205 254 c 0,150,151
 185 280 185 280 185 305 c 0,152,153
 185 332 185 332 203 349 c 128,-1,154
 221 366 221 366 248 366 c 0,155,156
 272 366 272 366 288 349 c 128,-1,157
 304 332 304 332 304 308 c 0,158,159
 304 294 304 294 296 278 c 0,160,161
 282 254 282 254 241 254 c 1,162,163
 243.178226771 252.431676725 243.178226771 252.431676725 245.462734191 251 c 2,164,-1
 317 251 l 1,135,-1
317 415 m 1,165,-1
 394.41405845 415 l 1,166,167
 392.848038615 432.690733567 392.848038615 432.690733567 387.5 457 c 0,168,169
 382 482 382 482 367 494.5 c 128,-1,170
 352 507 352 507 329 507 c 0,171,172
 268 507 268 507 248 428 c 0,173,174
 248 418 248 418 237 418 c 128,-1,175
 226 418 226 418 226 428 c 0,176,177
 211 487 211 487 200 513 c 0,178,179
 185 549 185 549 158 559 c 1,180,-1
 158 415 l 1,181,-1
 200 415 l 1,182,-1
 317 415 l 1,165,-1
200 732 m 1,183,-1
 158 732 l 1,184,-1
 158 587 l 1,185,186
 185 598 185 598 202.5 638 c 128,-1,187
 220 678 220 678 226 718 c 0,188,189
 226 729 226 729 237 729 c 128,-1,190
 248 729 248 729 248 718 c 0,191,192
 268 639 268 639 329 639 c 0,193,194
 352 639 352 639 367 652 c 128,-1,195
 382 665 382 665 387.5 690 c 0,196,197
 392.778592813 713.993603695 392.778592813 713.993603695 394.372750309 732 c 1,198,-1
 317 732 l 1,199,-1
 200 732 l 1,183,-1
93 732 m 1,200,-1
 93 579 l 1,201,-1
 138 579 l 1,202,-1
 138 732 l 1,203,-1
 93 732 l 1,200,-1
93 568 m 1,204,-1
 93 415 l 1,205,-1
 138 415 l 1,206,-1
 138 568 l 1,207,-1
 93 568 l 1,204,-1
93 404 m 1,208,-1
 93 251 l 1,209,-1
 138 251 l 1,210,-1
 138 404 l 1,211,-1
 93 404 l 1,208,-1
EndSplineSet
Validated: 524289
EndChar

StartChar: uniE0AB
Encoding: 57515 57515 123
Width: 511
Flags: W
LayerCount: 2
Fore
SplineSet
30 1088 m 2,0,-1
 84 1088 l 2,1,2
 93 1088 93 1088 93 1079 c 2,3,-1
 93 742 l 1,4,-1
 138 742 l 1,5,-1
 138 1079 l 2,6,7
 138 1088 138 1088 148 1088 c 128,-1,8
 158 1088 158 1088 158 1079 c 2,9,-1
 158 751 l 1,10,11
 185 762 185 762 202.5 802 c 128,-1,12
 220 842 220 842 226 882 c 0,13,14
 226 893 226 893 237 893 c 128,-1,15
 248 893 248 893 248 882 c 0,16,17
 268 803 268 803 329 803 c 0,18,19
 352 803 352 803 367 816 c 128,-1,20
 382 829 382 829 387.5 854 c 128,-1,21
 393 879 393 879 394.5 897.5 c 128,-1,22
 396 916 396 916 396 945 c 0,23,24
 396 1006 396 1006 377.5 1040.5 c 128,-1,25
 359 1075 359 1075 305 1075 c 0,26,27
 266 1075 266 1075 241 1057 c 1,28,29
 282 1057 282 1057 296 1033 c 0,30,31
 304 1017 304 1017 304 1003 c 0,32,33
 304 979 304 979 288 961.5 c 128,-1,34
 272 944 272 944 248 944 c 0,35,36
 220 944 220 944 202.5 961.5 c 128,-1,37
 185 979 185 979 185 1006 c 0,38,39
 185 1031 185 1031 205 1057 c 1,40,41
 246 1098 246 1098 323 1098 c 0,42,43
 394 1098 394 1098 442.5 1054 c 128,-1,44
 491 1010 491 1010 491 934 c 0,45,46
 491 868 491 868 455 818 c 128,-1,47
 419 768 419 768 354 768 c 0,48,49
 313 768 313 768 283 787 c 1,50,-1
 280.5 782.5 l 2,51,52
 278 778 278 778 274.5 773 c 128,-1,53
 271 768 271 768 266.5 761.5 c 128,-1,54
 262 755 262 755 255.5 748.5 c 0,55,56
 252.03713421 745.03713421 252.03713421 745.03713421 248.432357895 742 c 1,57,-1
 317 742 l 1,58,-1
 732 742 l 1,59,-1
 732 732 l 1,60,-1
 317 732 l 1,61,-1
 248.432357895 732 l 1,62,63
 252.03713421 728.96286579 252.03713421 728.96286579 255.5 725.5 c 0,64,65
 262 719 262 719 266.5 712.5 c 128,-1,66
 271 706 271 706 274.5 701 c 128,-1,67
 278 696 278 696 280.5 691.5 c 2,68,-1
 283 687 l 1,69,70
 314 706 314 706 345 706 c 0,71,72
 415 706 415 706 453 659.5 c 0,73,74
 480.453929074 625.905060475 480.453929074 625.905060475 488.073168106 579 c 1,75,-1
 732 579 l 1,76,-1
 732 568 l 1,77,-1
 489.567223098 568 l 1,78,79
 491 554.980734355 491 554.980734355 491 541 c 0,80,81
 491 465 491 465 442.5 420.5 c 0,82,83
 439.403991806 417.659332688 439.403991806 417.659332688 436.216297566 415 c 1,84,-1
 732 415 l 1,85,-1
 732 404 l 1,86,-1
 421.481325324 404 l 1,87,88
 379.319314347 376 379.319314347 376 323 376 c 0,89,90
 260.946259849 376 260.946259849 376 221.559186366 404 c 1,91,-1
 200 404 l 1,92,-1
 158 404 l 1,93,-1
 158 396 l 2,94,95
 158 386 158 386 148 386 c 128,-1,96
 138 386 138 386 138 396 c 2,97,-1
 138 404 l 1,98,-1
 93 404 l 1,99,-1
 93 396 l 2,100,101
 93 386 93 386 84 386 c 2,102,-1
 30 386 l 2,103,104
 20 386 20 386 20 396 c 2,105,-1
 20 404 l 1,106,-1
 0 404 l 1,107,-1
 0 415 l 1,108,-1
 20 415 l 1,109,-1
 20 568 l 1,110,-1
 0 568 l 1,111,-1
 0 579 l 1,112,-1
 20 579 l 1,113,-1
 20 732 l 1,114,-1
 0 732 l 1,115,-1
 0 742 l 1,116,-1
 20 742 l 1,117,-1
 20 1079 l 2,118,119
 20 1088 20 1088 30 1088 c 2,0,-1
200 77 m 1,120,-1
 0 77 l 1,121,-1
 0 87 l 1,122,-1
 200 87 l 1,123,-1
 317 87 l 1,124,-1
 732 87 l 1,125,-1
 732 77 l 1,126,-1
 317 77 l 1,127,-1
 200 77 l 1,120,-1
200 241 m 1,128,-1
 0 241 l 1,129,-1
 0 251 l 1,130,-1
 200 251 l 1,131,-1
 317 251 l 1,132,-1
 732 251 l 1,133,-1
 732 241 l 1,134,-1
 317 241 l 1,135,-1
 200 241 l 1,128,-1
317 404 m 1,136,-1
 271.341558489 404 l 1,137,138
 286.615223689 400 286.615223689 400 305 400 c 128,-1,139
 323.387141064 400 323.387141064 400 337.6583401 404 c 1,140,-1
 317 404 l 1,136,-1
317 415 m 1,141,-1
 360.778308518 415 l 1,142,143
 371.198538758 422.748626332 371.198538758 422.748626332 377.5 434.5 c 0,144,145
 396 469 396 469 396 530 c 0,146,147
 396 552.321731236 396 552.321731236 395.169567191 568 c 1,148,-1
 317 568 l 1,149,-1
 200 568 l 1,150,-1
 158 568 l 1,151,-1
 158 415 l 1,152,-1
 200 415 l 1,153,-1
 208.100563599 415 l 1,154,155
 206.52778731 416.47221269 206.52778731 416.47221269 205 418 c 0,156,157
 185 444 185 444 185 469 c 0,158,159
 185 496 185 496 203 513 c 128,-1,160
 221 530 221 530 248 530 c 0,161,162
 272 530 272 530 288 513 c 128,-1,163
 304 496 304 496 304 472 c 0,164,165
 304 458 304 458 296 442 c 0,166,167
 282 418 282 418 241 418 c 1,168,169
 243.178226771 416.431676725 243.178226771 416.431676725 245.462734191 415 c 2,170,-1
 317 415 l 1,141,-1
317 579 m 1,171,-1
 394.41405845 579 l 1,172,173
 392.848038615 596.690733567 392.848038615 596.690733567 387.5 621 c 0,174,175
 382 646 382 646 367 658.5 c 128,-1,176
 352 671 352 671 329 671 c 0,177,178
 268 671 268 671 248 592 c 0,179,180
 248 582 248 582 237 582 c 128,-1,181
 226 582 226 582 226 592 c 0,182,183
 211 651 211 651 200 677 c 0,184,185
 185 713 185 713 158 723 c 1,186,-1
 158 579 l 1,187,-1
 200 579 l 1,188,-1
 317 579 l 1,171,-1
93 732 m 1,189,-1
 93 579 l 1,190,-1
 138 579 l 1,191,-1
 138 732 l 1,192,-1
 93 732 l 1,189,-1
93 568 m 1,193,-1
 93 415 l 1,194,-1
 138 415 l 1,195,-1
 138 568 l 1,196,-1
 93 568 l 1,193,-1
EndSplineSet
Validated: 524289
EndChar

StartChar: uniE0AE
Encoding: 57518 57518 124
Width: 460
Flags: W
LayerCount: 2
Fore
SplineSet
197 87 m 1,0,1
 129 103 129 103 80 150 c 0,2,3
 52 177 52 177 36 213 c 0,4,5
 34 217 34 217 27 241 c 1,6,-1
 -2 241 l 1,7,-1
 -2 251 l 1,8,-1
 24 251 l 1,9,10
 19 276 19 276 19 297 c 0,11,12
 19 353 19 353 42 404 c 1,13,-1
 -2 404 l 1,14,-1
 -2 415 l 1,15,-1
 46 415 l 1,16,17
 76 476 76 476 156 552 c 2,18,19
 156 552 156 552 172 568 c 1,20,-1
 -2 568 l 1,21,-1
 -2 579 l 1,22,-1
 183 579 l 1,23,24
 183 579 183 579 197 593 c 0,25,26
 198 594 198 594 200 596 c 2,27,-1
 202 597 l 1,28,29
 201 602 201 602 200 606.5 c 128,-1,30
 199 611 199 611 198.5 614 c 128,-1,31
 198 617 198 617 197.5 619 c 128,-1,32
 197 621 197 621 197 622 c 2,33,-1
 197 624 l 1,34,35
 190 661 190 661 188 708 c 0,36,37
 188 712 188 712 187.5 719.5 c 128,-1,38
 187 727 187 727 187 732 c 1,39,-1
 -2 732 l 1,40,-1
 -2 742 l 1,41,-1
 187 742 l 1,42,43
 187 815 187 815 206 858 c 0,44,45
 226 906 226 906 258 936 c 0,46,47
 284 961 284 961 301 961 c 0,48,49
 310 961 310 961 321 947 c 0,50,51
 345 914 345 914 356 835 c 0,52,53
 363 778 363 778 359 742 c 1,54,-1
 1022 742 l 1,55,-1
 1022 732 l 1,56,-1
 357 732 l 1,57,58
 353 710 353 710 350 699 c 0,59,60
 350 683 350 683 320 626 c 0,61,62
 307 601 307 601 292 579 c 1,63,-1
 1022 579 l 1,64,-1
 1022 568 l 1,65,-1
 284 568 l 1,66,67
 259 533 259 533 247 521 c 1,68,69
 254 480 254 480 265 415 c 1,70,-1
 1022 415 l 1,71,-1
 1022 404 l 1,72,-1
 318 404 l 1,73,-1
 321 404 l 1,74,75
 364 391 364 391 397 349 c 0,76,77
 419 318 419 318 427 283 c 0,78,79
 431 261 431 261 431 251 c 1,80,-1
 1022 251 l 1,81,-1
 1022 241 l 1,82,-1
 431 241 l 1,83,84
 429 201 429 201 409 166 c 0,85,86
 374 110 374 110 321 93 c 0,87,88
 321 92 321 92 321.5 90 c 128,-1,89
 322 88 322 88 322 87 c 1,90,-1
 1022 87 l 1,91,-1
 1022 77 l 1,92,-1
 324 77 l 1,93,94
 325 70 325 70 327.5 56 c 128,-1,95
 330 42 330 42 331 36 c 0,96,97
 345 -42 345 -42 339 -84 c 0,98,99
 333 -136 333 -136 297 -162 c 0,100,101
 261 -184 261 -184 218 -184 c 0,102,103
 206 -184 206 -184 201 -183 c 0,104,105
 146 -177 146 -177 117 -142 c 0,106,107
 102 -123 102 -123 100 -98 c 128,-1,108
 98 -73 98 -73 110 -50 c 0,109,110
 122 -29 122 -29 138 -19 c 0,111,112
 155 -8 155 -8 182 -10 c 0,113,114
 225 -14 225 -14 241 -47 c 0,115,116
 249 -67 249 -67 247.5 -86 c 128,-1,117
 246 -105 246 -105 236 -118 c 0,118,119
 219 -141 219 -141 185 -150 c 0,120,121
 183 -151 183 -151 183 -152 c 2,122,-1
 185 -153 l 2,123,124
 204 -159 204 -159 225 -158 c 0,125,126
 255 -156 255 -156 279 -140 c 0,127,128
 315 -114 315 -114 315 -55 c 0,129,130
 315 -16 315 -16 297 77 c 1,131,-1
 -2 77 l 1,132,-1
 -2 87 l 1,133,-1
 197 87 l 1,0,1
293 251 m 1,134,-1
 380 251 l 1,135,-1
 380 252 l 1,136,137
 374 282 374 282 349.5 306 c 128,-1,138
 325 330 325 330 280 328 c 1,139,140
 284 307 284 307 293 251 c 1,134,-1
82 251 m 1,141,-1
 142 251 l 1,142,143
 138 296 138 296 161 339 c 0,144,145
 189 389 189 389 236 404 c 1,146,-1
 134 404 l 1,147,148
 118 383 118 383 107 362 c 0,149,150
 82 314 82 314 82 270 c 2,151,-1
 82 251 l 1,141,-1
84 241 m 1,152,153
 87 221 87 221 94 205 c 0,154,155
 104 181 104 181 124 161 c 0,156,157
 160 127 160 127 207 114 c 0,158,159
 247 104 247 104 290 113 c 0,160,161
 290 115 290 115 289 119.5 c 128,-1,162
 288 124 288 124 288 126 c 0,163,164
 284 145 284 145 276 188 c 128,-1,165
 268 231 268 231 266 241 c 1,166,-1
 185 241 l 1,167,168
 187 207 187 207 211 189 c 0,169,170
 213 188 213 188 217.5 185 c 128,-1,171
 222 182 222 182 224 181 c 0,172,173
 241 171 241 171 238 163 c 0,174,175
 237 161 237 161 233 159 c 0,176,177
 225 156 225 156 210 161.5 c 128,-1,178
 195 167 195 167 188 172 c 0,179,180
 154 192 154 192 144 239 c 0,181,182
 144 240 144 240 143.5 240 c 128,-1,183
 143 240 143 240 143 241 c 1,184,-1
 84 241 l 1,152,153
186 251 m 1,185,-1
 264 251 l 1,186,187
 262 262 262 262 257.5 286.5 c 128,-1,188
 253 311 253 311 251 324 c 1,189,190
 227 318 227 318 211 303 c 128,-1,191
 195 288 195 288 188 262 c 0,192,193
 186 254 186 254 186 251 c 1,185,-1
295 241 m 1,194,195
 303 192 303 192 315 128 c 0,196,197
 316 125 316 125 316 120 c 1,198,199
 355 135 355 135 373 180 c 0,200,201
 383 207 383 207 381 241 c 1,202,-1
 295 241 l 1,194,195
142 415 m 1,203,-1
 234 415 l 1,204,205
 224 469 224 469 220 493 c 1,206,207
 203 476 203 476 194 468 c 0,208,209
 163 440 163 440 142 415 c 1,203,-1
224 742 m 1,210,-1
 310 742 l 2,211,212
 311 744 311 744 313 750 c 128,-1,213
 315 756 315 756 316 758 c 0,214,215
 335 819 335 819 314 858 c 0,216,217
 310 866 310 866 305 868 c 2,218,-1
 302 868 l 2,219,220
 290 868 290 868 275 854 c 0,221,222
 246 830 246 830 233 785 c 0,223,224
 227 766 227 766 224 742 c 1,210,-1
223 732 m 1,225,226
 220 691 220 691 227 646 c 2,227,-1
 230 625 l 1,228,229
 287 687 287 687 306 732 c 1,230,-1
 223 732 l 1,225,226
EndSplineSet
Validated: 37
EndChar

StartChar: uniE0A9
Encoding: 57513 57513 125
Width: 720
Flags: W
LayerCount: 2
Fore
SplineSet
-76 87 m 1,0,-1
 1148 87 l 1,1,-1
 1148 77 l 1,2,-1
 -76 77 l 1,3,-1
 -76 87 l 1,0,-1
309 251 m 2,4,5
 312 253 312 253 346 282 c 0,6,7
 384 316 384 316 422 390 c 0,8,9
 423 392 423 392 425.5 397 c 128,-1,10
 428 402 428 402 429 404 c 1,11,-1
 -76 404 l 1,12,-1
 -76 415 l 1,13,-1
 434 415 l 1,14,15
 465 487 465 487 465 548 c 0,16,17
 465 552 465 552 464.5 558.5 c 128,-1,18
 464 565 464 565 464 568 c 1,19,-1
 368 568 l 1,20,21
 365 533 365 533 335 516 c 0,22,23
 316 505 316 505 293 505 c 0,24,25
 279 505 279 505 268 509 c 0,26,27
 237 520 237 520 225 546 c 0,28,29
 219 560 219 560 218 568 c 1,30,-1
 -76 568 l 1,31,-1
 -76 579 l 1,32,-1
 217 579 l 1,33,-1
 217 588 l 2,34,35
 217 607 217 607 221 623 c 0,36,37
 234 673 234 673 281 708 c 0,38,39
 303 724 303 724 335 732 c 1,40,-1
 -76 732 l 1,41,-1
 -76 742 l 1,42,-1
 1148 742 l 1,43,-1
 1148 732 l 1,44,-1
 421 732 l 1,45,46
 477 720 477 720 510 681 c 0,47,48
 544 641 544 641 550 579 c 1,49,-1
 1148 579 l 1,50,-1
 1148 568 l 1,51,-1
 551 568 l 1,52,-1
 551 549 l 2,53,54
 551 487 551 487 512 415 c 1,55,-1
 1148 415 l 1,56,-1
 1148 404 l 1,57,-1
 506 404 l 1,58,59
 482 362 482 362 446 323 c 0,60,61
 417 292 417 292 364 251 c 1,62,-1
 1148 251 l 1,63,-1
 1148 241 l 1,64,-1
 350 241 l 1,65,66
 324 221 324 221 291.5 202.5 c 128,-1,67
 259 184 259 184 240 175.5 c 128,-1,68
 221 167 221 167 220 167 c 2,69,-1
 219 166 l 2,70,71
 218 166 218 166 217 166 c 0,72,73
 207 166 207 166 205 174 c 0,74,75
 202 184 202 184 212 190 c 0,76,77
 248 207 248 207 295 241 c 1,78,-1
 -76 241 l 1,79,-1
 -76 251 l 1,80,-1
 309 251 l 2,4,5
464 579 m 1,81,82
 455 713 455 713 365 713 c 0,83,84
 327 713 327 713 304 700 c 0,85,86
 283 688 283 688 271 670 c 0,87,88
 257 649 257 649 254 628 c 1,89,90
 261 635 261 635 277 642 c 0,91,92
 286 645 286 645 298 645 c 0,93,94
 317 645 317 645 336 633 c 0,95,96
 366 614 366 614 368 579 c 1,97,-1
 464 579 l 1,81,82
578 491 m 132,-1,99
 578 505 578 505 587 515 c 132,-1,100
 596 525 596 525 609 525 c 132,-1,101
 622 525 622 525 631.5 515 c 132,-1,102
 641 505 641 505 641 491 c 4,103,104
 641 478 641 478 631.5 468 c 132,-1,105
 622 458 622 458 609 458 c 132,-1,106
 596 458 596 458 587 467.5 c 132,-1,98
 578 477 578 477 578 491 c 132,-1,99
578 654 m 132,-1,108
 578 668 578 668 587 677.5 c 132,-1,109
 596 687 596 687 609 687 c 132,-1,110
 622 687 622 687 631.5 677 c 132,-1,111
 641 667 641 667 641 654 c 132,-1,112
 641 641 641 641 631.5 631 c 132,-1,113
 622 621 622 621 609 621 c 132,-1,114
 596 621 596 621 587 630.5 c 132,-1,107
 578 640 578 640 578 654 c 132,-1,108
EndSplineSet
Validated: 1
EndChar
